<svg xmlns="http://www.w3.org/2000/svg" width="835.817" height="471.893" viewBox="0 0 835.817 471.893">
  <g id="Group_3098" data-name="Group 3098" transform="translate(14786.943 -7029.95)">
    <path id="Path_760" data-name="Path 760" d="M7356.3,1202.7a6.665,6.665,0,0,0-6.718,5.951H6980.848V1101.433h-98.176a6.774,6.774,0,1,0-.075,2.912h95.341v107.22h371.926a6.444,6.444,0,0,0,6.437,4.67,7.018,7.018,0,0,0,6.771-6.77,6.857,6.857,0,0,0-6.771-6.766Z" transform="translate(-21314.197 6030.596)" fill="#cacaca" fill-rule="evenodd"/>
    <g id="Group_3093" data-name="Group 3093">
      <path id="Path_246" data-name="Path 246" d="M6551.543,949.376c111.131,0,201.229,90.1,201.229,201.228a201.487,201.487,0,0,1-144.611,193.073l-56.618,77.592-56.614-77.592A201.486,201.486,0,0,1,6350.315,1150.6c0-111.131,90.1-201.228,201.229-201.228Zm0,46.626a154.594,154.594,0,0,0-154.6,154.6c0,78.078,51.943,134.01,125.592,152.164l29.01,39.76,29.015-39.76c73.644-18.155,125.587-74.086,125.587-152.164a154.593,154.593,0,0,0-154.6-154.6Z" transform="translate(-21137.258 6080.574)" fill="#ce1b28"/>
      <g id="Group_147" data-name="Group 147" transform="translate(-14713 7103.604)">
        <path id="Path_247" data-name="Path 247" d="M6531.385,1090.857a128.325,128.325,0,0,1,70.758-29.311l2.916,33.841a92.87,92.87,0,0,0-51.913,21.48l-21.761-26.01Z" transform="translate(-6486.313 -1061.546)" fill="#4e4e4e"/>
        <path id="Path_248" data-name="Path 248" d="M6462.994,1200.808a127.192,127.192,0,0,1,29-70.236l26.01,21.629a93.985,93.985,0,0,0-21.309,51.522l-33.7-2.915Z" transform="translate(-6462.994 -1085.081)" fill="#1c1e22"/>
        <path id="Path_249" data-name="Path 249" d="M6720.042,1116.867a92.85,92.85,0,0,0-51.914-21.48l2.919-33.841a128.325,128.325,0,0,1,70.756,29.311l-21.761,26.01Z" transform="translate(-6532.937 -1061.546)" fill="#ce1b28"/>
        <path id="Path_250" data-name="Path 250" d="M6786.143,1203.723a93.943,93.943,0,0,0-21.3-51.522l26.011-21.629a127.2,127.2,0,0,1,29,70.236l-33.709,2.915Z" transform="translate(-6565.911 -1085.081)" fill="#020402"/>
        <path id="Path_251" data-name="Path 251" d="M6553.146,1362.521A92.9,92.9,0,0,0,6605.059,1384l-2.916,33.836a128.3,128.3,0,0,1-70.758-29.312l21.761-26.005Z" transform="translate(-6486.313 -1164.167)" fill="#f8e5ee"/>
        <path id="Path_252" data-name="Path 252" d="M6496.7,1266.441a93.961,93.961,0,0,0,21.309,51.518L6492,1339.588a127.168,127.168,0,0,1-29-70.232l33.7-2.916Z" transform="translate(-6462.994 -1131.408)" fill="#ce1b28"/>
        <path id="Path_253" data-name="Path 253" d="M6741.8,1388.526a128.3,128.3,0,0,1-70.756,29.312L6668.127,1384a92.917,92.917,0,0,0,51.914-21.481l21.761,26.005Z" transform="translate(-6532.937 -1164.167)" fill="#8baaad"/>
        <path id="Path_254" data-name="Path 254" d="M6819.852,1269.357a127.179,127.179,0,0,1-29,70.232l-26.011-21.629a93.908,93.908,0,0,0,21.3-51.518l33.709,2.916Z" transform="translate(-6565.911 -1131.408)" fill="#fcf300"/>
      </g>
      <text id="Implement_Solutions" data-name="Implement
Solutions" transform="translate(-14586 7220.604)" fill="#1d3461" font-size="30" font-family="Livvic-Bold, Livvic" font-weight="700" style="isolation: isolate"><tspan x="-79.5" y="0">Implement</tspan><tspan x="-67.665" y="42">Solutions</tspan></text>
    </g>
  </g>
</svg>
