<svg xmlns="http://www.w3.org/2000/svg" width="656.208" height="353.211" viewBox="0 0 656.208 353.211">
  <g id="Group_3096" data-name="Group 3096" transform="translate(15583.999 -6886.083)">
    <path id="Path_508" data-name="Path 508" d="M5147.656,1191.261a6.669,6.669,0,0,1,6.721,5.952h368.73V1090h98.18a6.767,6.767,0,1,1,.073,2.916h-95.34v107.216H5154.093a6.445,6.445,0,0,1-6.437,4.67,7.017,7.017,0,0,1-6.768-6.77,6.856,6.856,0,0,1,6.768-6.767Z" transform="translate(-20724.887 6034.496)" fill="#cacaca" fill-rule="evenodd"/>
    <g id="Group_3091" data-name="Group 3091">
      <path id="Path_236" data-name="Path 236" d="M5869.409,731.076a131.091,131.091,0,0,1,37.726,256.641l-37.724,51.7-37.725-51.7a131.091,131.091,0,0,1,37.723-256.641Zm0,34.969a96.13,96.13,0,0,0-96.135,96.135c0,49.457,32.8,83.464,79.134,94.884l17,23.3,17-23.3c46.333-11.42,79.135-45.427,79.135-94.884a96.13,96.13,0,0,0-96.135-96.135Z" transform="translate(-20928.305 6155.007)" fill="#326771"/>
      <text id="Best_Plans" data-name="Best
Plans" transform="translate(-15059 7009.604)" fill="#141d38" font-size="30" font-family="Livvic-Bold, Livvic" font-weight="700" style="isolation: isolate"><tspan x="-31.455" y="0">Best</tspan><tspan x="-40.05" y="35">Plans</tspan></text>
    </g>
  </g>
</svg>
