<svg xmlns="http://www.w3.org/2000/svg" width="694.189" height="284.641" viewBox="0 0 694.189 284.641">
  <g id="Group_3095" data-name="Group 3095" transform="translate(15489.758 -6740.444)">
    <path id="Path_383" data-name="Path 383" d="M5290.659,523.627a6.67,6.67,0,0,0,6.719-5.954h368.73V624.891h98.181a6.767,6.767,0,1,0,.072-2.914h-95.339V514.759H5297.1a6.446,6.446,0,0,0-6.437-4.669,7.016,7.016,0,0,0-6.77,6.768,6.859,6.859,0,0,0,6.77,6.769Z" transform="translate(-20773.646 6230.354)" fill="#cacaca" fill-rule="evenodd"/>
    <g id="Group_3090" data-name="Group 3090">
      <path id="Path_231" data-name="Path 231" d="M6109.076,541.765a112.205,112.205,0,0,1,32.144,219.711l-32.144,44.055-32.145-44.055a112.205,112.205,0,0,1,32.145-219.711Zm0,29.141A83.072,83.072,0,0,0,6026,653.982c0,42.578,28.254,72.1,68.2,81.946l14.878,20.391,14.879-20.391c39.941-9.85,68.2-39.368,68.2-81.946a83.073,83.073,0,0,0-83.076-83.076Z" transform="translate(-21016.859 6219.555)" fill="#605f5e"/>
      <text id="Business_Needs" data-name="Business
Needs" transform="translate(-14908 6867.604)" fill="#141d38" font-size="25" font-family="Livvic-Bold, Livvic" font-weight="700" style="isolation: isolate"><tspan x="-51.9" y="0">Business</tspan><tspan x="-36.85" y="30">Needs</tspan></text>
    </g>
  </g>
</svg>
