<svg xmlns="http://www.w3.org/2000/svg" width="652.629" height="209.527" viewBox="0 0 652.629 209.527">
  <g id="Group_3094" data-name="Group 3094" transform="translate(14819 -6722.801)">
    <path id="Path_258" data-name="Path 258" d="M7029.7,713.7a6.672,6.672,0,0,0-6.723,5.954h-368.73V612.436h-98.18a6.77,6.77,0,1,0-.073,2.914h95.339V722.569h371.93a6.442,6.442,0,0,0,6.438,4.669,7.016,7.016,0,0,0,6.765-6.77,6.858,6.858,0,0,0-6.765-6.769Z" transform="translate(-21202.84 6197.326)" fill="#cacaca" fill-rule="evenodd"/>
    <g id="Group_3089" data-name="Group 3089">
      <path id="Path_226" data-name="Path 226" d="M6390.674,483.319a89.118,89.118,0,0,1,25.56,174.494l-25.56,35.032-25.564-35.032a89.118,89.118,0,0,1,25.564-174.494Zm0,23.312a65.812,65.812,0,0,0-65.816,65.814c0,33.768,22.407,57.12,54.066,64.93l11.75,16.1,11.745-16.1c31.665-7.809,54.069-31.164,54.069-64.93a65.812,65.812,0,0,0-65.814-65.814Z" transform="translate(-21120.547 6239.482)" fill="#c1dbe3"/>
      <text id="Strategy" transform="translate(-14730 6816.604)" fill="#141d38" font-size="20" font-family="Livvic-Bold, Livvic" font-weight="700" style="isolation: isolate"><tspan x="-42.35" y="0">Strategy</tspan></text>
    </g>
  </g>
</svg>
