<svg xmlns="http://www.w3.org/2000/svg" width="728.414" height="392.806" viewBox="0 0 728.414 392.806">
  <g id="Group_3097" data-name="Group 3097" transform="translate(15470.504 -7074.212)">
    <path id="Path_636" data-name="Path 636" d="M5319.872,1536.8a6.67,6.67,0,0,1,6.719,5.956h368.732V1435.543H5793.5a6.765,6.765,0,1,1,.071,2.912h-95.339v107.22H5326.309a6.443,6.443,0,0,1-6.437,4.666,7.013,7.013,0,0,1-6.768-6.766,6.86,6.86,0,0,1,6.768-6.77Z" transform="translate(-20783.607 5916.677)" fill="#cacaca" fill-rule="evenodd"/>
    <g id="Group_3092" data-name="Group 3092">
      <path id="Path_241" data-name="Path 241" d="M6089.535,1016.537A161.938,161.938,0,0,1,6135.7,1333.7l-46.161,63.268-46.164-63.268a161.938,161.938,0,0,1,46.164-317.162Zm0,40.8a121.15,121.15,0,0,0-121.159,121.155c0,61.831,41.063,105.117,99.165,119.437l21.994,30.142,21.994-30.142c58.1-14.32,99.162-57.606,99.162-119.437a121.15,121.15,0,0,0-121.156-121.155Z" transform="translate(-20993.578 6057.675)" fill="#1d3461"/>
      <text id="Discuss_Possible_Solutions" data-name="Discuss
Possible
Solutions" transform="translate(-14904 7210.604)" fill="#1d3461" font-size="30" font-family="Livvic-Bold, Livvic" font-weight="700" style="isolation: isolate"><tspan x="-53.835" y="0">Discuss</tspan><tspan x="-58.8" y="38">Possible</tspan><tspan x="-67.665" y="76">Solutions</tspan></text>
    </g>
  </g>
</svg>
