<?xml version="1.0" standalone="no"?>
<!DOCTYPE svg PUBLIC "-//W3C//DTD SVG 20010904//EN"
 "http://www.w3.org/TR/2001/REC-SVG-20010904/DTD/svg10.dtd">
<svg version="1.0" xmlns="http://www.w3.org/2000/svg"
 width="900.000000pt" height="900.000000pt" viewBox="0 0 900.000000 900.000000"
 preserveAspectRatio="xMidYMid meet">

<g transform="translate(0.000000,900.000000) scale(0.100000,-0.100000)"
fill="#000000" stroke="none">
<path d="M7060 6830 l0 -80 35 0 c19 0 35 -4 35 -10 0 -5 11 -10 25 -10 14 0
25 5 25 10 0 6 16 10 35 10 l35 0 0 80 0 80 -95 0 -95 0 0 -80z"/>
<path d="M7133 6713 c15 -2 37 -2 50 0 12 2 0 4 -28 4 -27 0 -38 -2 -22 -4z"/>
<path d="M7696 6651 c-10 -11 -16 -24 -13 -29 3 -4 -7 -7 -22 -4 -21 3 -33 -2
-45 -19 -21 -31 -20 -57 4 -96 18 -30 24 -33 70 -33 42 0 52 4 66 25 15 23 15
26 -1 41 -9 10 -13 23 -9 33 14 34 9 46 -19 49 -23 3 -26 6 -17 17 20 24 6 39
-14 16z"/>
<path d="M6605 6649 c2 -3 -7 -17 -21 -32 -32 -35 -32 -77 1 -101 14 -10 25
-25 25 -32 0 -23 18 -16 23 9 l4 22 8 -22 c8 -26 25 -31 25 -7 0 18 23 44 39
44 6 0 11 16 11 35 0 21 -5 35 -13 35 -6 0 -18 12 -24 28 -10 22 -19 27 -47
27 -19 0 -33 -3 -31 -6z"/>
<path d="M8055 6311 c-8 -14 12 -23 36 -16 17 6 19 9 8 16 -18 11 -36 11 -44
0z"/>
<path d="M6180 6285 c0 -20 -5 -25 -24 -25 -15 0 -26 7 -29 18 -3 9 -5 -12 -6
-48 0 -46 2 -60 9 -48 13 21 50 12 50 -13 0 -11 7 -19 16 -19 10 0 14 -6 10
-15 -3 -9 0 -15 9 -15 9 0 12 6 9 15 -4 9 0 15 10 15 9 0 16 8 16 20 0 13 7
20 20 20 11 0 20 -4 20 -10 0 -5 4 -10 9 -10 4 0 8 28 9 63 0 34 -2 54 -5 45
-3 -11 -14 -18 -29 -18 -19 0 -24 5 -24 25 0 22 -4 25 -35 25 -31 0 -35 -3
-35 -25z m60 -5 c0 -15 -7 -20 -25 -20 -18 0 -25 5 -25 20 0 15 7 20 25 20 18
0 25 -5 25 -20z m0 -56 c0 -18 -50 -19 -51 -1 0 10 -2 10 -6 0 -6 -17 -53 -17
-53 0 0 21 5 22 59 19 35 -3 51 -8 51 -18z m58 -1 c2 -8 -6 -13 -22 -13 -17 0
-26 5 -26 16 0 19 41 16 48 -3z m-60 -45 c-7 -20 -48 -23 -48 -4 0 11 9 16 26
16 16 0 24 -5 22 -12z"/>
<path d="M8040 6271 c0 -16 -6 -21 -24 -21 -29 0 -44 -18 -22 -26 20 -8 77 27
74 45 -5 23 -28 25 -28 2z"/>
<path d="M8097 6284 c-14 -14 -7 -30 22 -47 16 -9 36 -14 45 -11 22 9 10 24
-20 24 -16 0 -27 7 -32 20 -4 12 -11 18 -15 14z"/>
<path d="M7972 6204 c1 -9 9 -19 16 -22 9 -3 13 2 10 14 -1 9 -9 19 -16 22 -9
3 -13 -2 -10 -14z"/>
<path d="M8017 6213 c-13 -12 -7 -33 9 -33 8 0 22 -7 30 -15 9 -8 19 -15 24
-15 5 0 15 7 24 15 8 8 20 15 26 15 15 0 9 32 -7 38 -7 2 -13 -3 -13 -12 0 -8
-5 -18 -11 -21 -16 -11 -59 4 -59 20 0 16 -12 20 -23 8z"/>
<path d="M8163 6205 c-3 -9 -3 -18 0 -21 9 -9 27 6 27 22 0 19 -19 18 -27 -1z"/>
<path d="M6271 6144 c0 -11 3 -14 6 -6 3 7 2 16 -1 19 -3 4 -6 -2 -5 -13z"/>
<path d="M8042 6134 c1 -9 9 -19 16 -22 9 -3 13 2 10 14 -1 9 -9 19 -16 22 -9
3 -13 -2 -10 -14z"/>
<path d="M8087 6143 c-13 -12 -7 -33 8 -33 8 0 15 9 15 20 0 20 -11 26 -23 13z"/>
<path d="M6004 5821 c-11 -12 -2 -23 16 -18 18 5 19 3 5 -24 -19 -35 -19 -39
1 -39 11 0 14 5 10 16 -9 24 12 44 45 44 29 0 50 -24 42 -47 -3 -7 2 -13 11
-13 20 0 20 4 1 39 -14 28 -14 29 7 23 14 -3 19 -1 16 8 -3 10 -25 14 -77 15
-40 0 -74 -2 -77 -4z"/>
<path d="M8225 5763 c-4 -31 -9 -62 -12 -70 -3 -7 -1 -13 5 -13 5 0 13 21 17
48 3 26 9 57 12 70 3 12 1 22 -5 22 -5 0 -13 -25 -17 -57z"/>
<path d="M8160 5775 l-23 -25 23 -25 c13 -14 28 -25 34 -25 6 0 1 10 -11 22
l-22 21 20 29 c25 35 11 37 -21 3z"/>
<path d="M8280 5775 l23 -25 -23 -25 c-13 -14 -19 -25 -13 -25 5 0 20 11 33
25 l23 25 -23 25 c-13 14 -28 25 -33 25 -6 0 0 -11 13 -25z"/>
<path d="M6055 5756 c-21 -31 -10 -56 25 -56 17 0 30 7 34 16 7 18 -18 64 -34
64 -5 0 -16 -11 -25 -24z m35 -26 c0 -5 -4 -10 -10 -10 -5 0 -10 5 -10 10 0 6
5 10 10 10 6 0 10 -4 10 -10z"/>
<path d="M6050 5680 c0 -5 14 -10 30 -10 17 0 30 5 30 10 0 6 -13 10 -30 10
-16 0 -30 -4 -30 -10z"/>
<path d="M6247 5358 c-47 -42 -38 -131 15 -142 58 -11 76 -8 77 17 0 12 3 43
7 68 6 49 -2 63 -47 74 -19 5 -33 0 -52 -17z m67 -34 c3 -8 2 -12 -4 -9 -6 3
-10 10 -10 16 0 14 7 11 14 -7z"/>
<path d="M7945 5350 c-8 -14 3 -30 21 -30 23 0 17 -49 -8 -70 -18 -14 -20 -21
-11 -31 20 -20 40 -3 54 45 7 25 16 46 19 46 3 0 12 -21 20 -48 12 -35 21 -47
35 -47 27 0 31 32 6 40 -29 9 -29 61 0 68 26 7 20 31 -9 35 -16 2 -22 -2 -22
-15 0 -13 -8 -18 -30 -18 -22 0 -30 5 -30 18 0 18 -34 24 -45 7z"/>
<path d="M8010 5260 c0 -5 5 -10 10 -10 6 0 10 5 10 10 0 6 -4 10 -10 10 -5 0
-10 -4 -10 -10z"/>
<path d="M7100 4406 c0 -8 -3 -21 -6 -30 -10 -26 12 -18 24 9 9 20 19 25 47
25 l36 0 -61 -90 -61 -90 31 0 c17 0 30 5 30 13 0 6 23 46 50 87 27 41 50 78
50 83 0 4 -31 7 -70 7 -54 0 -70 -3 -70 -14z"/>
<path d="M7230 4276 c0 -8 -7 -22 -16 -30 -14 -15 -14 -16 5 -16 17 0 21 6 21
30 0 17 -2 30 -5 30 -3 0 -5 -6 -5 -14z"/>
<path d="M7143 4123 c-3 -10 -19 -51 -35 -91 -31 -81 -32 -82 -19 -82 4 0 12
15 17 33 9 28 14 32 44 32 30 0 35 -4 44 -32 7 -26 14 -33 33 -33 14 0 23 4
21 9 -66 171 -89 207 -105 164z m21 -55 c9 -35 8 -38 -14 -38 -11 0 -20 3 -20
8 0 19 13 52 20 52 4 0 10 -10 14 -22z"/>
<path d="M7081 3823 l0 -38 16 33 c29 58 43 41 43 -52 0 -72 -3 -85 -17 -89
-10 -3 7 -5 37 -5 30 0 47 2 38 5 -15 4 -18 17 -18 89 0 76 2 85 17 82 10 -2
23 -13 29 -26 18 -37 24 -37 24 1 l0 37 -85 0 -85 0 1 -37z"/>
</g>
</svg>
