<svg id="OBJECTS" xmlns="http://www.w3.org/2000/svg" width="812" height="594.691" viewBox="0 0 812 594.691">
  <g id="Group_468" data-name="Group 468" transform="translate(27.563 29.681)">
    <path id="Path_1406" data-name="Path 1406" d="M335.149,200.123c-27.386-99.347-150.8-131.35-221.521-57.1q-1.525,1.6-3.044,3.253C9.188,256.492,57.088,528.109,268.7,596.953S700.408,540.082,712.773,427.7,627.511,280.01,476.008,311.435C390.411,329.189,352.2,261.967,335.149,200.123Z" transform="translate(-10.359 -102.264)" fill="#a4a7af"/>
    <path id="Path_1407" data-name="Path 1407" d="M328.772,169.13c-28.313,4.609-36.16,29.694-14.3,47.488,7.225,5.881,17.544,10.769,32.243,13.206,56,9.29,85.714-15.485,63.267-47.607C396.131,162.39,356.829,164.561,328.772,169.13Z" transform="translate(172.049 -54.279)" fill="#bbe2f2"/>
    <path id="Path_1408" data-name="Path 1408" d="M80.841,288.454c-17.6-22.651-43.38-17.53-48.536,10.182-1.705,9.158-1.055,20.558,3.841,34.632,18.653,53.611,54.631,67.838,72.087,32.752C119.007,344.365,98.285,310.9,80.841,288.454Z" transform="translate(-31.453 27.129)" fill="#a4a7af"/>
    <path id="Path_1409" data-name="Path 1409" d="M443.82,309.5c-2.608,13.653,8.666,23.325,21.441,18.063,4.222-1.738,8.482-5.091,12.271-10.984,14.433-22.454,7.122-41.715-12.973-39.739C452.155,278.065,446.405,295.974,443.82,309.5Z" transform="translate(278.551 28.994)" fill="#a4a7af"/>
    <path id="Path_1410" data-name="Path 1410" d="M416.726,231.029c13.608,2.841,23.469-8.266,18.427-21.129-1.668-4.251-4.947-8.568-10.776-12.456-22.2-14.814-41.588-7.832-39.953,12.3C385.434,222.162,403.241,228.215,416.726,231.029Z" transform="translate(234.07 -36.614)" fill="#bbe2f2"/>
    <path id="Path_1411" data-name="Path 1411" d="M222.639,149.586c10.774,8.783,24.641,3.461,26.084-10.28.477-4.541-.449-9.882-3.834-16.017-12.895-23.371-33.316-26.092-41.128-7.471C198.939,127.312,211.963,140.882,222.639,149.586Z" transform="translate(97.422 -101.278)" fill="#a4a7af"/>
  </g>
  <g id="Group_478" data-name="Group 478" transform="translate(0 106.82)">
    <path id="Path_1412" data-name="Path 1412" d="M506.169,356.007c21.606-21.72,38.06-46.265,21.692-50.092-16.384-3.831-43.9,38.945-48.694,77.879l-4.8,12.854c3.99-28.313-5.711-62.8-19.917-64.22-14.113-1.412-5.571,20.958,5.639,40.089,8.534,14.563,10.783,26.052,11.344,31.989l-22.663,60.71c6.191-44.854-9.179-99.273-31.653-101.522-22.4-2.24-8.841,33.256,8.946,63.611,13.443,22.94,17.06,41.083,17.984,50.564l-4.518,12.1q2.963,1.669,5.946,3.3l26.963-72.229a87.123,87.123,0,0,1,24.345-12.381c21-7.1,42.115-18.406,30.53-26.588-10.056-7.1-33.7,6.568-49.98,25.858l9.325-24.98C490.863,375.722,496.844,365.381,506.169,356.007Z" transform="translate(277.502 -26.346)" fill="#4e4e4e"/>
    <path id="Path_1413" data-name="Path 1413" d="M100.217,192.576c2.8-26.233.62-51.587-12.435-45.334s-8.487,49.819,9.281,78.55l3.706,11.219c-12.584-21.164-37.688-39.1-47.995-32.394-10.24,6.661,7.557,17.079,25.4,23.884,13.58,5.18,21.284,11.684,24.862,15.367l17.505,52.989c-20.02-33.46-59.678-61.722-75.983-51.116-16.247,10.567,11.99,27.1,40.3,37.9,21.392,8.16,33.6,18.4,39.332,24.263l3.491,10.566q2.892-.476,5.774-.988l-20.828-63.041A75.051,75.051,0,0,1,122.3,233c10.276-16.095,18.362-35.063,6.17-34.311-10.581.652-19.09,22.573-19.628,44.306l-7.2-21.8C100.566,214.067,99.008,203.9,100.217,192.576Z" transform="translate(2.384 -146.282)" fill="#4e4e4e"/>
    <g id="Group_471" data-name="Group 471" transform="translate(636.413 205.303)">
      <g id="Group_469" data-name="Group 469">
        <path id="Path_1414" data-name="Path 1414" d="M380.289,459.946c.275,1.488.592,3.109.964,4.833v.005c3.891,18.087,13.441,47.7,34.932,53.52,0,0-11.7-60.992,29.993-76.877s37.08-31.012,34.7-57.935-11.6-32.056,17.332-57.276,23.4-62.784,23.4-62.784-27.377,42.89-56.618,43.885-34.36,25.957-33.114,44.521-23.586,20.661-37.024,31.429-15.967,67.307-15.967,67.307S379.25,454.273,380.289,459.946Z" transform="translate(-378.88 -263.434)" fill="#1c1e22"/>
      </g>
      <g id="Group_470" data-name="Group 470" transform="translate(1.409 54.878)">
        <path id="Path_1415" data-name="Path 1415" d="M379.684,436.383c.275,1.488.592,3.109.964,4.833a92.383,92.383,0,0,1,11.163-22.549c9.351-13.855,22.521-25.237,34.367-29.7,18.86-7.108,28.069-25.605,29.855-59.983,1.034-19.955,21.909-31.742,22.125-31.856a1.267,1.267,0,0,0-1.227-2.217c-.909.5-22.319,12.567-23.428,33.94-1.723,33.234-10.425,51.046-28.216,57.751-12.5,4.709-25.8,16.168-35.577,30.652A96.172,96.172,0,0,0,379.684,436.383Z" transform="translate(-379.684 -294.749)" fill="#fff"/>
      </g>
    </g>
    <g id="Group_474" data-name="Group 474" transform="translate(0 292.057)">
      <g id="Group_472" data-name="Group 472">
        <path id="Path_1416" data-name="Path 1416" d="M192.08,480.724h29.3c-15.83-2.618-55.076-19.466-58.576-53.252-4.432-42.793-19.671-42.259-45.347-46.733S84.7,383.571,68.4,350.348s-52.675-37.41-52.675-37.41S48.876,349.11,42.531,376.6s15.641,38.47,33.244,41.924,13.385,27.114,20.074,42.31c3.053,6.934,15.55,14.123,28.236,19.89Z" transform="translate(-15.725 -312.938)" fill="#4e4e4e"/>
      </g>
      <g id="Group_473" data-name="Group 473" transform="translate(40.28 53.227)">
        <path id="Path_1417" data-name="Path 1417" d="M111.33,415.744c1.279,12.816,8.648,28.057,19.712,40.767.389.447.794.9,1.206,1.358h3.335c-.955-1-1.858-2-2.7-2.962-10.583-12.158-17.914-27.259-19.13-39.406-1.929-19.34-16.874-32.52-48.459-42.732-18.334-5.925-24.124-28.306-24.179-28.535a1.221,1.221,0,0,0-2.369.591c.242.974,6.156,23.921,25.794,30.268C95.074,384.964,109.506,397.5,111.33,415.744Z" transform="translate(-38.71 -343.311)" fill="#fff"/>
      </g>
    </g>
    <g id="Group_477" data-name="Group 477" transform="translate(18.332 78.361)">
      <g id="Group_475" data-name="Group 475">
        <path id="Path_1418" data-name="Path 1418" d="M200.009,493.059c-.62,2.078-1.323,4.342-2.117,6.747l0,.005c-8.329,25.207-25.416,67.664-56.971,72.667,0,0,24.974-86.9-32.059-115.967s-48.131-49.94-40.592-87.98,21.469-43.95-15.921-84.372S28.624,191,28.624,191,61.084,256.39,102.646,262.3s45.028,42.313,40.4,68.6,30.473,33.1,47.986,50.527,12.434,98.474,12.434,98.474S202.364,485.124,200.009,493.059Z" transform="translate(-26.186 -190.997)" fill="#4e4e4e"/>
      </g>
      <g id="Group_476" data-name="Group 476" transform="translate(53.981 84.957)">
        <path id="Path_1419" data-name="Path 1419" d="M176.831,456.581c-.62,2.078-1.323,4.343-2.117,6.747a132.628,132.628,0,0,0-12.458-33.884c-11.21-21.2-28.25-39.467-44.462-47.66-25.814-13.036-36.108-40.843-33.369-90.159C86.017,263,58.048,242.976,57.76,242.78a1.818,1.818,0,0,1,2.089-2.976c1.221.859,29.909,21.359,28.206,52.02-2.651,47.674,7.026,74.423,31.376,86.724,17.106,8.64,34.317,27.032,46.039,49.2A137.79,137.79,0,0,1,176.831,456.581Z" transform="translate(-56.989 -239.476)" fill="#fff"/>
      </g>
    </g>
  </g>
  <g id="Group_513" data-name="Group 513" transform="translate(69.471 81.531)">
    <g id="Group_479" data-name="Group 479" transform="translate(144.858 408.854)">
      <path id="Path_1420" data-name="Path 1420" d="M138.476,421c.1,6.607.216,13.482.359,20.435h63.719c.121-7.611.216-14.906.284-21.75.193-18.546.214-33.808.2-43.294-.007-6.729-.035-10.545-.035-10.545l-64.976-.689s0,5.613.051,14.793C138.12,390.152,138.234,404.761,138.476,421Z" transform="translate(-138.027 -365.155)" fill="#1c1e22"/>
      <path id="Path_1421" data-name="Path 1421" d="M138.056,375.124c.042,10.2.156,24.813.4,41.051a319.355,319.355,0,0,0,64.362-1.316c.193-18.544.214-33.808.2-43.294Z" transform="translate(-138.005 -360.332)" fill="#1c1e22"/>
    </g>
    <g id="Group_480" data-name="Group 480" transform="translate(64.917 408.854)">
      <path id="Path_1422" data-name="Path 1422" d="M92.5,406.347c.072,10.385.2,22.284.4,35.086h63.725c.158-7.5.284-14.9.387-21.976.221-15.185.335-28.858.391-38.684.049-9.672.049-15.618.049-15.618l-65,.689s-.051,6.892-.035,18.488C92.413,390.464,92.441,397.9,92.5,406.347Z" transform="translate(-92.41 -365.155)" fill="#1c1e22"/>
      <path id="Path_1423" data-name="Path 1423" d="M92.412,377.626c0,6.132.028,13.573.084,22.014a398.4,398.4,0,0,0,64.513,13.11c.221-15.185.335-28.858.391-38.684Z" transform="translate(-92.409 -358.449)" fill="#1c1e22"/>
    </g>
    <g id="Group_489" data-name="Group 489" transform="translate(90.048)">
      <path id="Path_1424" data-name="Path 1424" d="M188.377,198.847s10.24-9.861,10.2-19.6-6.654-6.863-10.2-15.937-14.107-14.608-19.9-13.5-18.01-21.469-34.586-17.486-15.134,25.234-22.274,28.332-5.149,15.714-1.384,18.592,5.354,14.439,7.471,14.179S188.377,198.847,188.377,198.847Z" transform="translate(-106.686 -131.852)" fill="#18315b"/>
      <g id="Group_483" data-name="Group 483" transform="translate(0 62.466)">
        <path id="Path_1425" data-name="Path 1425" d="M119.527,171.793s-6.437-8.584-11.224-1.486,1.982,28.06,13.7,22.943Z" transform="translate(-106.751 -167.496)" fill="#f97853"/>
        <g id="Group_481" data-name="Group 481" transform="translate(2.513 7.515)">
          <path id="Path_1426" data-name="Path 1426" d="M118.365,183.546a.993.993,0,0,1-.953-.724c-1.816-6.472-8.522-9.1-8.589-9.122a.99.99,0,0,1,.7-1.852c.314.117,7.7,2.986,9.794,10.439a.992.992,0,0,1-.685,1.221A1.019,1.019,0,0,1,118.365,183.546Z" transform="translate(-108.185 -171.785)" fill="#ea5143"/>
        </g>
        <g id="Group_482" data-name="Group 482" transform="translate(4.935 11.405)">
          <path id="Path_1427" data-name="Path 1427" d="M110.557,178.614a.99.99,0,0,1-.832-1.526,9.049,9.049,0,0,1,3.717-3,.991.991,0,0,1,.81,1.809,7.188,7.188,0,0,0-2.862,2.261A.988.988,0,0,1,110.557,178.614Z" transform="translate(-109.567 -174.004)" fill="#ea5143"/>
        </g>
      </g>
      <g id="Group_487" data-name="Group 487" transform="translate(76.644 62.466)">
        <path id="Path_1428" data-name="Path 1428" d="M152.962,171.793s6.437-8.584,11.224-1.486-1.982,28.06-13.7,22.943Z" transform="translate(-150.486 -167.496)" fill="#f97853"/>
        <g id="Group_484" data-name="Group 484" transform="translate(1.567 7.515)">
          <path id="Path_1429" data-name="Path 1429" d="M152.372,183.546a.993.993,0,0,0,.953-.724c1.816-6.472,8.52-9.1,8.589-9.122a.99.99,0,0,0-.7-1.852c-.314.117-7.7,2.986-9.8,10.439a.993.993,0,0,0,.687,1.221A1.019,1.019,0,0,0,152.372,183.546Z" transform="translate(-151.38 -171.785)" fill="#ea5143"/>
        </g>
        <g id="Group_486" data-name="Group 486" transform="translate(5.047 11.405)">
          <g id="Group_485" data-name="Group 485">
            <path id="Path_1430" data-name="Path 1430" d="M157.646,178.614a.99.99,0,0,0,.832-1.526,9.049,9.049,0,0,0-3.717-3,.991.991,0,0,0-.81,1.809,7.175,7.175,0,0,1,2.86,2.261A.991.991,0,0,0,157.646,178.614Z" transform="translate(-153.366 -174.004)" fill="#ea5143"/>
          </g>
        </g>
      </g>
      <path id="Path_1431" data-name="Path 1431" d="M155.1,192.339v20.847s-6.218,10.618-14.626,11.34-15.863-9.141-15.863-9.141V193.8Z" transform="translate(-93.309 -86.338)" fill="#ffa681"/>
      <path id="Path_1432" data-name="Path 1432" d="M155.1,192.339v9.249c-5.643,6.262-15.662,7.825-30.489,5.636V193.8Z" transform="translate(-93.309 -86.338)" fill="#f97853"/>
      <path id="Path_1433" data-name="Path 1433" d="M186.687,173.029a202.931,202.931,0,0,1-2.7,26.334c-.385,2.021-.822,3.922-1.307,5.625-4.388,15.362-15.362,41.707-46.083,30.733-13.569-4.844-19.859-19.957-22.661-35.328a148.646,148.646,0,0,1-2.05-28.523,21.768,21.768,0,0,1,11.044-18.522c18.134-10.28,37.268-6.447,49.866-1.6A21.7,21.7,0,0,1,186.687,173.029Z" transform="translate(-102.912 -120.569)" fill="#ffa681"/>
      <path id="Path_1434" data-name="Path 1434" d="M113.04,177.977s2.981,17.761,5.8,24.235,10.513,7.7,13.4,13.168c4.12,7.8,10.4,13.985,20.732,10.217,8.6-3.135,8.207-7.53,13.023-10.93,8.251-5.825,12.339-12.236,12.672-17.547s4.428-20.173,4.428-20.173l-4.428-.312a115.251,115.251,0,0,1-6.235,10.983c-3.726-8.18-21.673-2.231-21.673-2.231l-3.428,1.109-3.519-1.109s-18.159-5.7-21.745,2.883a32.341,32.341,0,0,1-4.795-11.142Zm34.289,11.288c20.584-3.533,16.906,8.519,16.773,8.95v.007l-.005.007a20.406,20.406,0,0,1-4.23,3.207c-7.975,4.309-8.838,3.659-11.985,3.8a23.658,23.658,0,0,1-12.1-3.3,34.306,34.306,0,0,1-5.764-4.383S126.785,186.5,147.329,189.265Z" transform="translate(-102.018 -98.154)" fill="#18315b"/>
      <path id="Path_1435" data-name="Path 1435" d="M127.747,173.23c0,2.226-1.148,4.031-2.562,4.031s-2.562-1.8-2.562-4.031,1.146-4.029,2.562-4.029S127.747,171,127.747,173.23Z" transform="translate(-94.807 -103.748)" fill="#18315b"/>
      <path id="Path_1436" data-name="Path 1436" d="M145.125,173.23c0,2.226-1.148,4.031-2.562,4.031S140,175.456,140,173.23s1.148-4.029,2.562-4.029S145.125,171,145.125,173.23Z" transform="translate(-81.731 -103.748)" fill="#18315b"/>
      <path id="Path_1437" data-name="Path 1437" d="M155.262,164.819s-10.585-4.183-18.736-.662l.815,4.532s11.962-1.011,17.991,1.432A7.861,7.861,0,0,0,155.262,164.819Z" transform="translate(-84.346 -108.605)" fill="#18315b"/>
      <path id="Path_1438" data-name="Path 1438" d="M118.71,164.837s10.664-4.215,18.874-.668l-.82,4.567s-12.052-1.02-18.124,1.441A7.919,7.919,0,0,1,118.71,164.837Z" transform="translate(-98.127 -108.602)" fill="#18315b"/>
      <g id="Group_488" data-name="Group 488" transform="translate(42.61 66.995)">
        <path id="Path_1439" data-name="Path 1439" d="M134.747,189.456a10.552,10.552,0,0,0,3.586-.755.991.991,0,0,0-.748-1.835c-.9.363-3.042.932-3.973.375a1.073,1.073,0,0,1-.487-.922c-.358-3.458.589-15.05.6-15.168a.99.99,0,0,0-1.973-.163c-.039.485-.971,11.9-.594,15.536a3.017,3.017,0,0,0,1.441,2.417A4.167,4.167,0,0,0,134.747,189.456Z" transform="translate(-131.065 -170.081)" fill="#f97853"/>
      </g>
      <path id="Path_1440" data-name="Path 1440" d="M125.962,184.973c.75,3.782,3.251,10.743,11.668,10.743,8.44,0,10.807-6.36,11.621-10.743Z" transform="translate(-92.295 -91.88)" fill="#fff"/>
      <path id="Path_1441" data-name="Path 1441" d="M186.687,173.029a202.931,202.931,0,0,1-2.7,26.334l-4.427-.314s1.073-6.84,1.567-11.3,1.337-12.788-2.466-13.827-1.568-10.534-6.847-14.654-17-7.765-24.788-2.97-16.64,2.138-20.225,2.97-8.468,5.774-7.15,10.4-2.634,7.429-3.594,12.211,2.108,17.66,2.108,17.66l-4.229.852a148.646,148.646,0,0,1-2.05-28.523,21.768,21.768,0,0,1,11.044-18.522c18.134-10.28,37.268-6.447,49.866-1.6A21.7,21.7,0,0,1,186.687,173.029Z" transform="translate(-102.912 -120.569)" fill="#18315b"/>
    </g>
    <g id="Group_510" data-name="Group 510" transform="translate(51.429 127.099)">
      <g id="Group_490" data-name="Group 490">
        <path id="Path_1442" data-name="Path 1442" d="M256.583,518.148a352.3,352.3,0,0,1-60.132,9.866c-.91.067-1.81.133-2.72.195q-4.135.278-8.268.459a341.229,341.229,0,0,1-40.927-.692q-4.127-.318-8.251-.738c-.88-.084-1.758-.177-2.641-.279a358.409,358.409,0,0,1-48.878-8.811c-.163-15.019.023-62.494.945-113.982.107-6.188.226-12.434.363-18.688,1.444-67.857,4.232-136.737,9.244-143.637,4.805-6.6,19.289-15,33.135-22.566.825-.45,1.653-.9,2.474-1.346,3.112-1.693,6.156-3.331,9.018-4.886,6.135-3.338,11.426-6.307,14.7-8.6v1.886s7.455,9.868,15.856,9.139c7.658-.659,13.489-9.505,14.479-11.091,3.612,2.545,10.1,6.051,17.623,10.026,2.094,1.109,4.258,2.245,6.467,3.416q1.217.641,2.452,1.3c15.313,8.121,31.823,17.277,36.779,24.084a8.439,8.439,0,0,1,1.06,2.5c2.932,9.929,4.753,42.879,5.86,82.781l.014.433c.049,1.612.088,3.238.128,4.872.009.212.012.429.017.645.363,14,.636,28.732.848,43.538.018,1.174.04,2.35.053,3.524.005.592.014,1.176.018,1.766q.074,4.374.107,8.732.045,3.212.075,6.423C257.03,451.935,256.8,502.415,256.583,518.148Z" transform="translate(-84.714 -204.378)" fill="#ce1b28"/>
      </g>
      <g id="Group_491" data-name="Group 491" transform="translate(147.68 93.339)">
        <path id="Path_1443" data-name="Path 1443" d="M191.95,293.714c-4.823-7.876-10-15.914-14.877-23.024-.012-.019-.026-.037-.035-.054-2.049-2.984-4.041-5.8-5.936-8.379a.986.986,0,0,0-.1-.131c-.592-.81-1.179-1.595-1.752-2.359a1.467,1.467,0,0,1-.208-.415l0-.005a1.33,1.33,0,0,1,2.336-1.179c5.857,7.762,13.348,18.918,20.432,30.242l.014.433C191.871,290.455,191.91,292.081,191.95,293.714Z" transform="translate(-168.984 -257.64)" fill="#1c1e22"/>
      </g>
      <path id="Path_1444" data-name="Path 1444" d="M180.21,225.907s30.221,55.369,48.643,83.429c0,0,10.476-9.624,24.1-22.5,14.773-13.96,34.977-37.29,34.977-37.29L299.112,262.8s-45.4,81.691-65.757,91.957-57.882-62.4-57.882-62.4Z" transform="translate(-16.421 -188.178)" fill="#ce1b28"/>
      <g id="Group_492" data-name="Group 492" transform="translate(11.966 192.648)">
        <path id="Path_1445" data-name="Path 1445" d="M115.407,377.6l-.049,0a1.365,1.365,0,0,1-1.318-1.414c1.584-44.714-21.6-59.2-21.836-59.342a1.367,1.367,0,0,1,1.4-2.346c.258.154,6.386,3.878,12.323,13.419,5.419,8.71,11.7,24.172,10.841,48.368A1.368,1.368,0,0,1,115.407,377.6Z" transform="translate(-91.542 -314.308)" fill="#1c1e22"/>
      </g>
      <g id="Group_493" data-name="Group 493" transform="translate(133.276 138.008)">
        <path id="Path_1446" data-name="Path 1446" d="M162.234,358.94a1.368,1.368,0,0,1-1.362-1.26c-.733-9.416,2.369-16.286,6.295-24.98,1.15-2.545,2.338-5.173,3.554-8.124,7.62-18.483,3.791-39.616,3.75-39.828a1.367,1.367,0,0,1,2.687-.5c.168.9,4.017,22.149-3.91,41.374-1.234,2.991-2.431,5.643-3.589,8.207-3.913,8.664-6.74,14.924-6.06,23.642a1.369,1.369,0,0,1-1.257,1.469C162.306,358.938,162.271,358.94,162.234,358.94Z" transform="translate(-160.765 -283.129)" fill="#1c1e22"/>
      </g>
      <g id="Group_506" data-name="Group 506" transform="translate(55.233)">
        <path id="Path_1447" data-name="Path 1447" d="M116.231,213.044c.584,4.4,1.441,10.112,2.376,16.6.286,1.926.571,3.924.864,5.976.948,6.7,1.931,13.99,2.769,21.361.226,1.979.438,3.964.636,5.943.738,7.3,1.3,14.549,1.495,21.287q.1,3.06.079,5.964a94.775,94.775,0,0,1-.922,13.918q-.6,3.833-1.062,7.5-.389,3.039-.7,5.976c-.8,7.6-1.2,14.682-1.309,21.355q-.05,3.036-.019,5.955c.06,7.576.491,14.635,1.115,21.355.186,2.012.393,3.99.6,5.943.817,7.343,1.814,14.335,2.75,21.247q.407,2.97.8,5.923c.407,3.161.79,6.321,1.123,9.5.352,3.374.577,7.318.683,11.692.053,1.914.079,3.911.086,5.976.028,6.542-.138,13.785-.445,21.362q-.118,2.968-.265,6.009c-.338,7.038-.783,14.276-1.281,21.42q-.221,3.018-.445,6c-.552,7.437-1.162,14.68-1.781,21.42-.186,2.045-.372,4.045-.557,5.983-.71,7.416-1.4,14.011-2,19.268a340.541,340.541,0,0,0,40.929.69c.319-5.6,1.188-14.628,2.045-25.258.159-1.945.312-3.95.464-6,.512-6.759.976-13.985,1.281-21.275.088-2,.159-4,.214-6,.205-7.278.212-14.509-.1-21.289-.093-2.057-.212-4.069-.372-6.029-.159-2-.352-3.957-.585-5.843a119.2,119.2,0,0,1-.876-15.5c.007-2,.06-4,.152-6,.312-6.933,1.069-13.878,1.945-21.254.233-1.959.478-3.952.724-5.983.79-6.561,1.614-13.518,2.264-21.136.173-1.952.326-3.95.471-6,.452-6.533.757-13.552.8-21.2q.018-2.957-.021-6.042c-.072-6.621-.35-13.7-.888-21.334-.047-.676-.093-1.362-.147-2.052-.1-1.334-.186-2.681-.245-4.029a202.663,202.663,0,0,1,.133-21.256q.16-3.007.393-6.016c.55-7.145,1.355-14.223,2.283-21.008q.407-3.028.85-5.983c1.116-7.436,2.317-14.435,3.419-20.69.366-2.059.717-4.038,1.05-5.923.75-4.223,1.4-7.988,1.879-11.175-7.523-3.976-14.011-7.483-17.623-10.026-.988,1.586-6.819,10.431-14.481,11.09-8.4.729-15.856-9.137-15.856-9.137v-1.886C127.657,206.735,122.366,209.7,116.231,213.044Z" transform="translate(-116.231 -204.378)" fill="#fff"/>
        <g id="Group_505" data-name="Group 505" transform="translate(2.376 19.937)">
          <g id="Group_494" data-name="Group 494">
            <path id="Path_1448" data-name="Path 1448" d="M117.587,221.083c.286,1.926.571,3.924.864,5.976,7.536.172,16.387-.957,27.051-3.419a72.037,72.037,0,0,1,29.434-.7c.366-2.059.717-4.038,1.05-5.923a78.012,78.012,0,0,0-31.826.8C133.636,220.247,124.87,221.361,117.587,221.083Z" transform="translate(-117.587 -215.755)" fill="#e3e3e3"/>
          </g>
          <g id="Group_495" data-name="Group 495" transform="translate(3.633 27.3)">
            <path id="Path_1449" data-name="Path 1449" d="M119.66,236.7c.226,1.979.438,3.964.636,5.943a120.431,120.431,0,0,0,23.646-3.412,71.922,71.922,0,0,1,25.165-1.335q.407-3.028.85-5.983A78.44,78.44,0,0,0,142.6,233.4,115.041,115.041,0,0,1,119.66,236.7Z" transform="translate(-119.66 -231.333)" fill="#e3e3e3"/>
          </g>
          <g id="Group_496" data-name="Group 496" transform="translate(5.764 54.611)">
            <path id="Path_1450" data-name="Path 1450" d="M120.876,252.2q.1,3.06.079,5.964a125.35,125.35,0,0,0,22.072-3.352,72.311,72.311,0,0,1,22.489-1.621q.16-3.007.393-6.016a78.743,78.743,0,0,0-24.224,1.814A121.84,121.84,0,0,1,120.876,252.2Z" transform="translate(-120.876 -246.917)" fill="#e3e3e3"/>
          </g>
          <g id="Group_497" data-name="Group 497" transform="translate(3.161 81.923)">
            <path id="Path_1451" data-name="Path 1451" d="M119.391,273.826a117.856,117.856,0,0,0,24.753-3.433,72.177,72.177,0,0,1,22.749-1.593c-.047-.676-.093-1.362-.147-2.052-.1-1.334-.186-2.681-.245-4.029a78.663,78.663,0,0,0-23.7,1.852,115.38,115.38,0,0,1-22.714,3.279Q119.7,270.889,119.391,273.826Z" transform="translate(-119.391 -262.502)" fill="#e3e3e3"/>
          </g>
          <g id="Group_498" data-name="Group 498" transform="translate(1.821 109.233)">
            <path id="Path_1452" data-name="Path 1452" d="M118.638,289.411c7.324.06,15.869-1.074,26.082-3.433a72.32,72.32,0,0,1,23.658-1.526q.018-2.957-.021-6.042a78.736,78.736,0,0,0-24.979,1.745c-9.647,2.226-17.814,3.347-24.72,3.3Q118.607,286.492,118.638,289.411Z" transform="translate(-118.626 -278.086)" fill="#e3e3e3"/>
          </g>
          <g id="Group_499" data-name="Group 499" transform="translate(2.948 136.542)">
            <path id="Path_1453" data-name="Path 1453" d="M119.269,299.04c.186,2.012.393,3.99.6,5.943a118.779,118.779,0,0,0,24.363-3.421,72.2,72.2,0,0,1,22.382-1.64c.173-1.952.326-3.95.471-6a78.59,78.59,0,0,0-24.2,1.812A112.948,112.948,0,0,1,119.269,299.04Z" transform="translate(-119.269 -293.669)" fill="#e3e3e3"/>
          </g>
          <g id="Group_500" data-name="Group 500" transform="translate(6.302 163.851)">
            <path id="Path_1454" data-name="Path 1454" d="M121.183,314.5q.407,2.97.8,5.923a129.215,129.215,0,0,0,20.817-3.281,72.643,72.643,0,0,1,19.394-1.831c.233-1.959.478-3.952.724-5.983a79.117,79.117,0,0,0-21.461,1.991A124.2,124.2,0,0,1,121.183,314.5Z" transform="translate(-121.183 -309.252)" fill="#e3e3e3"/>
          </g>
          <g id="Group_501" data-name="Group 501" transform="translate(8.904 191.163)">
            <path id="Path_1455" data-name="Path 1455" d="M122.668,329.894c.053,1.914.079,3.911.086,5.976a134.223,134.223,0,0,0,18.925-3.147,73.4,73.4,0,0,1,17.3-1.886c.007-2,.06-4,.152-6a79.635,79.635,0,0,0-18.792,2.064A133.113,133.113,0,0,1,122.668,329.894Z" transform="translate(-122.668 -324.838)" fill="#e3e3e3"/>
          </g>
          <g id="Group_502" data-name="Group 502" transform="translate(8.28 218.473)">
            <path id="Path_1456" data-name="Path 1456" d="M122.312,351.516a134.179,134.179,0,0,0,19.635-3.209,72.566,72.566,0,0,1,19.13-1.826c-.093-2.057-.212-4.069-.372-6.028a79.419,79.419,0,0,0-20.1,2.033,131,131,0,0,1-18.028,3.021Q122.458,348.474,122.312,351.516Z" transform="translate(-122.312 -340.421)" fill="#e3e3e3"/>
          </g>
          <g id="Group_503" data-name="Group 503" transform="translate(6.554 245.777)">
            <path id="Path_1457" data-name="Path 1457" d="M121.327,367.215a128.462,128.462,0,0,0,21.361-3.321,72.908,72.908,0,0,1,19.016-1.845c.088-2,.159-4,.214-6a79.274,79.274,0,0,0-20.572,2.026,125.41,125.41,0,0,1-19.573,3.14Q121.551,364.23,121.327,367.215Z" transform="translate(-121.327 -356.001)" fill="#e3e3e3"/>
          </g>
          <g id="Group_504" data-name="Group 504" transform="translate(4.216 273.09)">
            <path id="Path_1458" data-name="Path 1458" d="M119.993,382.89a120.639,120.639,0,0,0,23.7-3.414,72.789,72.789,0,0,1,17.27-1.886c.159-1.945.312-3.95.464-6a79.339,79.339,0,0,0-19.077,2.057,118.81,118.81,0,0,1-21.8,3.254C120.365,378.952,120.179,380.952,119.993,382.89Z" transform="translate(-119.993 -371.587)" fill="#e3e3e3"/>
          </g>
        </g>
      </g>
      <g id="Group_509" data-name="Group 509" transform="translate(43.738 13.44)">
        <g id="Group_507" data-name="Group 507" transform="translate(65.277)">
          <path id="Path_1459" data-name="Path 1459" d="M146.921,522.439c.91-.06,1.812-.126,2.723-.193,5.378-31.62,2.276-78.033,1.122-92.256-1.2-14.766,1.1-33.758,6.3-52.083,4.036-14.237,1.56-47.243-.426-73.763-.557-7.444-1.088-14.475-1.4-20.253-1.016-18.671,5.743-53.226,9.469-70.543-.824-.438-1.64-.869-2.45-1.3-3.733,17.144-10.737,52.483-9.675,71.991.319,5.8.85,12.847,1.407,20.3,1.973,26.315,4.43,59.056.526,72.834-5.285,18.625-7.616,37.955-6.395,53.028C149.271,444.446,152.392,491.15,146.921,522.439Z" transform="translate(-146.921 -212.047)" fill="#1c1e22"/>
        </g>
        <g id="Group_508" data-name="Group 508" transform="translate(0 0.112)">
          <path id="Path_1460" data-name="Path 1460" d="M119.857,393.734c3.161,19.442,2.164,32.072,1.009,46.685-.372,4.728-.757,9.609-1.029,15-.843,16.918-3.7,50.988-4.973,65.722.883.1,1.759.193,2.643.279,1.269-14.735,4.138-48.89,4.986-65.87.266-5.352.652-10.219,1.023-14.919,1.162-14.787,2.171-27.563-1.043-47.323-.683-4.243-1.414-8.545-2.138-12.828-3.579-21.189-7.285-43.1-5.531-53.6.424-2.562.969-5.471,1.553-8.552,2.378-12.669,5.345-28.432,4.409-42.11-.929-13.559-6.486-50.273-8.619-64.11-.824.445-1.646.9-2.476,1.348,2.224,14.47,7.543,49.773,8.445,62.941.911,13.34-2.017,28.923-4.369,41.44-.584,3.093-1.136,6.014-1.567,8.6-1.819,10.937,1.752,32.084,5.538,54.482C118.443,385.2,119.167,389.5,119.857,393.734Z" transform="translate(-109.672 -212.111)" fill="#1c1e22"/>
        </g>
      </g>
    </g>
    <g id="Group_512" data-name="Group 512" transform="translate(0 166.03)">
      <path id="Path_1461" data-name="Path 1461" d="M108.454,238.7S81.4,328.92,74.7,361.07s-7.218,98.988-7.218,98.988-11.826,24.55-12.106,35.477c-.3,11.647,5.816,20.914,5.119,28.537s8.582,3.484,5.962-11.955,4.816-29.422,8.025-28.973-2.655,16.857.195,22.77,6.54-5.573,10.208-12.542c3.81-7.238,3.587-23.027,1.854-34.3s18.7-79.735,18.8-99.573l25.873-87.43S122.861,235.572,108.454,238.7Z" transform="translate(-55.367 -217.623)" fill="#ffa681"/>
      <path id="Path_1462" data-name="Path 1462" d="M130.458,278.842c-.917,5.8-4.124,15.749-8.266,28.272v.007c-.352,1.055-.712,2.131-1.069,3.226a1,1,0,0,0-.053.154c-1.036,3.114-2.119,6.374-3.235,9.747l-.019.06c-4.588,13.93-9.668,29.867-13.93,46.24-1.467,5.6-2.835,11.268-4.05,16.911-1.554,7.206-2.869,14.389-3.833,21.422C92.543,430.213,85.931,462.3,85.931,462.3c-9.7,3.983-24.867-1.276-24.867-1.276s-.393-46.207,1.773-64.161c2.676-22.2,6.081-38,10.3-56.142,11.621-49.926,32.072-98.775,37.681-111.731.445-1.036.8-1.838,1.043-2.4h4.828C126.2,232.628,132.936,263.225,130.458,278.842Z" transform="translate(-51.101 -226.593)" fill="#ce1b28"/>
      <path id="Path_1463" data-name="Path 1463" d="M60.6,355.085l.761,10.634s14.419,4.686,25.228,1.386l2.858-9.484C79.041,358.171,69.426,357.915,60.6,355.085Z" transform="translate(-51.428 -129.908)" fill="#1c1e22"/>
      <g id="Group_511" data-name="Group 511" transform="translate(48.734 79.205)">
        <path id="Path_1464" data-name="Path 1464" d="M105.532,273.107v.007a1.4,1.4,0,0,1-.079.457c-.326.9-.659,1.821-.99,2.769a1,1,0,0,0-.053.154c-1.064,3.014-2.145,6.293-3.235,9.747l-.019.06c-5.65,17.954-11.394,40.543-14.037,54.973.026-2.9.06-5.818.107-8.732-1.467,5.6-2.835,11.268-4.05,16.911a203.646,203.646,0,0,1,4.122-22.2c4.171-18.18,10.573-40.7,15.658-54.587a1.328,1.328,0,0,1,2.576.445Z" transform="translate(-83.176 -271.789)" fill="#4e4e4e"/>
      </g>
    </g>
  </g>
  <g id="Group_550" data-name="Group 550" transform="translate(426.099 79.687)">
    <g id="Group_517" data-name="Group 517" transform="translate(195.676 437.5)">
      <g id="Group_515" data-name="Group 515">
        <g id="Group_514" data-name="Group 514">
          <path id="Path_1465" data-name="Path 1465" d="M373.234,429.924h63.9c-.21-4.434-.421-8.682-.626-12.695-1.115-21.881-2.061-36.781-2.061-36.781l-51.969,2.308-4.309.2-7.644.342s.738,13.322,1.886,32.841C372.667,420.452,372.942,425.077,373.234,429.924Z" transform="translate(-370.527 -380.449)" fill="#1c1e22"/>
        </g>
      </g>
      <path id="Path_1466" data-name="Path 1466" d="M378.171,382.953l-7.644.342s.738,13.322,1.886,32.841a464.211,464.211,0,0,0,64.1,1.094c-1.115-21.881-2.061-36.781-2.061-36.781l-51.969,2.308Z" transform="translate(-370.527 -380.449)" fill="#1c1e22"/>
      <g id="Group_516" data-name="Group 516" transform="translate(7.641 2.311)">
        <path id="Path_1467" data-name="Path 1467" d="M381.849,428.932c-1.169-20.255-2.126-37.557-2.653-47.164l-4.309.195c.524,9.563,1.477,26.785,2.643,46.969Z" transform="translate(-374.887 -381.768)" fill="#4e4e4e"/>
      </g>
    </g>
    <g id="Group_521" data-name="Group 521" transform="translate(115.73 437.5)">
      <g id="Group_519" data-name="Group 519">
        <g id="Group_518" data-name="Group 518">
          <path id="Path_1468" data-name="Path 1468" d="M388.813,429.924c.33-5.487.638-10.692.918-15.486,1.1-18.592,1.791-31.143,1.791-31.143l-8.294-.37-4.3-.194-51.333-2.282s-.563,8.88-1.335,22.994c-.408,7.523-.876,16.536-1.349,26.481Z" transform="translate(-324.908 -380.449)" fill="#1c1e22"/>
        </g>
      </g>
      <path id="Path_1469" data-name="Path 1469" d="M325.678,403.443a564.59,564.59,0,0,0,63.474,10.995c1.1-18.592,1.791-31.143,1.791-31.143l-8.294-.37-4.3-.194-51.333-2.282S326.451,389.329,325.678,403.443Z" transform="translate(-324.329 -380.449)" fill="#1c1e22"/>
      <g id="Group_520" data-name="Group 520" transform="translate(51.361 2.283)">
        <path id="Path_1470" data-name="Path 1470" d="M358.532,428.944c1.165-20.2,2.119-37.441,2.639-47l-4.3-.193c-.526,9.6-1.484,26.918-2.653,47.192Z" transform="translate(-354.216 -381.752)" fill="#4e4e4e"/>
      </g>
    </g>
    <g id="Group_528" data-name="Group 528" transform="translate(109.153 130.038)">
      <g id="Group_523" data-name="Group 523">
        <g id="Group_522" data-name="Group 522">
          <path id="Path_1471" data-name="Path 1471" d="M480.879,522.425a306.9,306.9,0,0,1-39.05,8.1q-6.793.954-13.573,1.581-9.15.846-18.3,1.136a289.663,289.663,0,0,1-30.254-.659,306.525,306.525,0,0,1-58.5-10.159c-.181-18.184.093-83.394,1.458-146.29.067-2.823.128-5.646.2-8.454.009-.6.026-1.193.04-1.789.012-.65.032-1.3.049-1.944.044-2,.1-3.985.145-5.964q.153-6.062.322-12.013.105-3.559.212-7.068c.012-.485.03-.967.044-1.448q.074-2.313.145-4.6v-.005c.017-.471.032-.945.049-1.418.044-1.4.093-2.8.137-4.183.044-1.179.084-2.34.124-3.507,1.511-42.429,3.719-75.9,6.88-80.611,5.363-8,23.627-18.618,38.317-27.261,5.233-3.074,11.484-6.272,15.061-8.645,5.217,4.2,9,7.995,16.736,7.735,8.652-.3,10.786-5.5,14.084-9.961,2.015,1.307,7.129,5.5,9.789,7.062,2.275,1.342,4.739,2.765,7.31,4.244,3.975,2.275,8.2,4.691,12.39,7.155,6.205,3.654,12.322,7.422,17.4,11.021s9.09,7.04,11.083,10.021c2.871,4.311,4.73,32.222,5.927,68.952.049,1.286.084,2.588.133,3.9,0,.158,0,.317,0,.48.049,1.335.089,2.7.121,4.073q.179,6.2.344,12.651c.023.9.044,1.819.058,2.729.018.685.04,1.374.044,2.05.04,1.766.079,3.538.119,5.326.009.357.014.717.023,1.074.1,4.712.189,9.491.273,14.311q.04,2.113.07,4.236C481.382,430.415,481.13,502.886,480.879,522.425Z" transform="translate(-321.155 -205.003)" fill="#ce1b28"/>
        </g>
      </g>
      <path id="Path_1472" data-name="Path 1472" d="M479.52,312.682,458.907,333.59,439.7,314.122,420.5,333.59l-19.275-19.549L381.943,333.59l-19.4-19.677L343.131,333.59l-20.952-21.249c.044-2,.1-3.985.145-5.964q.153-6.062.323-12.013l20.484-20.777L362.54,293.27l19.4-19.682,19.284,19.549L420.5,273.588l19.2,19.47,19.205-19.47,20.269,20.548c.1,4.712.189,9.491.273,14.311Q479.489,310.56,479.52,312.682Z" transform="translate(-320.384 -153.396)" fill="#a5000c"/>
      <g id="Group_524" data-name="Group 524" transform="translate(31.193 218.667)">
        <path id="Path_1473" data-name="Path 1473" d="M431.317,378.168h-.005c-27.6-.121-51.159-12.681-66.062-23.2a151.3,151.3,0,0,1-25.984-23.01,1.328,1.328,0,0,1,2.033-1.71,148.43,148.43,0,0,0,25.542,22.593c14.579,10.276,37.6,22.549,64.482,22.668a1.327,1.327,0,0,1-.005,2.655Z" transform="translate(-338.954 -329.781)" fill="#fff"/>
      </g>
      <g id="Group_525" data-name="Group 525" transform="translate(60.639 224.96)">
        <path id="Path_1474" data-name="Path 1474" d="M401.458,359.142c-23.5-4.619-44.3-22.617-45.247-23.444a1.328,1.328,0,0,1,1.747-2c.245.214,24.726,21.382,49.672,23.658a1.328,1.328,0,1,1-.242,2.644A57.874,57.874,0,0,1,401.458,359.142Z" transform="translate(-355.757 -333.371)" fill="#fff"/>
      </g>
      <g id="Group_526" data-name="Group 526" transform="translate(57.948 14.819)">
        <path id="Path_1475" data-name="Path 1475" d="M355.547,245.124a1.329,1.329,0,0,1-.245-2.634c33.649-6.384,43.792-28.032,43.89-28.25a1.328,1.328,0,1,1,2.42,1.094c-.426.941-10.821,23.127-45.816,29.765A1.333,1.333,0,0,1,355.547,245.124Z" transform="translate(-354.221 -213.459)" fill="#fff"/>
      </g>
      <g id="Group_527" data-name="Group 527" transform="translate(2.519 103.154)">
        <path id="Path_1476" data-name="Path 1476" d="M338.289,265.466v.009a1.287,1.287,0,0,1-.18.424c-.5.808-1.029,1.644-1.554,2.5a1.41,1.41,0,0,0-.079.142c-1.684,2.72-3.437,5.694-5.243,8.834a.1.1,0,0,1-.032.053c-2.821,4.942-5.746,10.3-8.608,15.742q.074-2.313.145-4.6v-.005c.018-.471.032-.945.049-1.418,4.616-8.568,9.218-16.585,13.079-22.663a1.329,1.329,0,0,1,2.424.985Z" transform="translate(-322.592 -263.866)" fill="#fff"/>
      </g>
    </g>
    <g id="Group_531" data-name="Group 531" transform="translate(228.574)">
      <path id="Path_1477" data-name="Path 1477" d="M436.818,293.918s43.032-13.83,55.765-42.068c3.684-8.179-26.658-91.208-26.658-91.208l-14.645.71s4.174,28.807,6.7,45.119c2.082,13.413,5.443,29.438,6.575,34.716.247,1.144.386,1.781.386,1.781-.719.124-1.439.263-2.171.408C442.666,247.459,417,260.555,417,260.555Z" transform="translate(-368.457 -108.344)" fill="#ffa681"/>
      <g id="Group_530" data-name="Group 530" transform="translate(94.315 132.842)">
        <g id="Group_529" data-name="Group 529">
          <path id="Path_1478" data-name="Path 1478" d="M456.1,216.341a1.381,1.381,0,0,0,1.926-.3,1.355,1.355,0,0,0-.3-1.924A108.157,108.157,0,0,0,444.9,206.6c.247,1.144.385,1.781.385,1.781-.719.124-1.439.263-2.171.408A108.691,108.691,0,0,1,456.1,216.341Z" transform="translate(-443.118 -206.603)" fill="#f97853"/>
        </g>
      </g>
      <path id="Path_1479" data-name="Path 1479" d="M391.819,219.719s-13.016,30.545,20.12,47.551c22.934,11.77,75.175-18.958,75.175-18.958l-18.625-39.544S420.691,228.485,391.819,219.719Z" transform="translate(-389.299 -72.132)" fill="#ce1b28"/>
      <path id="Path_1480" data-name="Path 1480" d="M452.268,136.415c-1.3.91-1.03,6.519-.461,11.8-.182.028-.368.058-.557.091-1.54-7.052-4.606-19.046-7.229-16.757-1.717,1.5.582,11.841,2.148,18.028q-.486.15-.973.307c-1.975-7.343-6.232-21.487-9.065-18.737-1.891,1.837,1.738,14.29,3.754,20.644q-.423.163-.825.324c-1.928-6.162-6.046-17.822-8.867-15.083-2.555,2.48,4.765,20.106,4.765,20.106h0l1.921,6.919s-2.282.985-5.841-3.042-7.818-4.735-4.861,1.09c3.342,6.584,8.287,11.305,10.464,15.963s9.027,6.2,9.027,6.2l13.752-.666s2.667-23.243-2.462-34.322h0C456.075,142.7,454.525,134.833,452.268,136.415Z" transform="translate(-362.298 -130.799)" fill="#ffa681"/>
    </g>
    <g id="Group_548" data-name="Group 548" transform="translate(140.743 16.844)">
      <path id="Path_1481" data-name="Path 1481" d="M343.549,182.785c0,23.425,14.421,39.563,37.834,39.563S421.135,205,421.135,181.574a50.2,50.2,0,0,0-3.081-17.829c-.119-.317-.238-.636-.368-.945-.249-.606-.506-1.211-.785-1.8-.407-.9-.864-1.789-1.341-2.644-6.1-10.97-17.034-17.947-31.723-17.947C355.753,140.411,343.549,159.362,343.549,182.785Z" transform="translate(-335.894 -140.411)" fill="#18315b"/>
      <g id="Group_534" data-name="Group 534" transform="translate(0 48.117)">
        <path id="Path_1482" data-name="Path 1482" d="M352.1,172.211s-6.507-8.676-11.345-1.5,2,28.365,13.848,23.192Z" transform="translate(-339.181 -167.868)" fill="#f97853"/>
        <g id="Group_532" data-name="Group 532" transform="translate(2.539 7.596)">
          <path id="Path_1483" data-name="Path 1483" d="M350.921,184.092a1,1,0,0,1-.964-.733c-1.835-6.542-8.613-9.193-8.682-9.22a1,1,0,0,1,.71-1.873c.317.121,7.786,3.02,9.9,10.553a1,1,0,0,1-.692,1.234A.977.977,0,0,1,350.921,184.092Z" transform="translate(-340.63 -172.202)" fill="#ea5143"/>
        </g>
        <g id="Group_533" data-name="Group 533" transform="translate(4.989 11.53)">
          <path id="Path_1484" data-name="Path 1484" d="M343.027,179.107a.993.993,0,0,1-.542-.16,1,1,0,0,1-.3-1.384,9.142,9.142,0,0,1,3.759-3.028,1,1,0,0,1,.817,1.828,7.235,7.235,0,0,0-2.892,2.285A1,1,0,0,1,343.027,179.107Z" transform="translate(-342.027 -174.447)" fill="#ea5143"/>
        </g>
      </g>
      <g id="Group_539" data-name="Group 539" transform="translate(77.473 48.117)">
        <path id="Path_1485" data-name="Path 1485" d="M385.892,172.211s6.507-8.676,11.345-1.5-2,28.365-13.848,23.192Z" transform="translate(-383.389 -167.868)" fill="#f97853"/>
        <g id="Group_535" data-name="Group 535" transform="translate(1.584 7.596)">
          <path id="Path_1486" data-name="Path 1486" d="M385.3,184.092a1,1,0,0,0,.964-.733c1.835-6.542,8.613-9.193,8.682-9.22a1,1,0,0,0-.71-1.873c-.317.121-7.786,3.02-9.9,10.553a1,1,0,0,0,.694,1.234A.977.977,0,0,0,385.3,184.092Z" transform="translate(-384.293 -172.202)" fill="#ea5143"/>
        </g>
        <g id="Group_538" data-name="Group 538" transform="translate(5.101 11.53)">
          <g id="Group_537" data-name="Group 537">
            <g id="Group_536" data-name="Group 536">
              <path id="Path_1487" data-name="Path 1487" d="M390.627,179.107a.983.983,0,0,0,.54-.16,1,1,0,0,0,.3-1.384,9.114,9.114,0,0,0-3.757-3.028,1,1,0,0,0-.817,1.828,7.234,7.234,0,0,1,2.892,2.285A1,1,0,0,0,390.627,179.107Z" transform="translate(-386.3 -174.447)" fill="#ea5143"/>
            </g>
          </g>
        </g>
      </g>
      <path id="Path_1488" data-name="Path 1488" d="M388.057,192.979v21.073s-6.284,10.732-14.784,11.463-16.035-9.239-16.035-9.239V194.462Z" transform="translate(-325.594 -100.856)" fill="#ffa681"/>
      <path id="Path_1489" data-name="Path 1489" d="M388.057,192.979v9.351c-5.7,6.328-15.832,7.909-30.819,5.7V194.462Z" transform="translate(-325.594 -100.856)" fill="#f97853"/>
      <path id="Path_1490" data-name="Path 1490" d="M419.982,173.461a205.194,205.194,0,0,1-2.734,26.62c-.389,2.042-.831,3.964-1.321,5.687-4.434,15.527-15.527,42.155-46.582,31.064-13.715-4.9-20.071-20.173-22.9-35.71a150.2,150.2,0,0,1-2.073-28.833,22,22,0,0,1,11.163-18.72c18.331-10.392,37.673-6.517,50.406-1.621A21.928,21.928,0,0,1,419.982,173.461Z" transform="translate(-335.301 -135.457)" fill="#ffa681"/>
      <path id="Path_1491" data-name="Path 1491" d="M360.309,173.665c0,2.248-1.158,4.073-2.588,4.073s-2.59-1.824-2.59-4.073,1.158-4.074,2.59-4.074S360.309,171.415,360.309,173.665Z" transform="translate(-327.18 -118.454)" fill="#18315b"/>
      <path id="Path_1492" data-name="Path 1492" d="M377.726,173.617c0,2.248-1.16,4.073-2.59,4.073s-2.59-1.824-2.59-4.073,1.16-4.074,2.59-4.074S377.726,171.367,377.726,173.617Z" transform="translate(-314.075 -118.49)" fill="#18315b"/>
      <path id="Path_1493" data-name="Path 1493" d="M385.05,164.566s-8.17-3.228-14.461-.51l.629,3.5s9.234-.78,13.885,1.1A6.069,6.069,0,0,0,385.05,164.566Z" transform="translate(-315.548 -123.438)" fill="#18315b"/>
      <path id="Path_1494" data-name="Path 1494" d="M351.841,164.566s8.17-3.228,14.461-.51l-.629,3.5s-9.234-.78-13.885,1.1A6.069,6.069,0,0,1,351.841,164.566Z" transform="translate(-329.942 -123.438)" fill="#18315b"/>
      <g id="Group_540" data-name="Group 540" transform="translate(43.07 52.695)">
        <path id="Path_1495" data-name="Path 1495" d="M367.481,190.065a10.711,10.711,0,0,0,3.624-.762,1,1,0,0,0-.757-1.854c-.9.366-3.076.943-4.017.379a1.084,1.084,0,0,1-.491-.932c-.363-3.5.594-15.213.6-15.332a1,1,0,1,0-2-.163c-.04.489-.981,12.022-.6,15.7a3.061,3.061,0,0,0,1.456,2.445A4.225,4.225,0,0,0,367.481,190.065Z" transform="translate(-363.757 -170.48)" fill="#f97853"/>
      </g>
      <path id="Path_1496" data-name="Path 1496" d="M358.211,184.557c1.665,5.776,6.395,11.538,12.912,11.617,6.51-.079,11.24-5.841,12.9-11.617Z" transform="translate(-324.861 -107.193)" fill="#fff"/>
      <g id="Group_541" data-name="Group 541" transform="translate(40.534 92.031)">
        <path id="Path_1497" data-name="Path 1497" d="M367.481,196.152a10.465,10.465,0,0,0,4.881-1.369,1,1,0,0,0-1.037-1.712,8.5,8.5,0,0,1-3.843,1.079,8.123,8.123,0,0,1-3.643-1.074,1,1,0,0,0-1.051,1.7A10,10,0,0,0,367.481,196.152Z" transform="translate(-362.311 -192.927)" fill="#f97853"/>
      </g>
      <path id="Path_1498" data-name="Path 1498" d="M418.923,188.094h-4.537c.5-4.555,1.22-12.577-2.522-13.727-11.822-3.631,3.5-11.985-1.838-16.149s-18.618-2.387-27.854-2.685c-9.293-.3-24.229-.17-27.854.671s-1.642,6.864-.31,11.54-4.455,9.831-5.427,14.666a21.258,21.258,0,0,0,0,5.683H344.8c-.449-5.885-.515-11.363-.435-15.805a22,22,0,0,1,11.163-18.72c18.331-10.392,37.673-6.517,50.406-1.621a21.928,21.928,0,0,1,14.046,21.513C419.768,177.947,419.435,183.05,418.923,188.094Z" transform="translate(-335.301 -135.457)" fill="#18315b"/>
      <g id="Group_547" data-name="Group 547" transform="translate(7.006 44.337)">
        <g id="Group_542" data-name="Group 542" transform="translate(11.744)">
          <path id="Path_1499" data-name="Path 1499" d="M361.213,188.377a11.333,11.333,0,1,1,11.333-11.333A11.346,11.346,0,0,1,361.213,188.377Zm0-20.9a9.567,9.567,0,1,0,9.567,9.567A9.578,9.578,0,0,0,361.213,167.477Z" transform="translate(-349.88 -165.711)" fill="#fff"/>
        </g>
        <g id="Group_543" data-name="Group 543" transform="translate(42.722)">
          <path id="Path_1500" data-name="Path 1500" d="M378.89,188.377a11.333,11.333,0,1,1,11.333-11.333A11.346,11.346,0,0,1,378.89,188.377Zm0-20.9a9.567,9.567,0,1,0,9.567,9.567A9.578,9.578,0,0,0,378.89,167.477Z" transform="translate(-367.557 -165.711)" fill="#fff"/>
        </g>
        <g id="Group_544" data-name="Group 544" transform="translate(0 1.875)">
          <path id="Path_1501" data-name="Path 1501" d="M356.838,172.589a.877.877,0,0,1-.622-.256h0c-.051-.051-5.2-5.045-11.954-3.47a.884.884,0,0,1-.4-1.721c7.723-1.8,13.364,3.7,13.6,3.938a.883.883,0,0,1-.624,1.509Z" transform="translate(-343.179 -166.781)" fill="#fff"/>
        </g>
        <g id="Group_545" data-name="Group 545" transform="translate(62.798 1.631)">
          <path id="Path_1502" data-name="Path 1502" d="M379.9,172.693a.883.883,0,0,1-.484-1.623c.338-.221,8.358-5.394,15.182-4.269a.883.883,0,1,1-.287,1.742c-6.142-1.011-13.85,3.957-13.929,4.006A.869.869,0,0,1,379.9,172.693Z" transform="translate(-379.013 -166.642)" fill="#fff"/>
        </g>
        <g id="Group_546" data-name="Group 546" transform="translate(32.338 4.155)">
          <path id="Path_1503" data-name="Path 1503" d="M372.637,172.715c-.019-.028-2.117-2.867-4.877-2.867-2.732,0-4.63,2.834-4.649,2.862l-1.479-.966c.1-.149,2.429-3.663,6.128-3.663,3.671,0,6.2,3.452,6.311,3.6Z" transform="translate(-361.632 -168.082)" fill="#fff"/>
        </g>
      </g>
    </g>
    <g id="Group_549" data-name="Group 549" transform="translate(0 168.17)">
      <path id="Path_1504" data-name="Path 1504" d="M382.507,291.72s-11.94,23.118-26,41.43a107.97,107.97,0,0,1-12.744,14.232c-6.912,6.241-13.652,9.505-19.142,6.735-20.362-10.264-65.754-91.955-65.754-91.955L270.048,248.9s20.2,23.33,34.977,37.292c13.625,12.875,24.1,22.5,24.1,22.5,1.886-2.87,3.9-6.016,5.985-9.346,2.222-3.535,4.527-7.274,6.873-11.123,17.013-27.932,35.89-61.464,35.89-61.464Z" transform="translate(-258.869 -226.762)" fill="#ffa681"/>
      <path id="Path_1505" data-name="Path 1505" d="M323.772,306.759a107.971,107.971,0,0,1-12.744,14.232l-8.652-48.033c2.222-3.535,4.527-7.274,6.873-11.123Z" transform="translate(-226.132 -200.371)" fill="#f97853"/>
      <path id="Path_1506" data-name="Path 1506" d="M344.3,226.762l-40.8,64.175,13.7,56.445L350.956,292.4S355.05,254.786,344.3,226.762Z" transform="translate(-225.291 -226.762)" fill="#ce1b28"/>
    </g>
  </g>
  <g id="Group_573" data-name="Group 573" transform="translate(320.697 86.746)">
    <g id="Group_556" data-name="Group 556" transform="translate(5.375 118.372)">
      <path id="Path_1507" data-name="Path 1507" d="M369.519,466.321c-2.914-16.151-5.787-34.366-8.4-52.055q-.86-5.867-1.686-11.615c-2.094-14.645-3.964-28.495-5.466-39.986-.571-4.365-1.087-8.4-1.553-11.992-1.456-11.47-2.312-18.6-2.312-18.6l-64.436,2.436-64.634-2.436s-1.665,14.1-4.332,34.539c-.487,3.72-1.008,7.644-1.554,11.741-1.435,10.727-3.076,22.573-4.84,34.7l-.079.533c-.554,3.78-1.113,7.586-1.693,11.393a1.131,1.131,0,0,1-.026.151v.007c-1.383,9.2-2.832,18.385-4.306,27.223-.606,3.649-1.22,7.231-1.838,10.721q-.287,1.63-.575,3.232Z" transform="translate(-201.791 -104.777)" fill="#4e4e4e"/>
      <g id="Group_551" data-name="Group 551" transform="translate(0.575 240.581)">
        <path id="Path_1508" data-name="Path 1508" d="M226.462,345.728a6.072,6.072,0,1,1-6.072-6.072A6.073,6.073,0,0,1,226.462,345.728Z" transform="translate(-192.941 -339.656)" fill="#fff"/>
        <path id="Path_1509" data-name="Path 1509" d="M235.062,359.155a6.073,6.073,0,1,1-6.072-6.074A6.073,6.073,0,0,1,235.062,359.155Z" transform="translate(-186.47 -329.554)" fill="#fff"/>
        <path id="Path_1510" data-name="Path 1510" d="M251.981,352.224a6.072,6.072,0,1,1-6.072-6.074A6.072,6.072,0,0,1,251.981,352.224Z" transform="translate(-173.739 -334.77)" fill="#fff"/>
        <path id="Path_1511" data-name="Path 1511" d="M225.278,373.412a6.073,6.073,0,1,1-6.074-6.072A6.075,6.075,0,0,1,225.278,373.412Z" transform="translate(-193.832 -318.825)" fill="#fff"/>
        <path id="Path_1512" data-name="Path 1512" d="M246.42,371.93a6.073,6.073,0,1,1-6.074-6.072A6.073,6.073,0,0,1,246.42,371.93Z" transform="translate(-177.924 -319.94)" fill="#fff"/>
        <path id="Path_1513" data-name="Path 1513" d="M214.917,357.482a6.066,6.066,0,0,1-5.5,6.046c.547-4.1,1.067-8.021,1.554-11.741A6.068,6.068,0,0,1,214.917,357.482Z" transform="translate(-196.631 -330.528)" fill="#fff"/>
        <path id="Path_1514" data-name="Path 1514" d="M280.873,392.29a6.073,6.073,0,1,1-6.074-6.072A6.073,6.073,0,0,1,280.873,392.29Z" transform="translate(-151.999 -304.62)" fill="#fff"/>
        <path id="Path_1515" data-name="Path 1515" d="M279.236,373.412a6.073,6.073,0,1,1-6.074-6.072A6.075,6.075,0,0,1,279.236,373.412Z" transform="translate(-153.231 -318.825)" fill="#fff"/>
        <path id="Path_1516" data-name="Path 1516" d="M296.34,383.984a6.074,6.074,0,1,1-2.383-11.661,4.842,4.842,0,0,1,.7.046Q295.484,378.107,296.34,383.984Z" transform="translate(-137.585 -315.076)" fill="#fff"/>
        <path id="Path_1517" data-name="Path 1517" d="M282.7,406.126a6.073,6.073,0,1,1-6.072-6.074A6.073,6.073,0,0,1,282.7,406.126Z" transform="translate(-150.624 -294.211)" fill="#fff"/>
        <path id="Path_1518" data-name="Path 1518" d="M297.524,400.594a6.073,6.073,0,1,1-6.072-6.074A6.071,6.071,0,0,1,297.524,400.594Z" transform="translate(-139.47 -298.373)" fill="#fff"/>
        <path id="Path_1519" data-name="Path 1519" d="M265.763,409.818a6.054,6.054,0,0,0-10.01,0Z" transform="translate(-161.762 -288.855)" fill="#fff"/>
        <path id="Path_1520" data-name="Path 1520" d="M223,395.305a6.073,6.073,0,1,1-6.072-6.074A6.072,6.072,0,0,1,223,395.305Z" transform="translate(-195.549 -302.353)" fill="#fff"/>
        <path id="Path_1521" data-name="Path 1521" d="M210.907,384.127a6.061,6.061,0,0,1-5.282,6.011,1.132,1.132,0,0,0,.026-.151c.58-3.806,1.139-7.613,1.693-11.393A6.089,6.089,0,0,1,210.907,384.127Z" transform="translate(-199.481 -310.357)" fill="#fff"/>
        <path id="Path_1522" data-name="Path 1522" d="M206.446,405.619a6.088,6.088,0,0,1-4.327,5.822c.619-3.491,1.232-7.073,1.838-10.722A6.075,6.075,0,0,1,206.446,405.619Z" transform="translate(-202.119 -293.709)" fill="#fff"/>
        <path id="Path_1523" data-name="Path 1523" d="M231.6,407.59a6.073,6.073,0,1,1-6.074-6.074A6.073,6.073,0,0,1,231.6,407.59Z" transform="translate(-189.077 -293.109)" fill="#fff"/>
        <path id="Path_1524" data-name="Path 1524" d="M249.885,404.876a6.073,6.073,0,1,1-6.072-6.074A6.072,6.072,0,0,1,249.885,404.876Z" transform="translate(-175.317 -295.151)" fill="#fff"/>
        <path id="Path_1525" data-name="Path 1525" d="M236.838,387.836a6.073,6.073,0,1,1-6.074-6.072A6.075,6.075,0,0,1,236.838,387.836Z" transform="translate(-185.134 -307.972)" fill="#fff"/>
        <path id="Path_1526" data-name="Path 1526" d="M255.447,384.371a6.073,6.073,0,1,1-6.074-6.072A6.073,6.073,0,0,1,255.447,384.371Z" transform="translate(-171.131 -310.579)" fill="#fff"/>
        <path id="Path_1527" data-name="Path 1527" d="M263.824,366.086a6.073,6.073,0,1,1-6.074-6.074A6.073,6.073,0,0,1,263.824,366.086Z" transform="translate(-164.828 -324.339)" fill="#fff"/>
        <path id="Path_1528" data-name="Path 1528" d="M291.794,354.681a5.719,5.719,0,0,1-1.3.145,6.071,6.071,0,0,1-.249-12.138C290.708,346.285,291.223,350.316,291.794,354.681Z" transform="translate(-140.191 -337.374)" fill="#fff"/>
        <path id="Path_1529" data-name="Path 1529" d="M275.77,352.224a6.073,6.073,0,1,1-6.072-6.074A6.071,6.071,0,0,1,275.77,352.224Z" transform="translate(-155.839 -334.77)" fill="#fff"/>
        <path id="Path_1530" data-name="Path 1530" d="M288.463,364.573a6.073,6.073,0,1,1-6.074-6.072A6.074,6.074,0,0,1,288.463,364.573Z" transform="translate(-146.288 -325.476)" fill="#fff"/>
        <path id="Path_1531" data-name="Path 1531" d="M267.289,395.305a6.073,6.073,0,1,1-6.072-6.074A6.072,6.072,0,0,1,267.289,395.305Z" transform="translate(-162.221 -302.353)" fill="#fff"/>
      </g>
      <path id="Path_1532" data-name="Path 1532" d="M347.909,431.268c-33.992,22.191-96.406,20.453-135.628,0,3.747-23.337,8.68-46.7,7.62-77.764q-.179-5.107-.435-10.141-.229-4.377-.508-8.68c-3.384-51.673-12.2-93.923-7.869-99.384a41.131,41.131,0,0,1,8.936-7.611c1.528-1.041,3.161-2.094,4.886-3.149,4.069-2.481,8.594-4.984,13.138-7.422,10.779-5.755,21.723-11.095,27.209-14.743,5.44,2.371,9.773,3.668,14.442,3.642a3.975,3.975,0,0,0,.4-.014,3.623,3.623,0,0,0,.389.014c4.669.026,9-1.271,14.447-3.642,5.091,3.384,14.672,8.107,24.452,13.256a211.777,211.777,0,0,1,20.15,11.7,40.407,40.407,0,0,1,8.606,7.4c2.147,2.706,1.244,14.572-.592,32.154-1.817,17.3-4.537,40.143-6.183,65.253-.456,6.973-.831,14.118-1.081,21.369C339.236,384.566,344.163,407.93,347.909,431.268Z" transform="translate(-195.677 -202.374)" fill="#1c1e22"/>
      <g id="Group_552" data-name="Group 552" transform="translate(39.845 155.097)">
        <path id="Path_1533" data-name="Path 1533" d="M316.127,338.865h-.005c-27.373-.121-50.739-12.576-65.517-23a149.879,149.879,0,0,1-25.768-22.82,1.317,1.317,0,0,1,2.015-1.695,147.319,147.319,0,0,0,25.332,22.405c14.458,10.191,37.289,22.363,63.949,22.481a1.317,1.317,0,0,1-.005,2.634Z" transform="translate(-224.528 -290.877)" fill="#fff"/>
      </g>
      <g id="Group_553" data-name="Group 553" transform="translate(67.998 161.592)">
        <path id="Path_1534" data-name="Path 1534" d="M285.917,320.141c-23.308-4.581-43.938-22.431-44.875-23.252a1.317,1.317,0,1,1,1.735-1.982c.242.21,24.52,21.2,49.26,23.462a1.317,1.317,0,1,1-.238,2.623A57.816,57.816,0,0,1,285.917,320.141Z" transform="translate(-240.592 -294.583)" fill="#fff"/>
      </g>
      <g id="Group_554" data-name="Group 554" transform="translate(77.5 35.165)">
        <path id="Path_1535" data-name="Path 1535" d="M247.331,253.844a1.317,1.317,0,0,1-.245-2.611c33.374-6.333,43.431-27.8,43.529-28.018a1.317,1.317,0,0,1,2.4,1.085c-.422.934-10.734,22.936-45.438,29.52A1.341,1.341,0,0,1,247.331,253.844Z" transform="translate(-246.015 -222.44)" fill="#fff"/>
      </g>
      <path id="Path_1536" data-name="Path 1536" d="M307.307,215.631c-6.624,15.108-22.908,30.754-44.085,27.1-20.507-3.545-30.233-14.391-37.252-25.61,10.781-5.757,21.725-11.091,27.209-14.742,5.44,2.368,9.773,3.664,14.438,3.643a3.507,3.507,0,0,0,.4-.016,3.284,3.284,0,0,0,.394.016c4.665.021,9-1.276,14.446-3.643C287.949,205.757,297.533,210.478,307.307,215.631Z" transform="translate(-183.597 -202.373)" fill="#ffa681"/>
      <g id="Group_555" data-name="Group 555" transform="translate(59.006 1.107)">
        <path id="Path_1537" data-name="Path 1537" d="M282.462,203.006a1.041,1.041,0,0,0-1.053,1.041c-.007.848-.354,20.821-18.282,22.368-16.629,1.446-23.513-14.474-25.64-21.077a.93.93,0,0,0-.89-.648h-.2a.936.936,0,0,0-.89,1.23c2.269,6.814,9.518,23.267,26.459,22.663q.66-.024,1.337-.081c19.843-1.712,20.2-24.217,20.2-24.443A1.047,1.047,0,0,0,282.462,203.006Z" transform="translate(-235.461 -203.006)" fill="#fff"/>
      </g>
    </g>
    <g id="Group_566" data-name="Group 566" transform="translate(36.672)">
      <path id="Path_1538" data-name="Path 1538" d="M306.106,142.43s16.023,24.818,14.267,50.669,2.362,55.693-20.77,54.382-64.391,9.274-77.5-10.86S306.106,142.43,306.106,142.43Z" transform="translate(-218.724 -129.107)" fill="#4e4e4e"/>
      <path id="Path_1539" data-name="Path 1539" d="M291.909,168.653s4.159,37.471-13.622,47.788-30.647-1.2-30.647-1.2S285.118,163.01,291.909,168.653Z" transform="translate(-198.589 -109.696)" fill="#1c1e22"/>
      <g id="Group_565" data-name="Group 565" transform="translate(6.794 18.634)">
        <g id="Group_559" data-name="Group 559" transform="translate(0 35.889)">
          <path id="Path_1540" data-name="Path 1540" d="M236.2,170.2s-6.384-8.513-11.132-1.474,1.965,27.829,13.587,22.754Z" transform="translate(-223.527 -165.939)" fill="#f97853"/>
          <g id="Group_557" data-name="Group 557" transform="translate(2.491 7.452)">
            <path id="Path_1541" data-name="Path 1541" d="M235.045,181.856a.985.985,0,0,1-.946-.717c-1.8-6.419-8.45-9.022-8.517-9.046a.983.983,0,0,1,.7-1.838c.31.117,7.639,2.962,9.714,10.354a.984.984,0,0,1-.946,1.248Z" transform="translate(-224.948 -170.192)" fill="#ea5143"/>
          </g>
          <g id="Group_558" data-name="Group 558" transform="translate(4.894 11.311)">
            <path id="Path_1542" data-name="Path 1542" d="M227.3,176.966a.982.982,0,0,1-.824-1.514,8.974,8.974,0,0,1,3.685-2.972.983.983,0,0,1,.8,1.795,7.108,7.108,0,0,0-2.837,2.241A.977.977,0,0,1,227.3,176.966Z" transform="translate(-226.319 -172.394)" fill="#ea5143"/>
          </g>
        </g>
        <g id="Group_562" data-name="Group 562" transform="translate(76.01 35.889)">
          <path id="Path_1543" data-name="Path 1543" d="M269.357,170.2s6.384-8.513,11.132-1.474-1.965,27.829-13.589,22.754Z" transform="translate(-266.9 -165.939)" fill="#f97853"/>
          <g id="Group_560" data-name="Group 560" transform="translate(1.556 7.452)">
            <path id="Path_1544" data-name="Path 1544" d="M268.769,181.856a.982.982,0,0,0,.946-.717c1.8-6.419,8.45-9.022,8.519-9.046a.983.983,0,0,0-.7-1.838c-.312.117-7.639,2.962-9.714,10.354a.982.982,0,0,0,.68,1.211A1,1,0,0,0,268.769,181.856Z" transform="translate(-267.788 -170.192)" fill="#ea5143"/>
          </g>
          <g id="Group_561" data-name="Group 561" transform="translate(5.006 11.311)">
            <path id="Path_1545" data-name="Path 1545" d="M274,176.966a.982.982,0,0,0,.825-1.514,8.986,8.986,0,0,0-3.687-2.972.983.983,0,0,0-.8,1.795,7.107,7.107,0,0,1,2.837,2.241A.98.98,0,0,0,274,176.966Z" transform="translate(-269.757 -172.394)" fill="#ea5143"/>
          </g>
        </g>
        <path id="Path_1546" data-name="Path 1546" d="M271.48,190.577v20.676s-6.165,10.529-14.5,11.247-15.734-9.067-15.734-9.067v-21.4Z" transform="translate(-210.196 -111.512)" fill="#ffa681"/>
        <path id="Path_1547" data-name="Path 1547" d="M271.48,190.577v9.174c-5.6,6.209-15.529,8.408-30.233,6.239l0-13.958Z" transform="translate(-210.196 -111.512)" fill="#f97853"/>
        <path id="Path_1548" data-name="Path 1548" d="M302.8,171.426a201.45,201.45,0,0,1-2.681,26.119c-.384,2-.815,3.889-1.3,5.578-4.351,15.234-15.234,41.362-45.7,30.479-13.457-4.8-19.694-19.792-22.473-35.037a147.3,147.3,0,0,1-2.033-28.286,21.582,21.582,0,0,1,10.951-18.367c17.984-10.2,36.961-6.395,49.454-1.591A21.514,21.514,0,0,1,302.8,171.426Z" transform="translate(-219.72 -145.46)" fill="#ffa681"/>
        <path id="Path_1549" data-name="Path 1549" d="M244.055,170.779c0,2.206-1.139,4-2.541,4s-2.541-1.789-2.541-4,1.137-4,2.541-4S244.055,168.572,244.055,170.779Z" transform="translate(-211.904 -129.416)" fill="#1c1e22"/>
        <path id="Path_1550" data-name="Path 1550" d="M261.956,170.779c0,2.206-1.137,4-2.539,4s-2.541-1.789-2.541-4,1.137-4,2.541-4S261.956,168.572,261.956,170.779Z" transform="translate(-198.433 -129.416)" fill="#1c1e22"/>
        <path id="Path_1551" data-name="Path 1551" d="M239.308,162.973a42.413,42.413,0,0,1,10.869-1.628,1.888,1.888,0,0,1,1.88,2.213l-.005.028a1.88,1.88,0,0,1-1.943,1.544c-3.058-.142-11.09.289-14.882,1.824a2.843,2.843,0,0,1,.866-2.021A6.544,6.544,0,0,1,239.308,162.973Z" transform="translate(-214.731 -133.508)" fill="#1c1e22"/>
        <path id="Path_1552" data-name="Path 1552" d="M266.463,163.02a42.412,42.412,0,0,0-10.869-1.628,1.887,1.887,0,0,0-1.88,2.212l.005.03a1.882,1.882,0,0,0,1.944,1.544c3.058-.142,11.09.287,14.882,1.824a2.843,2.843,0,0,0-.866-2.021A6.539,6.539,0,0,0,266.463,163.02Z" transform="translate(-200.835 -133.472)" fill="#1c1e22"/>
        <g id="Group_563" data-name="Group 563" transform="translate(42.256 40.38)">
          <path id="Path_1553" data-name="Path 1553" d="M251.293,187.718a4.16,4.16,0,0,1-2.136-.508,3,3,0,0,1-1.428-2.4c-.373-3.61.55-14.926.591-15.406a.982.982,0,1,1,1.957.161c-.01.116-.948,11.614-.594,15.043a1.069,1.069,0,0,0,.484.915c.922.552,3.053-.012,3.94-.373a.982.982,0,0,1,.743,1.819A10.5,10.5,0,0,1,251.293,187.718Z" transform="translate(-247.639 -168.502)" fill="#f97853"/>
        </g>
        <path id="Path_1554" data-name="Path 1554" d="M242.606,183.006c.743,3.736,3.21,10.611,11.526,10.611,8.335,0,10.671-6.283,11.475-10.611Z" transform="translate(-209.17 -117.209)" fill="#fff"/>
        <g id="Group_564" data-name="Group 564" transform="translate(39.769 78.974)">
          <path id="Path_1555" data-name="Path 1555" d="M251.293,193.69a9.793,9.793,0,0,1-4.607-1.348.982.982,0,0,1,1.03-1.672h0a7.9,7.9,0,0,0,3.577,1.055,8.358,8.358,0,0,0,3.771-1.058.982.982,0,0,1,1.016,1.681A10.275,10.275,0,0,1,251.293,193.69Z" transform="translate(-246.22 -190.525)" fill="#f97853"/>
        </g>
      </g>
      <path id="Path_1556" data-name="Path 1556" d="M307.809,177.827a3.243,3.243,0,0,1-2.366,1.81,62.684,62.684,0,0,1-.354,7.269c-1.213,14.2-4.795,16.69-5.6,13.18-.533-2.332-.5-15.7-.244-20.06a46.286,46.286,0,0,1-5.2-.652l-3.293-13.783L289.594,179.2c-4.94,1.719-16.464-1.034-16.464-1.034l-3.864-13.585-2.39,13.072c-7.409,3.608-16.668,1.206-16.668,1.206l-2.127-14.1-4.912,14.1s-15.8,5.669-15.975,0c-.105-3.3,2.311-12.591,4.353-19.789A29.771,29.771,0,0,1,245.9,140.85c19.6-10.522,40.333-4.926,47.446-.678C308.428,149.174,307.809,177.827,307.809,177.827Z" transform="translate(-213.977 -134.827)" fill="#4e4e4e"/>
      <path id="Path_1557" data-name="Path 1557" d="M241.57,143.029s-13.012,15.474-17.292,43.112-10.206,48.059,6.447,57.184c18.024,9.877,16.464-10.38,16.2-15.886s-15.593-20.555-5.361-62.939C244.873,150.817,241.57,143.029,241.57,143.029Z" transform="translate(-219.65 -128.656)" fill="#4e4e4e"/>
      <path id="Path_1558" data-name="Path 1558" d="M230.423,175.619v.033c.005.205.019,1.3.1,3.023.04,1.067.105,2.364.2,3.84.613,9.311,2.424,25.391,7.744,30.969,2.1,2.206,6.151,3.312,10.92,3.761v-7.316a28.953,28.953,0,0,1-11.978-11.123,68.425,68.425,0,0,1-6.626-20.427Z" transform="translate(-211.544 -104.134)" fill="#1c1e22"/>
      <path id="Path_1559" data-name="Path 1559" d="M273.047,181.768a2.3,2.3,0,1,1-2.3-2.3A2.3,2.3,0,0,1,273.047,181.768Z" transform="translate(-182.935 -101.238)" fill="#fff"/>
    </g>
    <g id="Group_572" data-name="Group 572" transform="translate(0 150.723)">
      <path id="Path_1560" data-name="Path 1560" d="M350.143,324c-6.517,18.66-35.708,17.3-68.956,7.1-.049-.014-.1-.032-.145-.044-.105-.032-.2-.067-.31-.1l-4.574-1.458c-.631-.207-1.265-.417-1.9-.633q-5.376-1.8-10.816-3.871a371.014,371.014,0,0,1-35.138-15.564l.079-.2,3.4-8.831,1.162-3.005s61.636,6.715,92.628.237c.526-.109,1.038-.219,1.542-.336a19.318,19.318,0,0,0-.356-2.045c-16.42-55.9,1.539-66.623,7.548-74.42C334.308,220.834,362.449,288.77,350.143,324Z" transform="translate(-176.464 -220.834)" fill="#1c1e22"/>
      <g id="Group_567" data-name="Group 567" transform="translate(149.11 74.42)">
        <path id="Path_1561" data-name="Path 1561" d="M298.336,274.742a1.343,1.343,0,0,1-.575.131,1.319,1.319,0,0,1-1.183-.736c-2.347-4.81-10.32-7.671-12.768-8.456.526-.109,1.038-.219,1.542-.336-.123-.687-.242-1.37-.356-2.045,3.116,1.029,11.249,4.166,13.944,9.684A1.316,1.316,0,0,1,298.336,274.742Z" transform="translate(-283.81 -263.3)" fill="#fff"/>
      </g>
      <g id="Group_568" data-name="Group 568" transform="translate(52.404 75.922)">
        <path id="Path_1562" data-name="Path 1562" d="M253.529,271.754c-12.579,0-22.794-.722-23.684-.787a1.314,1.314,0,0,1,.191-2.622c.464.033,46.7,3.3,64.929-4.092a1.314,1.314,0,0,1,.988,2.436C285.862,270.783,268.108,271.754,253.529,271.754Z" transform="translate(-228.627 -264.157)" fill="#fff"/>
      </g>
      <g id="Group_569" data-name="Group 569" transform="translate(99.694 83.519)">
        <path id="Path_1563" data-name="Path 1563" d="M255.612,293.64h.005c10.548-2.909,20.136-5.743,25.674-7.518,7.688-2.466,14.048-10.236,16.939-16.843a1.315,1.315,0,0,1,2.408,1.057c-3.126,7.145-10.075,15.572-18.546,18.292-4.018,1.288-10.155,3.128-17.248,5.152a15.96,15.96,0,0,1-9.232-.14Z" transform="translate(-255.612 -268.492)" fill="#fff"/>
      </g>
      <g id="Group_571" data-name="Group 571" transform="translate(2.463 0.575)">
        <path id="Path_1564" data-name="Path 1564" d="M325.794,320.216C230.538,352.3,201.233,331.3,201.233,331.3c-6.414-57.992,17.22-110.14,17.22-110.14,6.982,11.512,14.875,31.6,14.875,31.6l2.085,44.453-.158,1.235-.074.582-.394,3.04-.009.061.613.131c28.814,6.079,81.51-.713,81.51-.713Z" transform="translate(-200.129 -221.162)" fill="#1c1e22"/>
        <g id="Group_570" data-name="Group 570" transform="translate(18.518 77.874)">
          <path id="Path_1565" data-name="Path 1565" d="M227.441,268.832a93.878,93.878,0,0,0-14.382,14.985,1.316,1.316,0,0,1-2.1-1.589l.005-.005A96.359,96.359,0,0,1,227.23,265.6l-.394,3.041-.009.061Z" transform="translate(-210.696 -265.599)" fill="#1c1e22"/>
        </g>
        <path id="Path_1566" data-name="Path 1566" d="M266.763,276.465s10.546-23.956,26.58-21.823l4.835,17.32c-8.776,3.727-10.061,18.778-22.521,23.162Z" transform="translate(-149.99 -196.071)" fill="#1c1e22"/>
      </g>
      <path id="Path_1567" data-name="Path 1567" d="M255.208,273.758s-6.659-15.632-24.187-20.171-28.693,3.722-29.871,6.838,6.61.138,6.61.138a15.13,15.13,0,0,0-7.981,6.2c-2.909,4.765,7.082-.377,7.082-.377s-7.164,3.14-8.075,6.049,8.538-2.007,10.315-1.912c0,0-8.438,3.352-8.38,6.356s9.691-1.895,16.887-1.507,18.227,3.368,18.227,3.368a120.854,120.854,0,0,0,16.606,2.185Z" transform="translate(-198.724 -197.191)" fill="#ffa681"/>
    </g>
  </g>
  <g id="Group_619" data-name="Group 619" transform="translate(40.922 0)">
    <g id="Group_612" data-name="Group 612" transform="translate(0 16.323)">
      <g id="Group_592" data-name="Group 592" transform="translate(493.746 11.137)">
        <g id="Group_591" data-name="Group 591">
          <g id="Group_574" data-name="Group 574" transform="translate(0 19.99)">
            <path id="Path_1568" data-name="Path 1568" d="M332.587,135.934a11.765,11.765,0,1,1,11.766-11.764A11.779,11.779,0,0,1,332.587,135.934Zm0-19.84a8.074,8.074,0,1,0,8.075,8.075A8.083,8.083,0,0,0,332.587,116.095Z" transform="translate(-320.821 -112.404)" fill="#ce1b28"/>
          </g>
          <g id="Group_575" data-name="Group 575" transform="translate(102.65)">
            <path id="Path_1569" data-name="Path 1569" d="M391.162,124.529a11.766,11.766,0,1,1,11.766-11.766A11.78,11.78,0,0,1,391.162,124.529Zm0-19.84a8.074,8.074,0,1,0,8.075,8.074A8.082,8.082,0,0,0,391.162,104.689Z" transform="translate(-379.396 -100.997)" fill="#ce1b28"/>
          </g>
          <g id="Group_582" data-name="Group 582" transform="translate(115.683 49.934)">
            <g id="Group_578" data-name="Group 578" transform="translate(11.424)">
              <g id="Group_576" data-name="Group 576">
                <path id="Path_1570" data-name="Path 1570" d="M395.2,141.322a1.847,1.847,0,0,1-1.845-1.847v-8.138a1.845,1.845,0,0,1,3.691,0v8.138A1.846,1.846,0,0,1,395.2,141.322Z" transform="translate(-393.352 -129.491)" fill="#ce1b28"/>
              </g>
              <g id="Group_577" data-name="Group 577" transform="translate(0 14.244)">
                <path id="Path_1571" data-name="Path 1571" d="M395.2,149.448a1.846,1.846,0,0,1-1.845-1.845v-8.138a1.845,1.845,0,0,1,3.691,0V147.6A1.844,1.844,0,0,1,395.2,149.448Z" transform="translate(-393.352 -137.619)" fill="#ce1b28"/>
              </g>
            </g>
            <g id="Group_581" data-name="Group 581" transform="translate(0 11.191)">
              <g id="Group_579" data-name="Group 579" transform="translate(15.537)">
                <path id="Path_1572" data-name="Path 1572" d="M404.856,139.568h-7.311a1.845,1.845,0,1,1,0-3.691h7.311a1.845,1.845,0,0,1,0,3.691Z" transform="translate(-395.699 -135.877)" fill="#ce1b28"/>
              </g>
              <g id="Group_580" data-name="Group 580">
                <path id="Path_1573" data-name="Path 1573" d="M395.99,139.568h-7.311a1.845,1.845,0,0,1,0-3.691h7.311a1.845,1.845,0,0,1,0,3.691Z" transform="translate(-386.833 -135.877)" fill="#ce1b28"/>
              </g>
            </g>
          </g>
          <g id="Group_590" data-name="Group 590" transform="translate(53.538 0.629)">
            <g id="Group_589" data-name="Group 589">
              <g id="Group_585" data-name="Group 585" transform="translate(11.424)">
                <g id="Group_583" data-name="Group 583">
                  <path id="Path_1574" data-name="Path 1574" d="M359.735,113.187a1.847,1.847,0,0,1-1.845-1.845V103.2a1.845,1.845,0,1,1,3.691,0v8.14A1.845,1.845,0,0,1,359.735,113.187Z" transform="translate(-357.89 -101.356)" fill="#ce1b28"/>
                </g>
                <g id="Group_584" data-name="Group 584" transform="translate(0 14.244)">
                  <path id="Path_1575" data-name="Path 1575" d="M359.735,121.313a1.845,1.845,0,0,1-1.845-1.845v-8.138a1.845,1.845,0,1,1,3.691,0v8.138A1.844,1.844,0,0,1,359.735,121.313Z" transform="translate(-357.89 -109.484)" fill="#ce1b28"/>
                </g>
              </g>
              <g id="Group_588" data-name="Group 588" transform="translate(0 11.191)">
                <g id="Group_586" data-name="Group 586" transform="translate(15.537)">
                  <path id="Path_1576" data-name="Path 1576" d="M369.394,111.434h-7.311a1.846,1.846,0,0,1,0-3.692h7.311a1.846,1.846,0,0,1,0,3.692Z" transform="translate(-360.237 -107.742)" fill="#ce1b28"/>
                </g>
                <g id="Group_587" data-name="Group 587">
                  <path id="Path_1577" data-name="Path 1577" d="M360.528,111.434h-7.311a1.846,1.846,0,0,1,0-3.692h7.311a1.846,1.846,0,1,1,0,3.692Z" transform="translate(-351.371 -107.742)" fill="#ce1b28"/>
                </g>
              </g>
            </g>
          </g>
        </g>
      </g>
      <g id="Group_611" data-name="Group 611">
        <g id="Group_610" data-name="Group 610">
          <g id="Group_593" data-name="Group 593" transform="translate(84.98 1.272)">
            <path id="Path_1578" data-name="Path 1578" d="M87.568,107.134A11.766,11.766,0,1,1,99.334,118.9,11.78,11.78,0,0,1,87.568,107.134Zm3.692,0a8.074,8.074,0,1,0,8.074-8.075A8.083,8.083,0,0,0,91.26,107.134Z" transform="translate(-87.568 -95.368)" fill="#ce1b28"/>
          </g>
          <g id="Group_594" data-name="Group 594" transform="translate(37.732 46.118)">
            <path id="Path_1579" data-name="Path 1579" d="M60.607,132.724A11.765,11.765,0,1,1,72.371,144.49,11.778,11.778,0,0,1,60.607,132.724Zm3.691,0a8.074,8.074,0,1,0,8.074-8.075A8.083,8.083,0,0,0,64.3,132.724Z" transform="translate(-60.607 -120.958)" fill="#ce1b28"/>
          </g>
          <g id="Group_601" data-name="Group 601" transform="translate(0 62.564)">
            <g id="Group_597" data-name="Group 597" transform="translate(11.424)">
              <g id="Group_595" data-name="Group 595">
                <path id="Path_1580" data-name="Path 1580" d="M47.44,142.172a1.844,1.844,0,0,0,1.845-1.845v-8.138a1.845,1.845,0,1,0-3.691,0v8.138A1.845,1.845,0,0,0,47.44,142.172Z" transform="translate(-45.595 -130.343)" fill="#ce1b28"/>
              </g>
              <g id="Group_596" data-name="Group 596" transform="translate(0 14.242)">
                <path id="Path_1581" data-name="Path 1581" d="M47.44,150.3a1.846,1.846,0,0,0,1.845-1.845v-8.14a1.845,1.845,0,1,0-3.691,0v8.14A1.847,1.847,0,0,0,47.44,150.3Z" transform="translate(-45.595 -138.47)" fill="#ce1b28"/>
              </g>
            </g>
            <g id="Group_600" data-name="Group 600" transform="translate(0 11.191)">
              <g id="Group_598" data-name="Group 598">
                <path id="Path_1582" data-name="Path 1582" d="M40.921,140.42h7.311a1.845,1.845,0,1,0,0-3.691H40.921a1.845,1.845,0,0,0,0,3.691Z" transform="translate(-39.076 -136.729)" fill="#ce1b28"/>
              </g>
              <g id="Group_599" data-name="Group 599" transform="translate(15.537)">
                <path id="Path_1583" data-name="Path 1583" d="M49.787,140.42H57.1a1.845,1.845,0,1,0,0-3.691H49.787a1.845,1.845,0,0,0,0,3.691Z" transform="translate(-47.942 -136.729)" fill="#ce1b28"/>
              </g>
            </g>
          </g>
          <g id="Group_609" data-name="Group 609" transform="translate(42.527)">
            <g id="Group_608" data-name="Group 608">
              <g id="Group_604" data-name="Group 604" transform="translate(11.424)">
                <g id="Group_602" data-name="Group 602">
                  <path id="Path_1584" data-name="Path 1584" d="M71.707,106.473a1.845,1.845,0,0,0,1.845-1.845V96.489a1.845,1.845,0,1,0-3.691,0v8.138A1.844,1.844,0,0,0,71.707,106.473Z" transform="translate(-69.862 -94.642)" fill="#ce1b28"/>
                </g>
                <g id="Group_603" data-name="Group 603" transform="translate(0 14.244)">
                  <path id="Path_1585" data-name="Path 1585" d="M71.707,114.6a1.845,1.845,0,0,0,1.845-1.845v-8.138a1.845,1.845,0,0,0-3.691,0v8.138A1.844,1.844,0,0,0,71.707,114.6Z" transform="translate(-69.862 -102.77)" fill="#ce1b28"/>
                </g>
              </g>
              <g id="Group_607" data-name="Group 607" transform="translate(0 11.191)">
                <g id="Group_605" data-name="Group 605">
                  <path id="Path_1586" data-name="Path 1586" d="M65.188,104.72H72.5a1.846,1.846,0,0,0,0-3.692H65.188a1.846,1.846,0,0,0,0,3.692Z" transform="translate(-63.343 -101.028)" fill="#ce1b28"/>
                </g>
                <g id="Group_606" data-name="Group 606" transform="translate(15.537)">
                  <path id="Path_1587" data-name="Path 1587" d="M74.054,104.72h7.311a1.846,1.846,0,0,0,0-3.692H74.054a1.846,1.846,0,0,0,0,3.692Z" transform="translate(-72.209 -101.028)" fill="#ce1b28"/>
                </g>
              </g>
            </g>
          </g>
        </g>
      </g>
    </g>
    <g id="Group_618" data-name="Group 618" transform="translate(343.085)">
      <g id="Group_615" data-name="Group 615" transform="translate(59.453 26.166)">
        <g id="Group_613" data-name="Group 613">
          <path id="Path_1588" data-name="Path 1588" d="M273.883,104.3a1.3,1.3,0,0,1-.647-.1c-2.24-.945-3.552-1.386-3.566-1.39a1.311,1.311,0,0,1,.831-2.487c.056.019,1.409.473,3.755,1.462a1.311,1.311,0,0,1-.373,2.511Z" transform="translate(-268.776 -100.259)" fill="#bbe2f2"/>
        </g>
        <g id="Group_614" data-name="Group 614" transform="translate(10.708 4.723)">
          <path id="Path_1589" data-name="Path 1589" d="M309.835,143.432c.892,2.378,1.726,4.83,2.481,7.288a1.31,1.31,0,0,0,1.39.918,1.162,1.162,0,0,0,.249-.051,1.311,1.311,0,0,0,.867-1.637c-.771-2.51-1.623-5.012-2.532-7.437a1.311,1.311,0,0,0-2.455.918Z" transform="translate(-248.651 -73.828)" fill="#bbe2f2"/>
          <path id="Path_1590" data-name="Path 1590" d="M312.4,151.764c.6,2.462,1.144,5,1.614,7.534a1.309,1.309,0,0,0,1.425,1.064,1,1,0,0,0,.1-.014,1.308,1.308,0,0,0,1.05-1.526c-.478-2.587-1.032-5.168-1.644-7.678a1.31,1.31,0,1,0-2.546.62Z" transform="translate(-246.689 -67.446)" fill="#bbe2f2"/>
          <path id="Path_1591" data-name="Path 1591" d="M316.181,178.114a1.31,1.31,0,0,0,1.171-1.283c.04-2.629.023-5.268-.056-7.842a1.311,1.311,0,0,0-2.62.079c.077,2.536.1,5.133.056,7.723a1.31,1.31,0,0,0,1.29,1.33A1.2,1.2,0,0,0,316.181,178.114Z" transform="translate(-244.946 -54.222)" fill="#bbe2f2"/>
          <path id="Path_1592" data-name="Path 1592" d="M315.118,158.878a1.311,1.311,0,0,0-1.13,1.469c.154,1.185.294,2.382.419,3.558.144,1.358.272,2.743.379,4.117a1.31,1.31,0,0,0,1.409,1.2l.035,0a1.311,1.311,0,0,0,1.169-1.405c-.11-1.4-.24-2.806-.386-4.187-.124-1.2-.268-2.415-.426-3.621a1.309,1.309,0,0,0-1.435-1.134Z" transform="translate(-245.471 -60.882)" fill="#bbe2f2"/>
          <path id="Path_1593" data-name="Path 1593" d="M309.64,142.407a1.31,1.31,0,0,0,2.392-1.071c-1.067-2.387-2.224-4.767-3.437-7.071a1.31,1.31,0,1,0-2.319,1.22C307.464,137.742,308.594,140.069,309.64,142.407Z" transform="translate(-251.379 -79.921)" fill="#bbe2f2"/>
          <path id="Path_1594" data-name="Path 1594" d="M275.6,105.432c2.25,1.15,4.521,2.4,6.75,3.72a1.311,1.311,0,0,0,1.335-2.255c-2.275-1.348-4.595-2.625-6.892-3.8a1.311,1.311,0,0,0-1.193,2.334Z" transform="translate(-274.886 -102.954)" fill="#bbe2f2"/>
          <path id="Path_1595" data-name="Path 1595" d="M289.374,114.369a1.311,1.311,0,0,0,1.591-2.084c-2.077-1.584-4.225-3.126-6.388-4.586a1.31,1.31,0,1,0-1.465,2.173C285.233,111.3,287.339,112.817,289.374,114.369Z" transform="translate(-269.131 -99.552)" fill="#bbe2f2"/>
          <path id="Path_1596" data-name="Path 1596" d="M301.295,127.108a1.31,1.31,0,0,0,1.162.484,1.3,1.3,0,0,0,.68-.28,1.311,1.311,0,0,0,.2-1.842c-1.628-2.033-3.345-4.046-5.1-5.981a1.311,1.311,0,1,0-1.94,1.763C298.018,123.146,299.7,125.118,301.295,127.108Z" transform="translate(-259.032 -90.836)" fill="#bbe2f2"/>
          <path id="Path_1597" data-name="Path 1597" d="M295.731,120.374a1.311,1.311,0,0,0,1.828-1.879c-1.865-1.814-3.815-3.6-5.8-5.312a1.31,1.31,0,0,0-1.71,1.986C291.993,116.846,293.9,118.6,295.731,120.374Z" transform="translate(-263.82 -95.496)" fill="#bbe2f2"/>
          <path id="Path_1598" data-name="Path 1598" d="M305.958,134.491a1.31,1.31,0,1,0,2.236-1.365c-1.36-2.229-2.809-4.441-4.308-6.579a1.311,1.311,0,0,0-2.147,1.505C303.207,130.144,304.626,132.31,305.958,134.491Z" transform="translate(-254.858 -85.621)" fill="#bbe2f2"/>
        </g>
      </g>
      <g id="Group_617" data-name="Group 617">
        <g id="Group_616" data-name="Group 616">
          <path id="Path_1599" data-name="Path 1599" d="M299.385,106.568l5.735-21.24-70.269.6Z" transform="translate(-234.85 -85.328)" fill="#1c1e22"/>
          <path id="Path_1600" data-name="Path 1600" d="M234.85,85.671l61.124,25.766.161.07,2.63,4.356.62-9.553Z" transform="translate(-234.85 -85.069)"/>
          <path id="Path_1601" data-name="Path 1601" d="M273.768,104.77l-5.7-.9,3.068-3.458Z" transform="translate(-209.853 -73.976)" fill="#006bde"/>
          <path id="Path_1602" data-name="Path 1602" d="M288.445,108.263l7.693,3.242L280.3,129.354,234.85,85.672Z" transform="translate(-234.85 -85.068)" fill="#1c1e22"/>
        </g>
      </g>
    </g>
  </g>
  <g id="Group_620" data-name="Group 620" transform="translate(51.025 566.662)">
    <path id="Path_2039" data-name="Path 2039" d="M7.634,0H713a7.632,7.632,0,0,1,7.632,7.632V20.4A7.632,7.632,0,0,1,713,28.029H7.632A7.632,7.632,0,0,1,0,20.4V7.634A7.634,7.634,0,0,1,7.634,0Z" transform="translate(0.001)" fill="#1c1e22"/>
    <path id="Path_1603" data-name="Path 1603" d="M765.476,422.054v.641H44.841v-.641a13.373,13.373,0,0,1,13.375-13.373H752.1A13.375,13.375,0,0,1,765.476,422.054Z" transform="translate(-44.841 -408.68)" fill="#4e4e4e"/>
  </g>
  <g id="Group_621" data-name="Group 621" transform="translate(290.124 391.682)">
    <rect id="Rectangle_42" data-name="Rectangle 42" width="236.839" height="132.904" rx="5.381" fill="#1c1e22"/>
    <rect id="Rectangle_43" data-name="Rectangle 43" width="36.68" height="41.814" transform="translate(100.08 132.753)" fill="#1c1e22"/>
    <circle id="Ellipse_203" data-name="Ellipse 203" cx="18.204" cy="18.204" r="18.204" transform="translate(99.806 49.877)" fill="#4e4e4e"/>
    <path id="Rectangle_44" data-name="Rectangle 44" d="M6.646,0h81.32a6.645,6.645,0,0,1,6.645,6.645v8.189a0,0,0,0,1,0,0H0a0,0,0,0,1,0,0V6.646A6.646,6.646,0,0,1,6.646,0Z" transform="translate(70.528 159.733)" fill="#1c1e22"/>
  </g>
</svg>
