<svg id="animate_2_" data-name="animate (2)" xmlns="http://www.w3.org/2000/svg" width="74.678" height="74.678" viewBox="0 0 74.678 74.678">
  <circle id="Ellipse_265" data-name="Ellipse 265" cx="37.339" cy="37.339" r="37.339" transform="translate(0 0)" fill="#572517"/>
  <path id="Path_3084" data-name="Path 3084" d="M131.7,164.006a8.413,8.413,0,0,0-3.391-.668,8.176,8.176,0,0,0-5.469,1.99l-1.512-1.512h-5.206v4.659L103.4,155.758H97.156L85.767,185l22.653,22.653c.72.041,1.445.065,2.176.065a37.352,37.352,0,0,0,36.417-29.067L133.566,165.2h0A6.285,6.285,0,0,0,131.7,164.006Z" transform="translate(-73.258 -133.04)" fill="#33160e"/>
  <g id="Group_1659" data-name="Group 1659" transform="translate(12.509 22.718)">
    <path id="Path_3085" data-name="Path 3085" d="M115.108,185h-6.423l-2.553-6.642H94.444L92.03,185H85.767l11.389-29.241H103.4ZM104.237,173.43l-4.029-10.851L96.259,173.43Z" transform="translate(-85.767 -155.758)" fill="#e25f3f"/>
    <path id="Path_3086" data-name="Path 3086" d="M313.161,229.387h-5.605V218.576a16.706,16.706,0,0,0-.359-4.438,3.114,3.114,0,0,0-1.167-1.566,3.337,3.337,0,0,0-1.945-.558,4.5,4.5,0,0,0-2.613.8,4.02,4.02,0,0,0-1.586,2.114,18.263,18.263,0,0,0-.429,4.867v9.594h-5.6V208.2h5.206v3.112a8.681,8.681,0,0,1,10.372-2.922,5.688,5.688,0,0,1,2.324,1.705,6.181,6.181,0,0,1,1.1,2.354,17.518,17.518,0,0,1,.309,3.77v13.165Z" transform="translate(-263.503 -200.145)" fill="#e25f3f"/>
  </g>
</svg>
