<svg xmlns="http://www.w3.org/2000/svg" width="74.677" height="74.678" viewBox="0 0 74.677 74.678">
  <g id="experience_2_" data-name="experience (2)" transform="translate(-0.297 -0.296)">
    <circle id="Ellipse_264" data-name="Ellipse 264" cx="37.185" cy="37.185" r="37.185" transform="translate(0.297 0.297)" fill="#592b49"/>
    <path id="Path_3081" data-name="Path 3081" d="M150.454,164.229l-12.882-12.882h-5.781v10.862a8.181,8.181,0,0,0-6.337-3.045,9.843,9.843,0,0,0-1.839.169l-7.986-7.986h-7.057l-4.543,7.43-7.43-7.43H89.482l9.34,14.422L88.515,181.507l22.611,22.61q.953.048,1.918.048a37.492,37.492,0,0,0,37.492-37.492C150.535,165.852,150.506,165.037,150.454,164.229Z" transform="translate(-75.562 -129.192)" fill="#291221"/>
    <g id="Group_1652" data-name="Group 1652" transform="translate(12.953 22.155)">
      <path id="Path_3082" data-name="Path 3082" d="M88.515,181.507l10.307-15.738-9.34-14.422H96.6l6.048,9.69,5.925-9.69h7.057l-9.381,14.648,10.307,15.512h-7.344l-6.686-10.43-6.707,10.43Z" transform="translate(-88.515 -151.347)" fill="#da2286"/>
      <path id="Path_3083" data-name="Path 3083" d="M299.15,181.507h-5.37V178.3a8.673,8.673,0,0,1-3.158,2.787,8.1,8.1,0,0,1-3.672.916,8.321,8.321,0,0,1-6.45-3.035q-2.685-3.034-2.685-8.466,0-5.555,2.613-8.445a8.518,8.518,0,0,1,6.6-2.891,8.183,8.183,0,0,1,6.337,3.045V151.347h5.781v30.16Zm-15.429-11.4a10,10,0,0,0,.967,5.061,4.367,4.367,0,0,0,3.909,2.263,4.255,4.255,0,0,0,3.394-1.7,7.834,7.834,0,0,0,1.4-5.071q0-3.765-1.358-5.421a4.3,4.3,0,0,0-3.477-1.656,4.343,4.343,0,0,0-3.446,1.636A7.39,7.39,0,0,0,283.72,170.109Z" transform="translate(-250.092 -151.347)" fill="#da2286"/>
    </g>
  </g>
</svg>
