<svg xmlns="http://www.w3.org/2000/svg" width="75" height="75" viewBox="0 0 75 75">
  <g id="illustrator_1_" data-name="illustrator (1)" transform="translate(0 0.267)">
    <circle id="Ellipse_267" data-name="Ellipse 267" cx="37.5" cy="37.5" r="37.5" transform="translate(0 -0.267)" fill="#5e3c16"/>
    <path id="Path_3090" data-name="Path 3090" d="M163.525,147.42l-15.062-15.062H141.6v6.353l3.519,3.518H141.6v5.757l-15.628-15.628h-7.648l-13.952,35.82,19.276,19.277q1.372.1,2.771.1a37.222,37.222,0,0,0,37.222-37.222Q163.638,148.863,163.525,147.42Z" transform="translate(-89.194 -113.146)" fill="#472e11"/>
    <g id="Group_1661" data-name="Group 1661" transform="translate(15.175 19.212)">
      <path id="Path_3091" data-name="Path 3091" d="M140.312,168.178h-7.868l-3.128-8.137H115l-2.957,8.137h-7.672l13.952-35.82h7.648ZM127,154.007l-4.936-13.292-4.838,13.292Z" transform="translate(-104.369 -132.358)" fill="#df871e"/>
      <path id="Path_3092" data-name="Path 3092" d="M360.41,138.711v-6.353h6.866v6.353Zm0,29.468V142.229h6.866v25.949H360.41Z" transform="translate(-323.182 -132.358)" fill="#df871e"/>
    </g>
  </g>
</svg>
