<svg xmlns="http://www.w3.org/2000/svg" width="74.678" height="74.678" viewBox="0 0 74.678 74.678">
  <g id="photoshop_1_" data-name="photoshop (1)" transform="translate(0.162 0.162)">
    <circle id="Ellipse_268" data-name="Ellipse 268" cx="37.339" cy="37.339" r="37.339" transform="translate(-0.162 -0.162)" fill="#2a4997"/>
    <path id="Path_3093" data-name="Path 3093" d="M129.812,151.616a12.048,12.048,0,0,0-6.824,1.625l-7.165-7.07h0a8.217,8.217,0,0,0-3.966-2.379c-2.2-.59-7.462-.481-18.074-.481V175.35l21.4,21.4c.709.04,1.423.063,2.142.063a37.17,37.17,0,0,0,35.9-27.537l-15.154-15.154h0C136.149,152.188,133.283,151.616,129.812,151.616Z" transform="translate(-80.15 -122.483)" fill="#263364"/>
    <g id="Group_1662" data-name="Group 1662" transform="translate(13.633 20.82)">
      <path id="Path_3094" data-name="Path 3094" d="M93.783,175.352V143.313c10.612,0,15.872-.109,18.074.481a8.4,8.4,0,0,1,4.611,3.136c2.4,3.12,2.293,8.372.787,11.2a9.112,9.112,0,0,1-6.076,4.677c-2.843.563-7.051.459-10.927.459v12.086Zm6.469-26.619v9.092c6.555,0,9.111.212,10.676-2.076a4.551,4.551,0,0,0-.295-5.376C108.993,148.559,107.2,148.733,100.252,148.733Z" transform="translate(-93.783 -143.305)" fill="#76c8da"/>
      <path id="Path_3095" data-name="Path 3095" d="M268.844,217.691l6.163-.94c.574,2.613,2.336,3.65,4.961,3.65,2,0,4.393-.5,4.393-2.513,0-1.352-1.131-1.65-2.492-1.967q-7.431-1.639-9.419-2.994A5.979,5.979,0,0,1,269.7,207.7a6.437,6.437,0,0,1,2.382-5.07q2.382-2.054,7.387-2.054c5.071,0,8.854,1.218,10.272,6.141l-5.792,1.071a3.583,3.583,0,0,0-1.41-2.076c-1.582-1.1-5.213-.833-6.436-.044a1.387,1.387,0,0,0-.087,2.36c1.778,1.311,9.376,1.789,12.588,4.458a5.678,5.678,0,0,1,1.923,4.568,7.011,7.011,0,0,1-2.666,5.486q-2.667,2.295-7.889,2.295a12.944,12.944,0,0,1-7.507-1.923A8.859,8.859,0,0,1,268.844,217.691Z" transform="translate(-243.436 -192.266)" fill="#76c8da"/>
    </g>
  </g>
</svg>
