<svg xmlns="http://www.w3.org/2000/svg" width="44.625" height="44.625" viewBox="0 0 44.625 44.625">
  <g id="ui" transform="translate(0)">
    <path id="Path_2939" data-name="Path 2939" d="M116.781,154.391A2.391,2.391,0,1,1,114.391,152,2.391,2.391,0,0,1,116.781,154.391Zm0,0" transform="translate(-100.844 -136.859)" fill="#ce1b28"/>
    <path id="Path_2940" data-name="Path 2940" d="M126.344,2.391a.8.8,0,0,1,.8-.8h7.025A2.391,2.391,0,0,0,131.922,0H114.391A2.391,2.391,0,0,0,112,2.391v.8h14.344Zm0,0" transform="translate(-100.844)" fill="#ce1b28"/>
    <path id="Path_2941" data-name="Path 2941" d="M103.969,221.418v-1.434a3.984,3.984,0,1,0-7.969,0v1.434a8.726,8.726,0,0,0,3.187.922v-1.56h1.594v1.557A8.742,8.742,0,0,0,103.969,221.418Zm0,0" transform="translate(-86.438 -194.484)" fill="#ce1b28"/>
    <path id="Path_2942" data-name="Path 2942" d="M48.406,112.335H49.96v1.594H48.408a8.771,8.771,0,0,0,2.88,5.738c.085.079.177.144.265.217v-.376a5.578,5.578,0,0,1,3.011-4.947,3.984,3.984,0,1,1,5.134,0,5.578,5.578,0,0,1,3.011,4.947v.38c.088-.074.179-.14.265-.217a8.77,8.77,0,0,0,2.88-5.742H64.3v-1.594h1.553a8.774,8.774,0,0,0-7.928-7.928v1.553H56.335v-1.553a8.774,8.774,0,0,0-7.928,7.928Zm0,0" transform="translate(-43.585 -94.006)" fill="#ce1b28"/>
    <path id="Path_2943" data-name="Path 2943" d="M272,39.969h15.937V32H272Zm6.375-6.375h7.969v1.594h-7.969Zm-4.781,0h3.187v1.594h-3.187Zm0,3.188h12.75v1.594h-12.75Zm0,0" transform="translate(-244.907 -28.812)" fill="#ce1b28"/>
    <path id="Path_2944" data-name="Path 2944" d="M118.375,401.594a.8.8,0,0,1-.8.8H112a2.391,2.391,0,0,0,2.391,2.391h17.531a2.391,2.391,0,0,0,2.391-2.391V400H118.375Zm3.984,0h1.594v1.594h-1.594Zm0,0" transform="translate(-100.844 -360.156)" fill="#ce1b28"/>
    <path id="Path_2945" data-name="Path 2945" d="M15.937,360H0v4.781H15.937ZM5.578,363.188H1.594v-1.594H5.578Zm8.766,0H7.172v-1.594h7.172Zm0,0" transform="translate(0 -324.141)" fill="#ce1b28"/>
    <path id="Path_2946" data-name="Path 2946" d="M320.719,160a.936.936,0,0,0-.62.234l-12.419,10.959,2.785,2.784,10.958-12.419a.938.938,0,0,0-.7-1.558Zm0,0" transform="translate(-277.032 -144.062)" fill="#ce1b28"/>
    <path id="Path_2947" data-name="Path 2947" d="M251.871,284.1v1.406a3.677,3.677,0,0,1-.457,1.782h3.644a3.989,3.989,0,0,0,3.971-3.666l-3.493-3.493A3.99,3.99,0,0,0,251.871,284.1Zm0,0" transform="translate(-226.371 -252.225)" fill="#ce1b28"/>
    <path id="Path_2948" data-name="Path 2948" d="M129.531,79.875h-5.578a.8.8,0,0,1-.356-1.514A2.072,2.072,0,0,0,124.75,76.5V75.094a5.578,5.578,0,0,1,5.259-5.562l4.3-3.8V55.969h-7.172a.8.8,0,0,1-.8-.8V48H112v4.273a10.357,10.357,0,0,1,1.594-.249V49.594h1.594v2.431a10.361,10.361,0,0,1,9.522,9.522h2.431v1.594h-2.433a10.313,10.313,0,0,1-9.52,9.526v2.427h-1.594V72.667A10.26,10.26,0,0,1,112,72.415v5.07h5.578a.8.8,0,0,1,.8.8v3.188h15.937V77.155a5.578,5.578,0,0,1-4.781,2.72Zm0,0" transform="translate(-100.844 -43.219)" fill="#ce1b28"/>
    <path id="Path_2949" data-name="Path 2949" d="M6.375,32H0v4.781H6.375ZM4.781,35.188H1.594V33.594H4.781Zm0,0" transform="translate(0 -28.812)" fill="#ce1b28"/>
  </g>
</svg>
