<svg xmlns="http://www.w3.org/2000/svg" width="25" height="18.818" viewBox="0 0 25 18.818">
  <g id="list" transform="translate(0 -7.434)">
    <path id="Path_3873" data-name="Path 3873" d="M31.885,48.388H15.167a1.247,1.247,0,1,1,0-2.495H31.884a1.247,1.247,0,0,1,0,2.495Z" transform="translate(-8.132 -22.467)" fill="#ce1b28"/>
    <path id="Path_3874" data-name="Path 3874" d="M31.885,29.557H15.167a1.247,1.247,0,0,1,0-2.495H31.884a1.247,1.247,0,0,1,0,2.495Z" transform="translate(-8.132 -11.466)" fill="#ce1b28"/>
    <path id="Path_3875" data-name="Path 3875" d="M31.885,10.726H15.167a1.247,1.247,0,0,1,0-2.495H31.884a1.247,1.247,0,0,1,0,2.495Z" transform="translate(-8.132 -0.466)" fill="#ce1b28"/>
    <circle id="Ellipse_284" data-name="Ellipse 284" cx="1.675" cy="1.675" r="1.675" transform="translate(0 7.434)" fill="#ce1b28"/>
    <circle id="Ellipse_285" data-name="Ellipse 285" cx="1.675" cy="1.675" r="1.675" transform="translate(0 15.168)" fill="#ce1b28"/>
    <circle id="Ellipse_286" data-name="Ellipse 286" cx="1.675" cy="1.675" r="1.675" transform="translate(0 22.901)" fill="#ce1b28"/>
  </g>
</svg>
