<svg id="vector_1_" data-name="vector (1)" xmlns="http://www.w3.org/2000/svg" width="22.803" height="22.803" viewBox="0 0 22.803 22.803">
  <g id="Group_3066" data-name="Group 3066">
    <g id="Group_3065" data-name="Group 3065">
      <path id="Path_3876" data-name="Path 3876" d="M22.135,0H19.418a.668.668,0,0,0-.668.668v.668H13.282a1.992,1.992,0,0,0-3.762,0H4.053V.668A.668.668,0,0,0,3.385,0H.668A.668.668,0,0,0,0,.668V3.34a.668.668,0,0,0,.668.668H3.385a.668.668,0,0,0,.668-.668V2.663H6.8A8.715,8.715,0,0,0,2.767,9.5a2,2,0,1,0,1.333.03A7.331,7.331,0,0,1,9.628,2.917a1.987,1.987,0,0,0,3.548,0A7.331,7.331,0,0,1,18.7,9.535a2.01,2.01,0,1,0,1.333-.03,8.7,8.7,0,0,0-4.03-6.833H18.75V3.34a.668.668,0,0,0,.668.668h2.717A.668.668,0,0,0,22.8,3.34V.668A.668.668,0,0,0,22.135,0Z" fill="#ce1b28"/>
    </g>
  </g>
  <g id="Group_3068" data-name="Group 3068" transform="translate(6.827 20.086)">
    <g id="Group_3067" data-name="Group 3067">
      <path id="Path_3877" data-name="Path 3877" d="M162.413,452.888A2.717,2.717,0,0,0,159.872,451h-4.008a2.717,2.717,0,0,0-2.541,1.888.658.658,0,0,0,.65.829h7.79A.658.658,0,0,0,162.413,452.888Z" transform="translate(-153.294 -451)" fill="#ce1b28"/>
    </g>
  </g>
  <g id="Group_3070" data-name="Group 3070" transform="translate(5.389 5.855)">
    <g id="Group_3069" data-name="Group 3069">
      <path id="Path_3878" data-name="Path 3878" d="M132.913,139.307l-5.232-7.848V137.8a2,2,0,1,1-1.336,0v-6.338l-5.232,7.848a.668.668,0,0,0,.084.843,8.436,8.436,0,0,1,2.313,4.5,3.978,3.978,0,0,1,1.5-.3h4.008a3.979,3.979,0,0,1,1.5.3,8.435,8.435,0,0,1,2.313-4.5A.668.668,0,0,0,132.913,139.307Z" transform="translate(-121 -131.459)" fill="#ce1b28"/>
    </g>
  </g>
  <g id="Group_3072" data-name="Group 3072" transform="translate(10.733 13.406)">
    <g id="Group_3071" data-name="Group 3071">
      <path id="Path_3879" data-name="Path 3879" d="M241.668,301a.668.668,0,1,0,.668.668A.668.668,0,0,0,241.668,301Z" transform="translate(-241 -301)" fill="#ce1b28"/>
    </g>
  </g>
</svg>
