<svg id="Capa_1" enable-background="new 0 0 512 512" height="512" viewBox="0 0 512 512" width="512" xmlns="http://www.w3.org/2000/svg"><g><g><g><path d="m60.34 37.854v57.47h-60.34v-42.47c0-8.284 6.716-15 15-15z"/><path d="m90.34 37.854h60.33v57.47h-60.33z"/><path d="m180.67 37.854h60.33v57.47h-60.33z"/><path d="m271 37.854h60.34v57.47h-60.34z"/><path d="m361.34 37.854h60.33v57.47h-60.33z"/><path d="m512 52.854v42.47h-60.33v-57.47h45.33c8.284 0 15 6.715 15 15z"/></g><g><path d="m60.34 474.146v-57.47h-60.34v42.47c0 8.284 6.716 15 15 15z"/><path d="m90.34 416.676h60.33v57.47h-60.33z"/><path d="m180.67 416.676h60.33v57.47h-60.33z"/><path d="m271 416.676h60.34v57.47h-60.34z"/><path d="m361.34 416.676h60.33v57.47h-60.33z"/><path d="m512 459.146v-42.47h-60.33v57.47h45.33c8.284 0 15-6.715 15-15z"/></g></g><circle cx="385.17" cy="221.8" r="36.83"/><path d="m0 125.32v261.36h512v-261.36zm223.19 149.98c-21.03 32.24-24.52 67.75-24.55 68.11-.76 8.1-7.98 14.32-16.32 13.55-7.65-.7-13.58-7.17-13.62-14.84-.08-12.2-4.77-34.04-13.93-52.84-17.92-36.75-49.62-61.95-94.22-74.9-7.95-2.31-12.53-10.64-10.22-18.59 2.31-7.96 10.63-12.53 18.59-10.22 66.83 19.4 98.6 60.71 113.48 91.94.89 1.87 1.72 3.73 2.52 5.57 3.57-7.93 7.9-16.12 13.15-24.17 4.53-6.94 13.82-8.89 20.76-4.37 6.94 4.53 8.89 13.83 4.36 20.76zm66.87-47.35c-29.2 6.57-33.25 17.18-43.24 17.18-4.87 0-9.65-2.37-12.53-6.75-4.56-6.91-2.65-16.22 4.26-20.78 13.48-8.88 28.59-15.24 44.93-18.92 8.08-1.82 16.11 3.26 17.92 11.34 1.82 8.09-3.26 16.11-11.34 17.93zm95.11 60.68c-36.85 0-66.83-29.98-66.83-66.83s29.98-66.83 66.83-66.83 66.83 29.98 66.83 66.83-29.98 66.83-66.83 66.83z"/></g></svg>