<?xml version="1.0" encoding="utf-8"?>
<!-- Generator: Adobe Illustrator 24.3.0, SVG Export Plug-In . SVG Version: 6.00 Build 0)  -->
<svg version="1.1" id="Layer_1" xmlns="http://www.w3.org/2000/svg" xmlns:xlink="http://www.w3.org/1999/xlink" x="0px" y="0px"
	 viewBox="0 0 120 120" style="enable-background:new 0 0 120 120;" xml:space="preserve">
<style type="text/css">
	.st0{opacity:0.6;}
	.st1{fill:#FFFFFF;}
	.st2{fill:#FEFFFF;}
	.st3{fill:#FDFEFE;}
	.st4{fill:#FBFCFD;}
	.st5{fill:#FAFBFB;}
	.st6{fill:#F9F9FA;}
	.st7{fill:#F8F8F8;}
	.st8{fill:#F7F7F7;}
	.st9{fill:#F6F6F6;}
	.st10{fill:#F5F5F5;}
	.st11{fill:#F4F4F5;}
	.st12{fill:#F3F3F4;}
	.st13{fill:#F2F2F3;}
	.st14{fill:#F2F1F1;}
	.st15{fill:#F1F0F0;}
	.st16{fill:#F0EFEF;}
	.st17{fill:#EEEEEE;}
	.st18{fill:#EDEDED;}
	.st19{fill:#ECECEC;}
	.st20{fill:#EBEBEB;}
	.st21{fill:#EAEAEA;}
	.st22{fill:#E9E9E9;}
	.st23{fill:#E8E8E8;}
	.st24{fill:#E7E7E7;}
	.st25{fill:#E6E6E6;}
	.st26{fill:#E5E5E5;}
	.st27{fill:#E4E4E4;}
	.st28{fill:#E3E3E3;}
	.st29{fill:#E2E2E2;}
	.st30{fill:#E1E1E1;}
	.st31{fill:#E0E0E0;}
	.st32{fill:#E0DFDF;}
	.st33{fill:#DFDEDE;}
	.st34{fill:#DDDDDD;}
	.st35{fill:#DCDCDC;}
	.st36{fill:#DCDBDB;}
	.st37{fill:#DBDADA;}
	.st38{fill:#DAD9D9;}
	.st39{fill:#D8D8D8;}
	.st40{fill:#D7D7D7;}
	.st41{fill:#D6D6D6;}
	.st42{fill:#D5D5D5;}
	.st43{fill:#D4D4D4;}
	.st44{fill:#D3D3D3;}
	.st45{fill:#D2D2D2;}
	.st46{fill:#D2D2D1;}
	.st47{fill:#D0D1D0;}
	.st48{fill:#D0D0CF;}
	.st49{fill:#CFCFCE;}
	.st50{fill:#CECDCD;}
	.st51{fill:#CCCCCB;}
	.st52{fill:#CBCBCA;}
	.st53{fill:#CACACA;}
	.st54{fill:#C9C9C9;}
	.st55{fill:#C8C8C8;}
	.st56{fill:#C7C7C6;}
	.st57{fill:#C6C6C5;}
	.st58{fill:#C5C5C4;}
	.st59{fill:#C4C4C4;}
	.st60{fill:#C3C3C3;}
	.st61{fill:#C2C2C1;}
	.st62{fill:#C2C1C0;}
	.st63{fill:#C0C0C0;}
	.st64{fill:#BFBFBF;}
	.st65{fill:#BEBEBE;}
	.st66{fill:#BDBDBD;}
	.st67{fill:#BCBCBC;}
	.st68{fill:#BBBBBB;}
	.st69{fill:#BABABA;}
	.st70{fill:#BAB9BA;}
	.st71{fill:#B8B9B9;}
	.st72{fill:#B7B7B7;}
	.st73{fill:#B6B6B6;}
	.st74{fill:#B5B5B6;}
	.st75{fill:#B4B4B5;}
	.st76{fill:#B3B4B4;}
	.st77{fill:#B3B3B3;}
	.st78{fill:#B2B1B2;}
	.st79{fill:#B0B0B1;}
	.st80{fill:#B0B0B0;}
	.st81{fill:#AFAEAE;}
	.st82{fill:#AEADAE;}
	.st83{fill:#ADADAD;}
	.st84{fill:#ACACAC;}
	.st85{fill:#ABABAB;}
	.st86{fill:#AAAAAA;}
	.st87{fill:#A9A8A9;}
	.st88{fill:#A7A7A7;}
	.st89{fill:#A6A5A5;}
	.st90{fill:#A5A4A4;}
	.st91{fill:#A4A3A4;}
	.st92{fill:#A3A3A3;}
	.st93{fill:#A2A1A1;}
	.st94{fill:#A1A0A0;}
	.st95{fill:#A09F9F;}
	.st96{fill:#9F9E9E;}
	.st97{fill:#9E9D9E;}
	.st98{fill:#9C9C9C;}
	.st99{fill:#9B9B9B;}
	.st100{fill:#9B9A9A;}
	.st101{fill:#9A9A9A;}
	.st102{fill:#999999;}
	.st103{fill:#989897;}
	.st104{fill:#979797;}
	.st105{fill:#969696;}
	.st106{fill:#959595;}
	.st107{fill:#949494;}
	.st108{fill:#939393;}
	.st109{fill:#929292;}
	.st110{fill:#919191;}
	.st111{fill:#909090;}
	.st112{fill:#8F8F8F;}
	.st113{fill:#8E8E8E;}
	.st114{fill:#8D8D8D;}
	.st115{fill:#8C8C8C;}
	.st116{fill:#8B8B8B;}
	.st117{fill:#8A8A8A;}
	.st118{fill:#898989;}
	.st119{fill:#888888;}
	.st120{fill:#878787;}
	.st121{fill:#868686;}
	.st122{fill:#848585;}
	.st123{fill:#848484;}
	.st124{fill:#838383;}
	.st125{fill:#828282;}
	.st126{fill:#818181;}
	.st127{fill:#808080;}
	.st128{fill:url(#Ellipse_190_1_);}
</style>
<g id="Group_751" transform="translate(-1300.412 -3145.305)">
	<g id="Group_110" transform="translate(1158.946 3120.516)">
		<g id="Group_107" transform="translate(141.467 24.79)" class="st0">
			<circle id="Ellipse_65" class="st1" cx="62.82" cy="65.78" r="52.34"/>
			<circle id="Ellipse_66" class="st1" cx="62.74" cy="65.69" r="52.31"/>
			<circle id="Ellipse_67" class="st2" cx="62.74" cy="65.64" r="52.34"/>
			<circle id="Ellipse_68" class="st3" cx="62.7" cy="65.49" r="52.33"/>
			<circle id="Ellipse_69" class="st4" cx="62.65" cy="65.43" r="52.34"/>
			<circle id="Ellipse_70" class="st5" cx="62.58" cy="65.34" r="52.32"/>
			<circle id="Ellipse_71" class="st6" cx="62.57" cy="65.28" r="52.34"/>
			<circle id="Ellipse_72" class="st7" cx="62.52" cy="65.2" r="52.34"/>
			<circle id="Ellipse_73" class="st8" cx="62.44" cy="65.08" r="52.31"/>
			<circle id="Ellipse_74" class="st9" cx="62.43" cy="64.99" r="52.34"/>
			<circle id="Ellipse_75" class="st10" cx="62.39" cy="64.91" r="52.34"/>
			<circle id="Ellipse_76" class="st11" cx="62.35" cy="64.85" r="52.34"/>
			<circle id="Ellipse_77" class="st12" cx="62.3" cy="64.76" r="52.34"/>
			<circle id="Ellipse_78" class="st13" cx="62.24" cy="64.66" r="52.32"/>
			<circle id="Ellipse_79" class="st14" cx="62.22" cy="64.56" r="52.34"/>
			<circle id="Ellipse_80" class="st15" cx="62.18" cy="64.5" r="52.35"/>
			<circle id="Ellipse_81" class="st16" cx="62.13" cy="64.41" r="52.34"/>
			<circle id="Ellipse_82" class="st17" cx="62.08" cy="64.29" r="52.34"/>
			<circle id="Ellipse_83" class="st18" cx="62.04" cy="64.21" r="52.34"/>
			<circle id="Ellipse_84" class="st19" cx="62" cy="64.12" r="52.34"/>
			<circle id="Ellipse_85" class="st20" cx="61.94" cy="64.04" r="52.33"/>
			<circle id="Ellipse_86" class="st21" cx="61.91" cy="63.94" r="52.34"/>
			<circle id="Ellipse_87" class="st22" cx="61.87" cy="63.85" r="52.34"/>
			<circle id="Ellipse_88" class="st23" cx="61.82" cy="63.77" r="52.34"/>
			<circle id="Ellipse_89" class="st24" cx="61.78" cy="63.68" r="52.34"/>
			<circle id="Ellipse_90" class="st25" cx="61.74" cy="63.59" r="52.34"/>
			<circle id="Ellipse_91" class="st26" cx="61.69" cy="63.5" r="52.34"/>
			<circle id="Ellipse_92" class="st27" cx="61.65" cy="63.42" r="52.34"/>
			<circle id="Ellipse_93" class="st28" cx="61.61" cy="63.33" r="52.34"/>
			<circle id="Ellipse_94" class="st29" cx="61.56" cy="63.24" r="52.34"/>
			<circle id="Ellipse_95" class="st30" cx="61.52" cy="63.15" r="52.34"/>
			<circle id="Ellipse_96" class="st31" cx="61.48" cy="63.07" r="52.34"/>
			<circle id="Ellipse_97" class="st32" cx="61.43" cy="62.98" r="52.34"/>
			<circle id="Ellipse_98" class="st33" cx="61.4" cy="62.91" r="52.34"/>
			<circle id="Ellipse_99" class="st34" cx="61.35" cy="62.8" r="52.34"/>
			<circle id="Ellipse_100" class="st35" cx="61.3" cy="62.71" r="52.34"/>
			<circle id="Ellipse_101" class="st36" cx="61.26" cy="62.63" r="52.34"/>
			<circle id="Ellipse_102" class="st37" cx="61.21" cy="62.54" r="52.34"/>
			<circle id="Ellipse_103" class="st38" cx="61.18" cy="62.47" r="52.34"/>
			<circle id="Ellipse_104" class="st39" cx="61.14" cy="62.38" r="52.35"/>
			<circle id="Ellipse_105" class="st40" cx="61.08" cy="62.28" r="52.34"/>
			<circle id="Ellipse_106" class="st41" cx="61.02" cy="62.21" r="52.33"/>
			<circle id="Ellipse_107" class="st42" cx="61" cy="62.1" r="52.34"/>
			<circle id="Ellipse_108" class="st43" cx="60.95" cy="62.01" r="52.34"/>
			<circle id="Ellipse_109" class="st44" cx="60.92" cy="61.95" r="52.35"/>
			<circle id="Ellipse_110" class="st45" cx="60.9" cy="61.84" r="52.37"/>
			<circle id="Ellipse_111" class="st46" cx="60.82" cy="61.75" r="52.34"/>
			<circle id="Ellipse_112" class="st47" cx="60.78" cy="61.66" r="52.34"/>
			<circle id="Ellipse_113" class="st48" cx="60.73" cy="61.57" r="52.34"/>
			<circle id="Ellipse_114" class="st49" cx="60.7" cy="61.47" r="52.34"/>
			<circle id="Ellipse_115" class="st50" cx="60.68" cy="61.39" r="52.36"/>
			<circle id="Ellipse_116" class="st51" cx="60.57" cy="61.3" r="52.31"/>
			<circle id="Ellipse_117" class="st52" cx="60.56" cy="61.22" r="52.34"/>
			<circle id="Ellipse_118" class="st53" cx="60.52" cy="61.14" r="52.34"/>
			<circle id="Ellipse_119" class="st54" cx="60.47" cy="61.05" r="52.34"/>
			<circle id="Ellipse_120" class="st55" cx="60.43" cy="60.96" r="52.34"/>
			<circle id="Ellipse_121" class="st56" cx="60.35" cy="60.86" r="52.31"/>
			<circle id="Ellipse_122" class="st57" cx="60.33" cy="60.76" r="52.34"/>
			<circle id="Ellipse_123" class="st58" cx="60.3" cy="60.7" r="52.34"/>
			<circle id="Ellipse_124" class="st59" cx="60.26" cy="60.61" r="52.34"/>
			<circle id="Ellipse_125" class="st60" cx="60.21" cy="60.52" r="52.34"/>
			<circle id="Ellipse_126" class="st61" cx="60.13" cy="60.42" r="52.31"/>
			<circle id="Ellipse_127" class="st62" cx="60.13" cy="60.35" r="52.34"/>
			<circle id="Ellipse_128" class="st63" cx="60.04" cy="60.27" r="52.31"/>
			<circle id="Ellipse_129" class="st63" cx="60.04" cy="60.17" r="52.34"/>
			<circle id="Ellipse_130" class="st64" cx="59.99" cy="60.13" r="52.35"/>
			<circle id="Ellipse_131" class="st65" cx="59.95" cy="60" r="52.34"/>
			<circle id="Ellipse_132" class="st66" cx="59.9" cy="59.92" r="52.33"/>
			<circle id="Ellipse_133" class="st67" cx="59.86" cy="59.82" r="52.34"/>
			<circle id="Ellipse_134" class="st68" cx="59.78" cy="59.74" r="52.31"/>
			<circle id="Ellipse_135" class="st69" cx="59.78" cy="59.64" r="52.34"/>
			<circle id="Ellipse_136" class="st70" cx="59.73" cy="59.56" r="52.34"/>
			<circle id="Ellipse_137" class="st71" cx="59.68" cy="59.48" r="52.33"/>
			<circle id="Ellipse_138" class="st72" cx="59.65" cy="59.38" r="52.34"/>
			<circle id="Ellipse_139" class="st73" cx="59.59" cy="59.27" r="52.34"/>
			<circle id="Ellipse_140" class="st74" cx="59.58" cy="59.17" r="52.36"/>
			<circle id="Ellipse_141" class="st75" cx="59.52" cy="59.12" r="52.34"/>
			<circle id="Ellipse_142" class="st76" cx="59.47" cy="59.03" r="52.34"/>
			<circle id="Ellipse_143" class="st77" cx="59.43" cy="58.94" r="52.34"/>
			<circle id="Ellipse_144" class="st78" cx="59.39" cy="58.86" r="52.34"/>
			<circle id="Ellipse_145" class="st79" cx="59.34" cy="58.77" r="52.34"/>
			<circle id="Ellipse_146" class="st80" cx="59.3" cy="58.68" r="52.34"/>
			<circle id="Ellipse_147" class="st81" cx="59.26" cy="58.59" r="52.34"/>
			<path id="Path_183" class="st82" d="M105.67,82.6c13.31-25.66,3.3-57.25-22.36-70.56S26.06,8.75,12.75,34.4
				c-13.31,25.66-3.3,57.25,22.36,70.56C60.77,118.27,92.36,108.26,105.67,82.6z"/>
			<path id="Path_184" class="st83" d="M105.63,82.52c13.31-25.66,3.3-57.25-22.36-70.56s-57.25-3.3-70.56,22.36
				c-13.31,25.66-3.3,57.25,22.36,70.56C60.73,118.19,92.32,108.18,105.63,82.52z"/>
			<circle id="Ellipse_148" class="st84" cx="59.12" cy="58.33" r="52.34"/>
			<circle id="Ellipse_149" class="st85" cx="59.08" cy="58.24" r="52.34"/>
			<circle id="Ellipse_150" class="st86" cx="59.04" cy="58.15" r="52.34"/>
			<circle id="Ellipse_151" class="st87" cx="59" cy="58.02" r="52.32"/>
			<circle id="Ellipse_152" class="st88" cx="58.95" cy="57.98" r="52.34"/>
			<circle id="Ellipse_153" class="st89" cx="58.91" cy="57.89" r="52.34"/>
			<circle id="Ellipse_154" class="st90" cx="58.86" cy="57.8" r="52.34"/>
			<circle id="Ellipse_155" class="st91" cx="58.82" cy="57.71" r="52.34"/>
			<circle id="Ellipse_156" class="st92" cx="58.78" cy="57.63" r="52.34"/>
			<circle id="Ellipse_157" class="st93" cx="58.73" cy="57.54" r="52.34"/>
			<circle id="Ellipse_158" class="st94" cx="58.69" cy="57.45" r="52.34"/>
			<circle id="Ellipse_159" class="st95" cx="58.65" cy="57.36" r="52.34"/>
			<circle id="Ellipse_160" class="st96" cx="58.6" cy="57.28" r="52.34"/>
			<circle id="Ellipse_161" class="st97" cx="58.55" cy="57.23" r="52.32"/>
			<path id="Path_185" class="st98" d="M104.98,81.2c13.31-25.66,3.3-57.25-22.36-70.56S25.37,7.34,12.06,33
				c-13.31,25.66-3.3,57.25,22.36,70.56C60.07,116.87,91.66,106.86,104.98,81.2C104.97,81.2,104.98,81.2,104.98,81.2z"/>
			<path id="Path_186" class="st99" d="M104.93,81.11c13.31-25.66,3.3-57.25-22.36-70.56s-57.25-3.3-70.56,22.36
				c-13.31,25.66-3.3,57.25,22.36,70.56C60.03,116.78,91.62,106.77,104.93,81.11C104.93,81.11,104.93,81.11,104.93,81.11z"/>
			<circle id="Ellipse_162" class="st100" cx="58.43" cy="56.92" r="52.34"/>
			<circle id="Ellipse_163" class="st101" cx="58.39" cy="56.84" r="52.34"/>
			<circle id="Ellipse_164" class="st102" cx="58.34" cy="56.75" r="52.34"/>
			<circle id="Ellipse_165" class="st103" cx="58.3" cy="56.66" r="52.34"/>
			<circle id="Ellipse_166" class="st104" cx="58.25" cy="56.57" r="52.34"/>
			<circle id="Ellipse_167" class="st105" cx="58.21" cy="56.49" r="52.34"/>
			<circle id="Ellipse_168" class="st106" cx="58.17" cy="56.4" r="52.34"/>
			<circle id="Ellipse_169" class="st107" cx="58.12" cy="56.31" r="52.34"/>
			<circle id="Ellipse_170" class="st108" cx="58.08" cy="56.22" r="52.34"/>
			<circle id="Ellipse_171" class="st109" cx="58.04" cy="56.14" r="52.34"/>
			<circle id="Ellipse_172" class="st110" cx="57.99" cy="56.05" r="52.34"/>
			<circle id="Ellipse_173" class="st111" cx="57.95" cy="55.96" r="52.34"/>
			<circle id="Ellipse_174" class="st112" cx="57.91" cy="55.87" r="52.34"/>
			<circle id="Ellipse_175" class="st113" cx="57.86" cy="55.78" r="52.34"/>
			<circle id="Ellipse_176" class="st114" cx="57.82" cy="55.7" r="52.34"/>
			<circle id="Ellipse_177" class="st115" cx="57.79" cy="55.62" r="52.35"/>
			<circle id="Ellipse_178" class="st116" cx="57.73" cy="55.52" r="52.34"/>
			<circle id="Ellipse_179" class="st117" cx="57.69" cy="55.43" r="52.34"/>
			<circle id="Ellipse_180" class="st118" cx="57.65" cy="55.35" r="52.34"/>
			<circle id="Ellipse_181" class="st119" cx="57.6" cy="55.26" r="52.34"/>
			<circle id="Ellipse_182" class="st120" cx="57.53" cy="55.18" r="52.32"/>
			<path id="Path_187" class="st121" d="M103.97,79.18c13.31-25.66,3.3-57.25-22.36-70.56s-57.25-3.3-70.56,22.36
				c-13.31,25.66-3.3,57.25,22.36,70.56C59.07,114.85,90.66,104.84,103.97,79.18C103.97,79.18,103.97,79.18,103.97,79.18z"/>
			<circle id="Ellipse_183" class="st122" cx="57.47" cy="55" r="52.34"/>
			<circle id="Ellipse_184" class="st123" cx="57.43" cy="54.91" r="52.34"/>
			<circle id="Ellipse_185" class="st124" cx="57.38" cy="54.82" r="52.34"/>
			<circle id="Ellipse_186" class="st125" cx="57.34" cy="54.73" r="52.34"/>
			<circle id="Ellipse_187" class="st126" cx="57.3" cy="54.64" r="52.34"/>
			<circle id="Ellipse_188" class="st127" cx="57.25" cy="54.56" r="52.34"/>
		</g>
		<circle id="Ellipse_189" class="st1" cx="198.64" cy="79" r="52.34"/>
		
			<linearGradient id="Ellipse_190_1_" gradientUnits="userSpaceOnUse" x1="145.1836" y1="141.1655" x2="145.1836" y2="139.7735" gradientTransform="matrix(78.3354 -12.7114 -12.7114 -78.3354 -9383.7979 12958.8662)">
			<stop  offset="0" style="stop-color:#EC1D24"/>
			<stop  offset="1" style="stop-color:#CE2029"/>
		</linearGradient>
		<circle id="Ellipse_190" class="st128" cx="198.73" cy="79.33" r="39.68"/>
	</g>
	<g id="mobile-app" transform="translate(1348.088 3191.305)">
		<path id="Path_166" class="st1" d="M-7.49,6.51c-0.01,2.04,1.64,3.7,3.67,3.71c0.52,0,1.04-0.11,1.51-0.32V3.12
			C-4.17,2.3-6.35,3.14-7.17,5C-7.39,5.47-7.49,5.99-7.49,6.51z"/>
		<path id="Path_167" class="st1" d="M22.89-11.27c0-1.23-1-2.22-2.22-2.22H1.4c-1.23,0-2.22,1-2.22,2.22v2.22h23.71V-11.27z
			 M12.52-10.53H6.59v-1.48h5.93L12.52-10.53z M15.48-10.53H14v-1.48h1.48L15.48-10.53z"/>
		<path id="Path_168" class="st1" d="M21.41,19.07v3H0.66V-6.09h20.75v4.48c0.25-0.02,0.49-0.04,0.74-0.04s0.5,0.02,0.74,0.04v-5.97
			H-0.82v31.12h23.71v-4.48c-0.25,0.02-0.49,0.04-0.74,0.04S21.65,19.09,21.41,19.07z"/>
		<path id="Path_169" class="st1" d="M-5.88,0.18l-0.9,0.37l-1.6-0.96l-2.33,2.32l0.96,1.6l-0.37,0.9l-1.81,0.46v3.29l1.82,0.45
			l0.37,0.9l-0.96,1.6l2.32,2.33l1.6-0.96l0.85,0.34l0.15,0.4l0.36,1.44h3.13v-3.19c-2.74,0.84-5.64-0.71-6.48-3.45
			s0.71-5.64,3.45-6.48c0.99-0.3,2.04-0.3,3.03,0v-3.19h-3.13L-5.88,0.18z"/>
		<path id="Path_170" class="st1" d="M-0.82,27.26c0,1.23,1,2.22,2.22,2.22h19.27c1.23,0,2.22-1,2.22-2.22v-2.22H-0.82V27.26z
			 M18.44,26.52h1.48V28h-1.48V26.52z M8.07,26.52H14V28H8.07L8.07,26.52z M2.14,26.52h1.48V28H2.14L2.14,26.52z"/>
		<path id="Path_171" class="st1" d="M19.93-1.4v-3.21H2.14v25.2h17.78v-1.73c-5.33-1.13-8.86-6.22-8.03-11.61H3.62V-3.12h14.82
			v2.18C18.93-1.13,19.42-1.28,19.93-1.4z M10.29,19.1H3.62v-1.48h6.67L10.29,19.1z M10.29,16.14H3.62v-1.48h6.67L10.29,16.14z
			 M10.29,13.18H3.62v-1.48h6.67L10.29,13.18z M10.29,8.73v1.48H3.62V8.73L10.29,8.73z"/>
		<path id="Path_172" class="st1" d="M12.21,5.77c0.76-2.53,2.46-4.68,4.75-6.01v-1.4H5.11v7.41H12.21z"/>
		<path id="Path_173" class="st1" d="M22.15-0.16c-4.9-0.01-8.88,3.96-8.89,8.86c0,1.4,0.33,2.79,0.96,4.04
			c0.42-1.16,1.39-2.03,2.58-2.33l3.12-0.78V9.46c-0.93-0.7-1.48-1.79-1.48-2.95V5.18c-0.03-1.96,1.43-3.62,3.38-3.84
			c2.04-0.18,3.84,1.32,4.02,3.36c0.01,0.11,0.01,0.22,0.01,0.33v1.48c-0.01,1.16-0.55,2.25-1.48,2.95v0.18l3.12,0.78
			c1.19,0.3,2.16,1.17,2.58,2.33c2.23-4.37,0.49-9.71-3.87-11.94C24.95,0.17,23.56-0.16,22.15-0.16z"/>
		<path id="Path_174" class="st1" d="M27.14,11.85l-4.24-1.06V8.64l0.37-0.21c0.69-0.39,1.11-1.12,1.11-1.91V5.03
			c0-1.23-1-2.22-2.22-2.22c-0.07,0-0.13,0-0.2,0.01c-1.18,0.15-2.06,1.18-2.02,2.37v1.33c0,0.79,0.43,1.52,1.11,1.91l0.37,0.21
			v2.16l-4.24,1.06c-0.99,0.25-1.68,1.14-1.68,2.16v0.58c3.22,3.68,8.81,4.06,12.49,0.84c0.3-0.26,0.58-0.54,0.84-0.84v-0.58
			C28.82,12.99,28.13,12.1,27.14,11.85z"/>
		<path id="Path_175" class="st1" d="M28.08-1.64c1.22,0,2.22-0.99,2.22-2.21c0-0.94-0.59-1.78-1.48-2.1v-6.06h-1.48v6.07
			c-1.16,0.41-1.76,1.67-1.36,2.83C26.3-2.23,27.14-1.64,28.08-1.64L28.08-1.64z"/>
		<path id="Path_176" class="st1" d="M27.34-14.98h1.48v1.48h-1.48V-14.98z"/>
		<path id="Path_177" class="st1" d="M-6.01,17.63c-1.22,0-2.22,0.99-2.22,2.21c0,0.94,0.59,1.78,1.48,2.1V28h1.48v-6.06
			c1.16-0.41,1.76-1.67,1.36-2.83C-4.23,18.22-5.07,17.62-6.01,17.63z"/>
		<path id="Path_178" class="st1" d="M-6.75,29.48h1.48v1.48h-1.48V29.48z"/>
	</g>
</g>
</svg>
