<svg id="Layer_1" enable-background="new 0 0 512 512" height="512" viewBox="0 0 512 512" width="512" xmlns="http://www.w3.org/2000/svg"><g><path d="m282.843 294.825 20.35-14.785h-25.153c-6.498 0-12.258-4.184-14.266-10.365l-7.774-23.923-7.773 23.923c-2.008 6.18-7.768 10.365-14.266 10.365h-25.153l20.35 14.785c5.258 3.82 7.458 10.59 5.449 16.771l-7.772 23.923 20.35-14.785c2.628-1.91 5.723-2.865 8.816-2.865s6.188.955 8.816 2.865l20.35 14.785-7.772-23.923c-2.01-6.18.19-12.951 5.448-16.771z"/><path d="m88.464 146.524v350.476c0 5.374 2.875 10.337 7.535 13.011 4.661 2.674 10.396 2.65 15.035-.061l144.966-84.751 144.966 84.75c2.338 1.367 4.953 2.051 7.57 2.051 2.576 0 5.152-.663 7.465-1.989 4.661-2.674 7.535-7.637 7.535-13.011v-350.476zm269.711 130.652-48.882 35.515 18.671 57.464c2.009 6.18-.162 12.992-5.449 16.771-6.584 4.706-15.005 1.91-17.633 0l-48.882-35.516-48.882 35.515c-5.256 3.82-12.377 3.82-17.633 0-5.258-3.82-7.458-10.59-5.449-16.771l18.671-57.464-48.882-35.515c-5.258-3.82-7.458-10.59-5.449-16.771 2.008-6.18 7.768-10.365 14.266-10.365h60.421l18.672-57.464c2.008-6.18 7.768-10.365 14.266-10.365s12.258 4.184 14.266 10.365l18.672 57.464h60.421c6.498 0 12.258 4.185 14.266 10.365 2.007 6.181-.193 12.952-5.451 16.772z"/><path d="m484.49 0h-456.98c-8.284 0-15 6.716-15 15 0 56.174 45.701 101.874 101.874 101.874h283.232c56.174 0 101.874-45.7 101.874-101.874 0-8.284-6.716-15-15-15z"/></g></svg>