<?xml version="1.0"?>
<svg xmlns="http://www.w3.org/2000/svg" viewBox="0 0 64 64" width="512" height="512"><title>Brand-corporate-design-development-identity</title><g id="Solid"><polygon points="36.236 28 42 28 42 26 36.236 26 34.236 27 36.236 28"/><rect x="48" y="34" width="8" height="4"/><path d="M31,50a6.977,6.977,0,0,1-5-2.11V60H56V47.89A6.977,6.977,0,0,1,51,50Zm-1,8H28V56h2Zm10,0H32V56h8Z"/><path d="M45,38h1V34H44v3A1,1,0,0,0,45,38Z"/><rect x="44" y="26" width="12" height="2"/><path d="M49,40H45a3,3,0,0,1-3-3V33a1,1,0,0,1,1-1h6V30H36a1,1,0,0,1-.447-.105L31.764,28H30V26h1.764l3.789-1.895A1,1,0,0,1,36,24H49V22H39a1,1,0,0,1-1-1V11a1,1,0,0,1,1-1H49V8H15V32H39a1,1,0,0,1,1,1v7H38V34H8V60H24V43a1,1,0,0,1,1-1H49ZM19,12H17V10h2Zm10,0H21V10h8ZM12,38H10V36h2Zm10,0H14V36h8Z"/><path d="M40,12v8H56V12Zm4,4H42V14h2Zm10,0H46V14h8Z"/><path d="M31,48H51a5.009,5.009,0,0,0,4.9-4H26.1A5.009,5.009,0,0,0,31,48Z"/></g></svg>
