<svg id="Capa_1" enable-background="new 0 0 512 512" height="512" viewBox="0 0 512 512" width="512" xmlns="http://www.w3.org/2000/svg"><g><path d="m0 121.715v375.285c0 8.284 6.716 15 15 15h482c8.284 0 15-6.716 15-15v-375.285zm330.814 111.022c5.858-5.858 15.356-5.858 21.213 0l74.158 74.159c2.829 2.829 4.411 6.671 4.394 10.672s-1.633 7.829-4.486 10.633l-74.158 72.869c-2.921 2.87-6.719 4.301-10.513 4.301-3.884 0-7.764-1.498-10.7-4.487-5.807-5.909-5.723-15.406.186-21.212l63.365-62.263-63.458-63.459c-5.859-5.858-5.859-15.356-.001-21.213zm-115.021 152.621 52.139-147.028c2.77-7.808 11.344-11.893 19.151-9.124 7.808 2.769 11.893 11.343 9.124 19.15l-52.139 147.028c-2.182 6.15-7.965 9.991-14.138 9.991-1.664 0-3.355-.279-5.014-.867-7.807-2.768-11.892-11.342-9.123-19.15zm-129.886-79.845 74.158-72.869c5.911-5.807 15.408-5.722 21.213.186 5.807 5.909 5.723 15.406-.186 21.212l-63.365 62.263 63.458 63.459c5.858 5.858 5.858 15.355 0 21.213-2.929 2.929-6.769 4.393-10.606 4.394-3.839 0-7.678-1.464-10.606-4.394l-74.158-74.159c-2.829-2.829-4.411-6.671-4.394-10.672s1.633-7.829 4.486-10.633z"/><path d="m390.285 91.715v-91.715h-375.285c-8.284 0-15 6.716-15 15v76.715z"/><path d="m420.285 91.715h91.715v-76.715c0-8.284-6.716-15-15-15h-76.715z"/></g></svg>