<svg id="Capa_1" enable-background="new 0 0 512 512" height="512" viewBox="0 0 512 512" width="512" xmlns="http://www.w3.org/2000/svg"><g><circle cx="136" cy="332" r="60"/><path d="m31 497c0 8.291 6.709 15 15 15h180c8.291 0 15-6.709 15-15 0-57.891-47.109-105-105-105s-105 47.109-105 105z"/><circle cx="376" cy="332" r="60"/><path d="m271 497c0 8.291 6.709 15 15 15h180c8.291 0 15-6.709 15-15 0-57.891-47.109-105-105-105s-105 47.109-105 105z"/><path d="m467 0h-422c-24.814 0-45 20.186-45 45v120c0 24.814 20.186 45 45 45h53.789l25.605 25.605c5.859 5.859 15.352 5.859 21.211 0l25.606-25.605h169.578l25.605 25.605c5.859 5.859 15.351 5.86 21.211 0l25.606-25.605h53.789c24.814 0 45-20.186 45-45v-120c0-24.814-20.186-45-45-45zm-272 150h-120c-8.291 0-15-6.709-15-15s6.709-15 15-15h120c8.291 0 15 6.709 15 15s-6.709 15-15 15zm0-60h-120c-8.291 0-15-6.709-15-15s6.709-15 15-15h120c8.291 0 15 6.709 15 15s-6.709 15-15 15zm242 60h-120c-8.291 0-15-6.709-15-15s6.709-15 15-15h120c8.291 0 15 6.709 15 15s-6.709 15-15 15zm0-60h-120c-8.291 0-15-6.709-15-15s6.709-15 15-15h120c8.291 0 15 6.709 15 15s-6.709 15-15 15z"/></g></svg>