<svg id="Capa_1" enable-background="new 0 0 512 512" height="512" viewBox="0 0 512 512" width="512" xmlns="http://www.w3.org/2000/svg"><g><path d="m379.072 140.807c-1.517-3.54-4.338-6.361-7.878-7.878l-98.996-42.427c-12.446-5.334-25.03 7.25-19.696 19.696l42.427 98.996c1.517 3.54 4.338 6.361 7.878 7.878l98.996 42.427c12.446 5.334 25.03-7.25 19.696-19.696zm-84.223-7.958 44.163 18.927-25.236 25.236zm40.14 65.375 25.236-25.236 18.927 44.163z"/><path d="m337 0c-96.495 0-175 78.505-175 175 0 42.859 15.496 82.16 41.168 112.619l-37.96 37.96-10.606-10.606c-5.858-5.858-15.355-5.858-21.213 0l-120.209 120.207c-17.574 17.574-17.574 46.066 0 63.64 17.574 17.574 46.066 17.574 63.64 0l120.208-120.208c5.858-5.858 5.858-15.355 0-21.213l-10.607-10.607 37.959-37.96c30.459 25.672 69.761 41.168 112.62 41.168 96.495 0 175-78.505 175-175s-78.505-175-175-175zm-281.393 477.607c-5.858 5.858-15.356 5.858-21.214 0-5.858-5.858-5.858-15.355 0-21.213l10.61-10.61 21.213 21.213zm31.823-31.823-21.213-21.214 77.779-77.779 21.213 21.213zm249.57-125.784c-79.953 0-145-65.047-145-145s65.047-145 145-145 145 65.047 145 145-65.047 145-145 145z"/></g></svg>