<svg id="Capa_1" enable-background="new 0 0 512 512" height="512" viewBox="0 0 512 512" width="512" xmlns="http://www.w3.org/2000/svg"><g><path d="m463.667 8.5h48.333v104.666h-48.333z"/><path d="m0 8.5h48.333v104.666h-48.333z"/><path d="m433.667 8.5h-355.334v420.333h30v-31.606l51.334 24.167v45.44h30v-31.316l51.333 24.166v43.816h30v-43.816l51.333-24.167v31.316h30v-45.44l51.334-24.167v31.606h30zm-61.571 231.15-41.748 82.85h-148.696l-41.748-82.849c-12.313-24.434-3.474-54.423 20.123-68.273 13.215-7.757 28.446-9.092 42.032-4.789 2.156-4.526 4.877-8.815 8.172-12.744 8.088-9.641 18.86-16.34 30.769-19.421v-29.591h30v29.591c11.909 3.081 22.682 9.78 30.77 19.421 3.295 3.928 6.017 8.218 8.172 12.743 13.586-4.303 28.816-2.967 42.032 4.789 23.595 13.85 32.434 43.839 20.122 68.273z"/><path d="m213.524 292.5-17.089-95.864c-6.507-3.356-14.485-3.341-21.221.614-9.989 5.863-13.73 18.558-8.519 28.901l33.434 66.349z"/><path d="m345.305 226.15c5.212-10.343 1.471-23.038-8.518-28.9-6.738-3.955-14.713-3.971-21.217-.617l-16.258 95.867h12.559z"/><path d="m285.278 197.468c1.543-8.737-.827-17.589-6.493-24.342-5.665-6.753-13.97-10.627-22.785-10.627s-17.12 3.873-22.785 10.627c-5.666 6.753-8.036 15.605-6.504 24.287l17.306 95.087h24.852z"/></g></svg>