<?xml version="1.0" encoding="utf-8"?>
<!-- Generator: Adobe Illustrator 24.3.0, SVG Export Plug-In . SVG Version: 6.00 Build 0)  -->
<svg version="1.1" id="Layer_1" xmlns="http://www.w3.org/2000/svg" xmlns:xlink="http://www.w3.org/1999/xlink" x="0px" y="0px"
	 viewBox="0 0 120 120" style="enable-background:new 0 0 120 120;" xml:space="preserve">
<style type="text/css">
	.st0{opacity:0.6;}
	.st1{fill:#FFFFFF;}
	.st2{fill:#FEFFFF;}
	.st3{fill:#FDFEFE;}
	.st4{fill:#FBFCFD;}
	.st5{fill:#FAFBFB;}
	.st6{fill:#F9F9FA;}
	.st7{fill:#F8F8F8;}
	.st8{fill:#F7F7F7;}
	.st9{fill:#F6F6F6;}
	.st10{fill:#F5F5F5;}
	.st11{fill:#F4F4F5;}
	.st12{fill:#F3F3F4;}
	.st13{fill:#F2F2F3;}
	.st14{fill:#F2F1F1;}
	.st15{fill:#F1F0F0;}
	.st16{fill:#F0EFEF;}
	.st17{fill:#EEEEEE;}
	.st18{fill:#EDEDED;}
	.st19{fill:#ECECEC;}
	.st20{fill:#EBEBEB;}
	.st21{fill:#EAEAEA;}
	.st22{fill:#E9E9E9;}
	.st23{fill:#E8E8E8;}
	.st24{fill:#E7E7E7;}
	.st25{fill:#E6E6E6;}
	.st26{fill:#E5E5E5;}
	.st27{fill:#E4E4E4;}
	.st28{fill:#E3E3E3;}
	.st29{fill:#E2E2E2;}
	.st30{fill:#E1E1E1;}
	.st31{fill:#E0E0E0;}
	.st32{fill:#E0DFDF;}
	.st33{fill:#DFDEDE;}
	.st34{fill:#DDDDDD;}
	.st35{fill:#DCDCDC;}
	.st36{fill:#DCDBDB;}
	.st37{fill:#DBDADA;}
	.st38{fill:#DAD9D9;}
	.st39{fill:#D8D8D8;}
	.st40{fill:#D7D7D7;}
	.st41{fill:#D6D6D6;}
	.st42{fill:#D5D5D5;}
	.st43{fill:#D4D4D4;}
	.st44{fill:#D3D3D3;}
	.st45{fill:#D2D2D2;}
	.st46{fill:#D2D2D1;}
	.st47{fill:#D0D1D0;}
	.st48{fill:#D0D0CF;}
	.st49{fill:#CFCFCE;}
	.st50{fill:#CECDCD;}
	.st51{fill:#CCCCCB;}
	.st52{fill:#CBCBCA;}
	.st53{fill:#CACACA;}
	.st54{fill:#C9C9C9;}
	.st55{fill:#C8C8C8;}
	.st56{fill:#C7C7C6;}
	.st57{fill:#C6C6C5;}
	.st58{fill:#C5C5C4;}
	.st59{fill:#C4C4C4;}
	.st60{fill:#C3C3C3;}
	.st61{fill:#C2C2C1;}
	.st62{fill:#C2C1C0;}
	.st63{fill:#C0C0C0;}
	.st64{fill:#BFBFBF;}
	.st65{fill:#BEBEBE;}
	.st66{fill:#BDBDBD;}
	.st67{fill:#BCBCBC;}
	.st68{fill:#BBBBBB;}
	.st69{fill:#BABABA;}
	.st70{fill:#BAB9BA;}
	.st71{fill:#B8B9B9;}
	.st72{fill:#B7B7B7;}
	.st73{fill:#B6B6B6;}
	.st74{fill:#B5B5B6;}
	.st75{fill:#B4B4B5;}
	.st76{fill:#B3B4B4;}
	.st77{fill:#B3B3B3;}
	.st78{fill:#B2B1B2;}
	.st79{fill:#B0B0B1;}
	.st80{fill:#B0B0B0;}
	.st81{fill:#AFAEAE;}
	.st82{fill:#AEADAE;}
	.st83{fill:#ADADAD;}
	.st84{fill:#ACACAC;}
	.st85{fill:#ABABAB;}
	.st86{fill:#AAAAAA;}
	.st87{fill:#A9A8A9;}
	.st88{fill:#A7A7A7;}
	.st89{fill:#A6A5A5;}
	.st90{fill:#A5A4A4;}
	.st91{fill:#A4A3A4;}
	.st92{fill:#A3A3A3;}
	.st93{fill:#A2A1A1;}
	.st94{fill:#A1A0A0;}
	.st95{fill:#A09F9F;}
	.st96{fill:#9F9E9E;}
	.st97{fill:#9E9D9E;}
	.st98{fill:#9C9C9C;}
	.st99{fill:#9B9B9B;}
	.st100{fill:#9B9A9A;}
	.st101{fill:#9A9A9A;}
	.st102{fill:#999999;}
	.st103{fill:#989897;}
	.st104{fill:#979797;}
	.st105{fill:#969696;}
	.st106{fill:#959595;}
	.st107{fill:#949494;}
	.st108{fill:#939393;}
	.st109{fill:#929292;}
	.st110{fill:#919191;}
	.st111{fill:#909090;}
	.st112{fill:#8F8F8F;}
	.st113{fill:#8E8E8E;}
	.st114{fill:#8D8D8D;}
	.st115{fill:#8C8C8C;}
	.st116{fill:#8B8B8B;}
	.st117{fill:#8A8A8A;}
	.st118{fill:#898989;}
	.st119{fill:#888888;}
	.st120{fill:#878787;}
	.st121{fill:#868686;}
	.st122{fill:#848585;}
	.st123{fill:#848484;}
	.st124{fill:#838383;}
	.st125{fill:#828282;}
	.st126{fill:#818181;}
	.st127{fill:#808080;}
	.st128{fill:url(#Path_2040_1_);}
</style>
<g id="Group_750" transform="translate(-138 -2917.006)">
	<g id="Group_109" transform="translate(742.858 3198.17)">
		<g id="Group_107-4" transform="translate(141.467 24.79)" class="st0">
			<circle id="Ellipse_65-4" class="st1" cx="-683.5" cy="-240.17" r="52.34"/>
			<circle id="Ellipse_66-4" class="st1" cx="-683.59" cy="-240.26" r="52.31"/>
			<circle id="Ellipse_67-4" class="st2" cx="-683.58" cy="-240.32" r="52.34"/>
			<circle id="Ellipse_68-4" class="st3" cx="-683.63" cy="-240.46" r="52.33"/>
			<circle id="Ellipse_69-4" class="st4" cx="-683.67" cy="-240.52" r="52.34"/>
			<circle id="Ellipse_70-4" class="st5" cx="-683.75" cy="-240.61" r="52.32"/>
			<circle id="Ellipse_71-4" class="st6" cx="-683.76" cy="-240.67" r="52.34"/>
			<circle id="Ellipse_72-4" class="st7" cx="-683.8" cy="-240.76" r="52.34"/>
			<circle id="Ellipse_73-4" class="st8" cx="-683.88" cy="-240.88" r="52.31"/>
			<circle id="Ellipse_74-4" class="st9" cx="-683.89" cy="-240.96" r="52.34"/>
			<circle id="Ellipse_75-4" class="st10" cx="-683.93" cy="-241.05" r="52.34"/>
			<circle id="Ellipse_76-4" class="st11" cx="-683.98" cy="-241.11" r="52.34"/>
			<circle id="Ellipse_77-4" class="st12" cx="-684.02" cy="-241.19" r="52.34"/>
			<circle id="Ellipse_78-4" class="st13" cx="-684.09" cy="-241.29" r="52.32"/>
			<circle id="Ellipse_79-4" class="st14" cx="-684.11" cy="-241.4" r="52.34"/>
			<circle id="Ellipse_80-4" class="st15" cx="-684.14" cy="-241.45" r="52.35"/>
			<circle id="Ellipse_81-4" class="st16" cx="-684.19" cy="-241.55" r="52.34"/>
			<circle id="Ellipse_82-4" class="st17" cx="-684.24" cy="-241.66" r="52.34"/>
			<circle id="Ellipse_83-4" class="st18" cx="-684.28" cy="-241.75" r="52.34"/>
			<circle id="Ellipse_84-4" class="st19" cx="-684.33" cy="-241.83" r="52.34"/>
			<circle id="Ellipse_85-4" class="st20" cx="-684.39" cy="-241.91" r="52.33"/>
			<circle id="Ellipse_86-4" class="st21" cx="-684.41" cy="-242.01" r="52.34"/>
			<circle id="Ellipse_87-4" class="st22" cx="-684.46" cy="-242.1" r="52.34"/>
			<circle id="Ellipse_88-4" class="st23" cx="-684.5" cy="-242.19" r="52.34"/>
			<circle id="Ellipse_89-4" class="st24" cx="-684.54" cy="-242.27" r="52.34"/>
			<circle id="Ellipse_90-4" class="st25" cx="-684.59" cy="-242.36" r="52.34"/>
			<circle id="Ellipse_91-4" class="st26" cx="-684.63" cy="-242.45" r="52.34"/>
			<circle id="Ellipse_92-4" class="st27" cx="-684.67" cy="-242.54" r="52.34"/>
			<circle id="Ellipse_93-4" class="st28" cx="-684.72" cy="-242.62" r="52.34"/>
			<circle id="Ellipse_94-4" class="st29" cx="-684.76" cy="-242.71" r="52.34"/>
			<circle id="Ellipse_95-4" class="st30" cx="-684.81" cy="-242.8" r="52.34"/>
			<circle id="Ellipse_96-4" class="st31" cx="-684.85" cy="-242.89" r="52.34"/>
			<circle id="Ellipse_97-4" class="st32" cx="-684.89" cy="-242.98" r="52.34"/>
			<circle id="Ellipse_98-4" class="st33" cx="-684.93" cy="-243.04" r="52.34"/>
			<circle id="Ellipse_99-4" class="st34" cx="-684.98" cy="-243.15" r="52.34"/>
			<circle id="Ellipse_100-4" class="st35" cx="-685.02" cy="-243.24" r="52.34"/>
			<circle id="Ellipse_101-4" class="st36" cx="-685.07" cy="-243.33" r="52.34"/>
			<circle id="Ellipse_102-4" class="st37" cx="-685.11" cy="-243.41" r="52.34"/>
			<circle id="Ellipse_103-4" class="st38" cx="-685.15" cy="-243.48" r="52.34"/>
			<circle id="Ellipse_104-4" class="st39" cx="-685.19" cy="-243.57" r="52.35"/>
			<circle id="Ellipse_105-4" class="st40" cx="-685.24" cy="-243.68" r="52.34"/>
			<circle id="Ellipse_106-4" class="st41" cx="-685.3" cy="-243.74" r="52.33"/>
			<circle id="Ellipse_107-4" class="st42" cx="-685.33" cy="-243.85" r="52.34"/>
			<circle id="Ellipse_108-4" class="st43" cx="-685.37" cy="-243.94" r="52.34"/>
			<circle id="Ellipse_109-4" class="st44" cx="-685.4" cy="-244.01" r="52.35"/>
			<circle id="Ellipse_110-4" class="st45" cx="-685.42" cy="-244.11" r="52.37"/>
			<circle id="Ellipse_111-4" class="st46" cx="-685.5" cy="-244.2" r="52.34"/>
			<circle id="Ellipse_112-4" class="st47" cx="-685.54" cy="-244.29" r="52.34"/>
			<circle id="Ellipse_113-4" class="st48" cx="-685.59" cy="-244.38" r="52.34"/>
			<circle id="Ellipse_114-4" class="st49" cx="-685.62" cy="-244.48" r="52.34"/>
			<circle id="Ellipse_115-4" class="st50" cx="-685.64" cy="-244.57" r="52.36"/>
			<circle id="Ellipse_116-4" class="st51" cx="-685.75" cy="-244.65" r="52.31"/>
			<circle id="Ellipse_117-4" class="st52" cx="-685.76" cy="-244.73" r="52.34"/>
			<circle id="Ellipse_118-4" class="st53" cx="-685.81" cy="-244.82" r="52.34"/>
			<circle id="Ellipse_119-4" class="st54" cx="-685.85" cy="-244.9" r="52.34"/>
			<circle id="Ellipse_120-4" class="st55" cx="-685.89" cy="-244.99" r="52.34"/>
			<circle id="Ellipse_121-4" class="st56" cx="-685.97" cy="-245.09" r="52.31"/>
			<circle id="Ellipse_122-4" class="st57" cx="-685.99" cy="-245.19" r="52.34"/>
			<circle id="Ellipse_123-4" class="st58" cx="-686.02" cy="-245.26" r="52.34"/>
			<circle id="Ellipse_124-4" class="st59" cx="-686.07" cy="-245.34" r="52.34"/>
			<circle id="Ellipse_125-4" class="st60" cx="-686.11" cy="-245.43" r="52.34"/>
			<circle id="Ellipse_126-4" class="st61" cx="-686.19" cy="-245.53" r="52.31"/>
			<circle id="Ellipse_127-4" class="st62" cx="-686.2" cy="-245.61" r="52.34"/>
			<circle id="Ellipse_128-4" class="st63" cx="-686.28" cy="-245.68" r="52.31"/>
			<circle id="Ellipse_129-4" class="st63" cx="-686.28" cy="-245.78" r="52.34"/>
			<circle id="Ellipse_130-4" class="st64" cx="-686.33" cy="-245.83" r="52.35"/>
			<circle id="Ellipse_131-4" class="st65" cx="-686.37" cy="-245.96" r="52.34"/>
			<circle id="Ellipse_132-4" class="st66" cx="-686.43" cy="-246.03" r="52.33"/>
			<circle id="Ellipse_133-4" class="st67" cx="-686.46" cy="-246.13" r="52.34"/>
			<circle id="Ellipse_134-4" class="st68" cx="-686.54" cy="-246.21" r="52.31"/>
			<circle id="Ellipse_135-4" class="st69" cx="-686.55" cy="-246.31" r="52.34"/>
			<circle id="Ellipse_136-4" class="st70" cx="-686.59" cy="-246.4" r="52.34"/>
			<circle id="Ellipse_137-4" class="st71" cx="-686.64" cy="-246.47" r="52.33"/>
			<circle id="Ellipse_138-4" class="st72" cx="-686.68" cy="-246.57" r="52.34"/>
			<circle id="Ellipse_139-4" class="st73" cx="-686.74" cy="-246.68" r="52.34"/>
			<circle id="Ellipse_140-4" class="st74" cx="-686.75" cy="-246.78" r="52.36"/>
			<circle id="Ellipse_141-4" class="st75" cx="-686.81" cy="-246.84" r="52.34"/>
			<circle id="Ellipse_142-4" class="st76" cx="-686.85" cy="-246.92" r="52.34"/>
			<circle id="Ellipse_143-4" class="st77" cx="-686.89" cy="-247.01" r="52.34"/>
			<circle id="Ellipse_144-4" class="st78" cx="-686.94" cy="-247.1" r="52.34"/>
			<circle id="Ellipse_145-4" class="st79" cx="-686.98" cy="-247.18" r="52.34"/>
			<circle id="Ellipse_146-4" class="st80" cx="-687.03" cy="-247.27" r="52.34"/>
			<circle id="Ellipse_147-4" class="st81" cx="-687.07" cy="-247.36" r="52.34"/>
			<path id="Path_183-4" class="st82" d="M-640.65-223.35c13.31-25.66,3.3-57.25-22.36-70.56c-25.66-13.31-57.25-3.3-70.56,22.36
				c-13.31,25.66-3.3,57.25,22.36,70.56C-685.55-187.68-653.96-197.69-640.65-223.35z"/>
			<path id="Path_184-4" class="st83" d="M-640.7-223.44c13.31-25.66,3.3-57.25-22.36-70.56c-25.66-13.31-57.25-3.3-70.56,22.36
				c-13.31,25.66-3.3,57.25,22.36,70.56C-685.6-187.77-654.01-197.78-640.7-223.44z"/>
			<circle id="Ellipse_148-4" class="st84" cx="-687.2" cy="-247.62" r="52.34"/>
			<circle id="Ellipse_149-4" class="st85" cx="-687.24" cy="-247.71" r="52.34"/>
			<circle id="Ellipse_150-4" class="st86" cx="-687.29" cy="-247.8" r="52.34"/>
			<circle id="Ellipse_151-4" class="st87" cx="-687.33" cy="-247.93" r="52.32"/>
			<circle id="Ellipse_152-4" class="st88" cx="-687.37" cy="-247.97" r="52.34"/>
			<circle id="Ellipse_153-4" class="st89" cx="-687.42" cy="-248.06" r="52.34"/>
			<circle id="Ellipse_154-4" class="st90" cx="-687.46" cy="-248.15" r="52.34"/>
			<circle id="Ellipse_155-4" class="st91" cx="-687.5" cy="-248.24" r="52.34"/>
			<circle id="Ellipse_156-4" class="st92" cx="-687.55" cy="-248.33" r="52.34"/>
			<circle id="Ellipse_157-4" class="st93" cx="-687.59" cy="-248.41" r="52.34"/>
			<circle id="Ellipse_158-4" class="st94" cx="-687.63" cy="-248.5" r="52.34"/>
			<circle id="Ellipse_159-4" class="st95" cx="-687.68" cy="-248.59" r="52.34"/>
			<circle id="Ellipse_160-4" class="st96" cx="-687.72" cy="-248.68" r="52.34"/>
			<circle id="Ellipse_161-4" class="st97" cx="-687.77" cy="-248.72" r="52.32"/>
			<path id="Path_185-4" class="st98" d="M-641.35-224.75c13.31-25.66,3.3-57.25-22.36-70.56c-25.66-13.31-57.25-3.3-70.56,22.36
				c-13.31,25.66-3.3,57.25,22.36,70.56C-686.25-189.08-654.66-199.09-641.35-224.75C-641.35-224.75-641.35-224.75-641.35-224.75z"
				/>
			<path id="Path_186-4" class="st99" d="M-641.39-224.84c13.31-25.66,3.3-57.25-22.36-70.56c-25.66-13.31-57.25-3.3-70.56,22.36
				c-13.31,25.66-3.3,57.25,22.36,70.56C-686.29-189.17-654.7-199.18-641.39-224.84C-641.39-224.84-641.39-224.84-641.39-224.84z"/>
			<circle id="Ellipse_162-4" class="st100" cx="-687.9" cy="-249.03" r="52.34"/>
			<circle id="Ellipse_163-4" class="st101" cx="-687.94" cy="-249.12" r="52.34"/>
			<circle id="Ellipse_164-4" class="st102" cx="-687.98" cy="-249.2" r="52.34"/>
			<circle id="Ellipse_165-4" class="st103" cx="-688.03" cy="-249.29" r="52.34"/>
			<circle id="Ellipse_166-4" class="st104" cx="-688.07" cy="-249.38" r="52.34"/>
			<circle id="Ellipse_167-4" class="st105" cx="-688.11" cy="-249.47" r="52.34"/>
			<circle id="Ellipse_168-4" class="st106" cx="-688.16" cy="-249.55" r="52.34"/>
			<circle id="Ellipse_169-4" class="st107" cx="-688.2" cy="-249.64" r="52.34"/>
			<circle id="Ellipse_170-4" class="st108" cx="-688.24" cy="-249.73" r="52.34"/>
			<circle id="Ellipse_171-4" class="st109" cx="-688.29" cy="-249.82" r="52.34"/>
			<circle id="Ellipse_172-4" class="st110" cx="-688.33" cy="-249.9" r="52.34"/>
			<circle id="Ellipse_173-4" class="st111" cx="-688.37" cy="-249.99" r="52.34"/>
			<circle id="Ellipse_174-4" class="st112" cx="-688.42" cy="-250.08" r="52.34"/>
			<circle id="Ellipse_175-4" class="st113" cx="-688.46" cy="-250.17" r="52.34"/>
			<circle id="Ellipse_176-4" class="st114" cx="-688.5" cy="-250.26" r="52.34"/>
			<circle id="Ellipse_177-4" class="st115" cx="-688.53" cy="-250.33" r="52.35"/>
			<circle id="Ellipse_178-4" class="st116" cx="-688.59" cy="-250.43" r="52.34"/>
			<circle id="Ellipse_179-4" class="st117" cx="-688.63" cy="-250.52" r="52.34"/>
			<circle id="Ellipse_180-4" class="st118" cx="-688.68" cy="-250.61" r="52.34"/>
			<circle id="Ellipse_181-4" class="st119" cx="-688.72" cy="-250.69" r="52.34"/>
			<circle id="Ellipse_182-4" class="st120" cx="-688.79" cy="-250.77" r="52.32"/>
			<path id="Path_187-4" class="st121" d="M-642.35-226.77c13.31-25.66,3.3-57.25-22.36-70.56c-25.66-13.31-57.25-3.3-70.56,22.36
				c-13.31,25.66-3.3,57.25,22.36,70.56C-687.25-191.1-655.66-201.11-642.35-226.77C-642.35-226.77-642.35-226.77-642.35-226.77z"/>
			<circle id="Ellipse_183-4" class="st122" cx="-688.85" cy="-250.96" r="52.34"/>
			<circle id="Ellipse_184-4" class="st123" cx="-688.9" cy="-251.04" r="52.34"/>
			<circle id="Ellipse_185-4" class="st124" cx="-688.94" cy="-251.13" r="52.34"/>
			<circle id="Ellipse_186-4" class="st125" cx="-688.98" cy="-251.22" r="52.34"/>
			<circle id="Ellipse_187-4" class="st126" cx="-689.03" cy="-251.31" r="52.34"/>
			<circle id="Ellipse_188-4" class="st127" cx="-689.07" cy="-251.39" r="52.34"/>
		</g>
		<circle id="Ellipse_189-4" class="st1" cx="-547.68" cy="-226.95" r="52.34"/>
		
			<linearGradient id="Path_2040_1_" gradientUnits="userSpaceOnUse" x1="-609.8057" y1="-159.4754" x2="-609.8057" y2="-160.8674" gradientTransform="matrix(78.3354 -12.7114 -12.7114 -78.3354 45190.668 -20495.5391)">
			<stop  offset="0" style="stop-color:#EC1D24"/>
			<stop  offset="1" style="stop-color:#CE2029"/>
		</linearGradient>
		<path id="Path_2040" class="st128" d="M-553.95-266.45c21.63-3.51,42.01,11.18,45.52,32.81s-11.18,42.01-32.81,45.52
			c-21.63,3.51-42.01-11.18-45.52-32.81c0,0,0,0,0,0C-590.27-242.55-575.58-262.94-553.95-266.45z"/>
	</g>
	<g id="vector" transform="translate(932 3268.299)">
		<g id="Group_95">
			<g id="Group_94">
				<path id="Path_179" class="st1" d="M-713.48-321.93h-5.86c-0.8,0-1.44,0.64-1.44,1.44c0,0,0,0,0,0v1.44h-11.8
					c-0.78-2.24-3.23-3.43-5.47-2.65c-1.24,0.43-2.22,1.41-2.65,2.65h-11.81v-1.44c0-0.8-0.64-1.44-1.44-1.44c0,0,0,0,0,0h-5.86
					c-0.8,0-1.44,0.64-1.44,1.44c0,0,0,0,0,0v5.77c0,0.8,0.64,1.44,1.44,1.44c0,0,0,0,0,0h5.86c0.8,0,1.44-0.64,1.44-1.44
					c0,0,0,0,0,0v-1.46h5.92c-5.1,3.24-8.34,8.73-8.7,14.77c-2.26,0.74-3.49,3.18-2.75,5.45s3.18,3.49,5.45,2.75
					c2.26-0.74,3.49-3.18,2.75-5.45c-0.41-1.24-1.35-2.22-2.57-2.69c0.46-6.85,5.28-12.61,11.93-14.29c1.07,2.11,3.65,2.96,5.76,1.9
					c0.82-0.41,1.48-1.08,1.9-1.9c6.65,1.67,11.47,7.44,11.93,14.29c-2.24,0.85-3.37,3.35-2.53,5.59c0.85,2.24,3.35,3.37,5.59,2.53
					c2.24-0.85,3.37-3.35,2.53-5.59c-0.46-1.23-1.46-2.18-2.71-2.59c-0.36-6.03-3.6-11.52-8.7-14.75h5.92v1.44
					c0,0.8,0.64,1.44,1.44,1.44c0,0,0,0,0,0h5.86c0.8,0,1.44-0.64,1.44-1.44c0,0,0,0,0,0v-5.77
					C-712.03-321.29-712.68-321.93-713.48-321.93C-713.47-321.93-713.47-321.93-713.48-321.93z"/>
			</g>
		</g>
		<g id="Group_97" transform="translate(14.739 43.363)">
			<g id="Group_96">
				<path id="Path_180" class="st1" d="M-741.57-317.86c-0.77-2.39-2.97-4.03-5.48-4.08h-8.65c-2.51,0.04-4.72,1.68-5.48,4.08
					c-0.2,0.76,0.25,1.54,1,1.74c0.13,0.03,0.26,0.05,0.4,0.05h16.82c0.78,0.02,1.43-0.61,1.45-1.39
					C-741.52-317.59-741.54-317.73-741.57-317.86z"/>
			</g>
		</g>
		<g id="Group_99" transform="translate(11.634 12.64)">
			<g id="Group_98">
				<path id="Path_181" class="st1" d="M-735.54-304.99l-11.3-16.94v13.68c2.25,0.8,3.43,3.27,2.64,5.52
					c-0.8,2.25-3.27,3.43-5.52,2.64s-3.43-3.27-2.64-5.52c0.44-1.23,1.41-2.2,2.64-2.64v-13.68l-11.3,16.94
					c-0.38,0.57-0.31,1.33,0.18,1.82c2.62,2.65,4.36,6.04,4.99,9.72c1.03-0.42,2.13-0.64,3.24-0.64h8.65c1.11,0,2.21,0.22,3.24,0.64
					c0.63-3.67,2.37-7.07,4.99-9.72C-735.24-303.65-735.16-304.42-735.54-304.99z"/>
			</g>
		</g>
		<g id="Group_101" transform="translate(23.172 28.941)">
			<g id="Group_100">
				<path id="Path_182" class="st1" d="M-759.82-321.93c-0.8,0-1.44,0.65-1.44,1.44c0,0.8,0.65,1.44,1.44,1.44s1.44-0.65,1.44-1.44
					l0,0C-758.38-321.29-759.02-321.93-759.82-321.93z"/>
			</g>
		</g>
	</g>
</g>
</svg>
