<?xml version="1.0" encoding="utf-8"?><svg xmlns="http://www.w3.org/2000/svg" viewBox="0 0 807.2 165"><path d="M76.4 146.5c-13.2 1.4-55.4.9-73.1 1V2.5h49.2c22.3.4 29.9 2 37.9 7.5 22.8 15.5 20.1 49.3-4.8 60.5 42.8 12.5 32.9 71.3-9.2 76z" fill="#0f1031"/><circle cx="53.4" cy="42.5" r="15.4" fill="#fdc528"/><path d="M73.5 119.2H33.2l20.2-30.6z" fill="#007aff"/><path d="M240.4 28.1c20.6 0 32.5 11.9 32.5 27.9 0 10.7-6.8 19.6-15.3 22.3 9.4 2.2 18.5 10.9 18.5 24.4 0 17.1-12.9 29.5-32.6 29.5h-42V28.1h38.9zm-3.7 41.8c8.1 0 13.4-4.3 13.4-11.3 0-6.8-4.6-11.2-13.7-11.2h-12.3v22.5h12.6zm1.9 43.5c9 0 14.4-4.7 14.4-12.2 0-7.2-5.3-12.2-14.4-12.2H224v24.4h14.6zm94.7-32.1c-2.5-.6-4.9-.7-7.1-.7-9 0-17.1 5.3-17.1 19.8v31.9h-22.3v-73h21.6v9.8c3.8-8.2 13.1-10.6 19-10.6 2.2 0 4.4.3 5.9.7v22.1zm20.9-57.5c7.4 0 13.2 5.9 13.2 13.1S361.5 50 354.2 50c-7.1 0-12.9-5.9-12.9-13.1s5.8-13.1 12.9-13.1zm-11 108.5v-73h22.3v73.1h-22.3zm55.1-36.4c0 11.6 7.8 18.1 17.1 18.1 8.7 0 13.5-5.4 15.1-10.9l19.7 6c-3.2 12.8-15.3 25.4-34.8 25.4-21.8 0-39.2-16-39.2-38.7 0-22.8 17.1-38.8 38.5-38.8 20.1 0 31.9 12.3 35.1 25.4l-20 6c-1.6-5.6-6-10.9-14.7-10.9-9.3.1-16.8 6.6-16.8 18.4zM505.1 90l29.1 42.3h-27.3l-17.2-25.7-7.2 7.8v17.9h-22.3V25.9h22.3v57.9l22.2-24.5h29L505.1 90zm49.9 5.9c0 11.6 7.8 18.1 17.1 18.1 8.7 0 13.5-5.4 15.1-10.9l19.7 6c-3.2 12.8-15.3 25.4-34.8 25.4-21.8 0-39.2-16-39.2-38.7C532.9 73 550 57 571.4 57c20.1 0 31.9 12.3 35.1 25.4l-20 6c-1.6-5.6-6-10.9-14.7-10.9-9.3.1-16.8 6.6-16.8 18.4zm61.9 36.4V25.9h22.3v106.4h-22.3zm54.8-42.2l17.2-2.6c4-.6 5.3-2.5 5.3-5 0-4.3-3.7-7.9-10.7-7.9-7.8 0-12.1 5.3-12.5 10.7l-19.4-4c.9-10.4 10.6-24.3 32-24.3 23.7 0 32.3 13.2 32.3 28.2V121c0 5.7.7 10.6.9 11.3h-20.1c-.1-.6-.7-3.2-.7-8.2-3.8 6.2-10.9 10.3-20.6 10.3-16 0-25.3-10.6-25.3-22.2 0-12.9 9.5-20.3 21.6-22.1zm22.5 13.6v-3.2l-13.8 2.2c-4.7.7-8.2 2.9-8.2 8.1 0 3.8 2.5 7.5 8.7 7.5 6.5-.1 13.3-3.3 13.3-14.6zm39.8 56.7l16.6-37.9-30.7-63.2h25l17.8 39.1 16.2-39.1h23.7l-45 101.1H734z" fill="#0f1031"/></svg>