<svg id="Layer_5" enable-background="new 0 0 64 64" height="512" viewBox="0 0 64 64" width="512" xmlns="http://www.w3.org/2000/svg"><path d="m9 30c0 2.757 2.243 5 5 5 .688 0 1.369-.15 2-.428v-9.144c-.631-.278-1.312-.428-2-.428-2.757 0-5 2.243-5 5z"/><path d="m50 6c0-1.654-1.346-3-3-3h-26c-1.654 0-3 1.346-3 3v3h32zm-14 1h-8v-2h8zm4 0h-2v-2h2z"/><path d="m48 46.949v4.051h-28v-38h28v6.051c.332-.024.662-.051 1-.051s.668.027 1 .051v-8.051h-32v42h32v-6.051c-.332.024-.662.051-1 .051s-.668-.027-1-.051z"/><path d="m11.169 21.452-1.22.496-2.158-1.296-3.138 3.139 1.296 2.159-.503 1.22-2.446.611v4.438l2.449.611.5 1.22-1.296 2.159 3.138 3.139 2.158-1.296 1.142.464.203.535.487 1.949h4.219v-4.305c-.649.195-1.321.305-2 .305-3.86 0-7-3.141-7-7s3.14-7 7-7c.679 0 1.351.11 2 .305v-4.305h-4.219z"/><path d="m18 58c0 1.654 1.346 3 3 3h26c1.654 0 3-1.346 3-3v-3h-32zm26-1h2v2h-2zm-14 0h8v2h-8zm-8 0h2v2h-2z"/><path d="m46 19.332v-4.332h-24v34h24v-2.332c-6.282-1.378-11-6.979-11-13.668 0-.681.065-1.345.16-2h-11.16v-14h20v2.939c.646-.248 1.312-.456 2-.607zm-13 27.668h-9v-2h9zm0-4h-9v-2h9zm0-4h-9v-2h9zm0-6v2h-9v-2z"/><path d="m35.59 29c1.03-3.447 3.357-6.333 6.41-8.106v-1.894h-16v10z"/><path d="m49 21c-6.617 0-12 5.383-12 12 0 1.949.477 3.785 1.305 5.414.555-1.527 1.832-2.728 3.482-3.141l4.213-1.054v-.239c-1.246-.939-2-2.416-2-3.979v-1.793c0-2.687 2.001-4.966 4.556-5.188 1.396-.123 2.792.351 3.822 1.294 1.031.945 1.622 2.289 1.622 3.686v2c0 1.563-.754 3.04-2 3.979v.239l4.213 1.054c1.65.413 2.927 1.614 3.482 3.141.828-1.628 1.305-3.464 1.305-5.413 0-6.617-5.383-12-12-12z"/><path d="m55.728 37.212-5.728-1.431v-2.911l.497-.289c.941-.548 1.503-1.513 1.503-2.581v-2c0-.839-.355-1.645-.974-2.212-.626-.575-1.439-.846-2.298-.776-1.529.133-2.728 1.536-2.728 3.195v1.793c0 1.068.562 2.033 1.503 2.581l.497.289v2.911l-5.728 1.431c-1.337.335-2.272 1.532-2.272 2.911v.788c2.201 2.5 5.415 4.089 9 4.089s6.799-1.589 9-4.089v-.788c0-1.379-.935-2.576-2.272-2.911z"/><path d="m57 19c1.654 0 3-1.346 3-3 0-1.302-.839-2.402-2-2.816v-8.184h-2v8.184c-1.161.414-2 1.514-2 2.816 0 1.654 1.346 3 3 3z"/><path d="m56 1h2v2h-2z"/><path d="m11 45c-1.654 0-3 1.346-3 3 0 1.302.839 2.402 2 2.816v8.184h2v-8.184c1.161-.414 2-1.514 2-2.816 0-1.654-1.346-3-3-3z"/><path d="m10 61h2v2h-2z"/></svg>