<svg id="Capa_1" enable-background="new 0 0 512 512" height="512" viewBox="0 0 512 512" width="512" xmlns="http://www.w3.org/2000/svg"><g><path d="m377.25 140.006c-18.64 0-33.75 15.11-33.75 33.75v-20c0-18.64-15.11-33.75-33.75-33.75-18.64 0-33.75 15.11-33.75 33.75v42.25h5c10.684 0 20.727 4.166 28.276 11.73 7.581 7.596 11.744 17.698 11.724 28.445-.023 11.847-2.382 23.158-6.631 33.501 16.453-2.253 29.131-16.356 29.131-33.427 0 18.64 15.11 33.75 33.75 33.75 18.64 0 33.75-15.11 33.75-33.75v-62.5c0-18.639-15.11-33.749-33.75-33.749z"/><path d="m263.157.518c-18.356-3.237-35.861 9.02-39.098 27.377l-23.038 130.653-23.037-130.651c-3.237-18.357-20.742-30.614-39.098-27.377-18.356 3.237-30.613 20.741-27.377 39.098l27.865 158.032c5.379-1.071 10.936-1.644 16.625-1.644h90v-42.25c0-24.563 13.973-45.911 34.379-56.552l10.154-57.587c3.238-18.357-9.019-35.862-27.375-39.099z"/><path d="m343.5 290.297c-9.795 6.139-21.361 9.703-33.75 9.703-4.884 0-9.634-.57-14.206-1.615-.04-.007-.084-.003-.123-.012-.001.001-.002.002-.003.003-10.764 10.942-24.326 19.12-39.516 23.361 21.429 19.158 34.981 46.952 35.097 77.864.031 8.139-6.356 15.123-14.491 15.392-8.515.28-15.508-6.54-15.508-14.993 0-36.925-26.822-67.702-62.005-73.873-7.47-1.31-12.995-7.665-12.995-15.249 0-8.769 7.109-15.878 15.878-15.878h30.122c32.545 0 58.936-26.351 59-58.882.011-5.565-4.435-10.118-10-10.118h-125c-30.376 0-55 24.624-55 55v50.752c0 40.587 23.706 76.878 60 93.45v86.798h210v-88.291c24.89-15.986 40-43.614 40-73.709v-59.703c-9.796 6.139-21.362 9.703-33.75 9.703-12.389 0-23.955-3.564-33.75-9.703z"/></g></svg>