<svg id="Capa_1" enable-background="new 0 0 512 512" height="512" viewBox="0 0 512 512" width="512" xmlns="http://www.w3.org/2000/svg"><g><path d="m512 416.567v-214.293c0-8.284-6.716-15-15-15h-168.096c-8.284 0-15 6.716-15 15v143.542h-42.549v-170.003c0-8.284-6.716-15-15-15h-58.26v-145.813c0-8.284-6.716-15-15-15h-168.095c-8.284 0-15 6.716-15 15v214.292h198.095v-38.479h43.26v170.004c0 8.284 6.716 15 15 15h57.549v40.75zm-391.828-228.025h-42.25c-8.284 0-15-6.716-15-15s6.716-15 15-15h42.25c8.284 0 15 6.716 15 15s-6.715 15-15 15zm0-87.792h-42.25c-8.284 0-15-6.716-15-15s6.716-15 15-15h42.25c8.284 0 15 6.716 15 15s-6.715 15-15 15zm313.905 275.067h-42.25c-8.284 0-15-6.716-15-15s6.716-15 15-15h42.25c8.284 0 15 6.716 15 15s-6.716 15-15 15zm0-87.793h-42.25c-8.284 0-15-6.716-15-15s6.716-15 15-15h42.25c8.284 0 15 6.716 15 15s-6.716 15-15 15z"/><path d="m313.904 446.567v50.433c0 8.284 6.716 15 15 15h168.096c8.284 0 15-6.716 15-15v-50.433z"/><path d="m0 259.292v50.433c0 8.284 6.716 15 15 15h168.095c8.284 0 15-6.716 15-15v-50.433z"/></g></svg>