<?xml version="1.0" encoding="iso-8859-1"?>
<!-- Generator: Adobe Illustrator 21.0.0, SVG Export Plug-In . SVG Version: 6.00 Build 0)  -->
<svg xmlns="http://www.w3.org/2000/svg" xmlns:xlink="http://www.w3.org/1999/xlink" version="1.1" id="Capa_1" x="0px" y="0px" viewBox="0 0 512 512" style="enable-background:new 0 0 512 512;" xml:space="preserve" width="512" height="512">
<g>
	<path d="M206.985,147.512c-8.828-10.848-14.133-24.672-14.133-39.716c0-34.754,28.274-63.028,63.028-63.028   s63.028,28.274,63.028,63.028c0,15.011-5.283,28.807-14.077,39.645c11.175,4.687,21.464,11.782,30.282,21.044   c8.306,8.723,14.807,19.017,19.21,30.095c15.949-20.813,25.441-46.821,25.441-75.009C379.764,55.434,324.33,0,256.193,0   S132.621,55.434,132.621,123.571c0,28.03,9.387,53.904,25.174,74.658c4.4-10.946,10.859-21.113,19.078-29.745   C185.647,159.27,195.876,152.2,206.985,147.512z"/>
	<path d="M139.478,427.218h-31.944c-31.193,0-57.645,26.907-58.881,59.271C69.481,502.479,95.523,512,123.751,512   c28.01,0,53.869-9.374,74.617-25.141C197.321,454.33,170.789,427.218,139.478,427.218z"/>
	<path d="M403.069,427.218h-31.944c-30.974,0-57.287,26.528-58.864,58.589C333.235,502.211,359.619,512,388.249,512   c27.61,0,53.133-9.104,73.728-24.465C461.278,454.707,434.597,427.218,403.069,427.218z"/>
	<path d="M386.984,397.218c18.212,0,33.028-14.816,33.028-33.028s-14.816-33.028-33.028-33.028s-33.028,14.816-33.028,33.028   S368.772,397.218,386.984,397.218z"/>
	<path d="M338.089,403.906c-8.828-10.848-14.133-24.672-14.133-39.716c0-34.754,28.274-63.028,63.028-63.028   s63.028,28.274,63.028,63.028c0,15.011-5.283,28.807-14.077,39.645c11.175,4.687,21.463,11.782,30.281,21.043   c9.939,10.439,17.287,23.127,21.549,36.719c15.111-20.498,24.056-45.806,24.056-73.168c0-68.137-55.434-123.571-123.572-123.571   c-32.165,0-61.495,12.357-83.504,32.568l-33.497-28.527v-22.673c21.883-2.67,42.017-11.083,58.847-23.68   c-4.69-28.893-29.399-51.72-58.129-51.72h-31.944c-28.641,0-53.283,22.688-58.082,51.454   c16.918,12.757,37.203,21.275,59.264,23.954v22.583l-33.682,28.858c-22.038-20.357-51.474-32.816-83.77-32.816   c-68.138,0-123.572,55.434-123.572,123.571c0,26.774,8.562,51.583,23.087,71.841c4.318-13.089,11.504-25.294,21.119-35.392   c8.773-9.214,19.002-16.284,30.112-20.971c-8.828-10.848-14.133-24.672-14.133-39.716c0-34.754,28.274-63.028,63.028-63.028   s63.028,28.274,63.028,63.028c0,15.011-5.283,28.807-14.077,39.645c11.175,4.687,21.464,11.782,30.282,21.043   c9.729,10.218,16.97,22.592,21.27,35.858c14.73-20.344,23.428-45.327,23.428-72.308c0-25.044-7.496-48.366-20.352-67.856   l29.219-25.033l29.039,24.729c-12.979,19.551-20.552,42.987-20.552,68.161c0,26.388,8.319,50.868,22.466,70.964   c4.348-12.758,11.435-24.641,20.835-34.514C316.75,415.663,326.979,408.593,338.089,403.906z"/>
	<path d="M255.88,140.824c18.212,0,33.028-14.816,33.028-33.028s-14.816-33.028-33.028-33.028s-33.028,14.816-33.028,33.028   S237.668,140.824,255.88,140.824z"/>
	<path d="M123.393,397.218c18.212,0,33.028-14.816,33.028-33.028s-14.816-33.028-33.028-33.028s-33.028,14.816-33.028,33.028   S105.181,397.218,123.393,397.218z"/>
</g>















</svg>
