<?xml version="1.0" encoding="iso-8859-1"?>
<!-- Generator: Adobe Illustrator 22.1.0, SVG Export Plug-In . SVG Version: 6.00 Build 0)  -->
<svg xmlns="http://www.w3.org/2000/svg" xmlns:xlink="http://www.w3.org/1999/xlink" version="1.1" id="Layer_1_1_" x="0px" y="0px" viewBox="0 0 64 64" style="enable-background:new 0 0 64 64;" xml:space="preserve" width="512" height="512">
<g>
	<polygon points="33,51 5,51 5,13 33,13 33,17 35,17 35,11 3,11 3,53 35,53 35,47 33,47  "/>
	<rect x="11" y="19" width="10" height="6"/>
	<path d="M31,17v-2H7v34h24v-2h-6V17H31z M23,47H9v-2h14V47z M23,43H9v-2h14V43z M23,39H9v-2h14V39z M23,35H9v-2h14V35z M23,31H9v-2   h14V31z M23,27H9V17h14V27z"/>
	<path d="M3,58c0,1.654,1.346,3,3,3h26c1.654,0,3-1.346,3-3v-3H3V58z M16,57h6v2h-6V57z"/>
	<path d="M35,6c0-1.654-1.346-3-3-3H6C4.346,3,3,4.346,3,6v3h32V6z M13,7h-2V5h2V7z M23,7h-8V5h8V7z M27,7h-2V5h2V7z"/>
	<path d="M27,19v6h34v-6H27z M31,23h-2v-2h2V23z M35,23h-2v-2h2V23z M39,23h-2v-2h2V23z"/>
	<path d="M27,45h9h25V27H27V45z M49,43h-2v-2h2V43z M45,36c0-3.859,3.141-7,7-7s7,3.141,7,7s-3.141,7-7,7h-1v-6h-6V36z M29,29h14v2   H29V29z M29,33h14v2H29V33z M29,37h14v2H29V37z M29,41h16v2H29V41z"/>
	<path d="M53,40.899c2.279-0.465,4-2.484,4-4.899c0-2.757-2.243-5-5-5c-2.415,0-4.435,1.721-4.899,4H53V40.899z"/>
</g>
</svg>
